<?xml version="1.0" standalone="no"?>
<!DOCTYPE svg PUBLIC "-//W3C//DTD SVG 1.1//EN" "http://www.w3.org/Graphics/SVG/1.1/DTD/svg11.dtd">
<svg width="413" height="573" viewBox="-102 -408 413 573" xmlns="http://www.w3.org/2000/svg" version="1.1">
<title>OpenSCAD Model</title>
<path d="
M 310.8,-408 L 107.6,-408 L 107.6,100 L 310.8,100 z
M 158.265,51.3458 L 157.997,51.3119 L 157.736,51.2448 L 157.485,51.1454 L 157.248,51.0153 L 157.03,50.8566
 L 156.833,50.6718 L 156.661,50.4637 L 156.516,50.2358 L 156.401,49.9915 L 156.318,49.7347 L 156.267,49.4695
 L 156.25,49.2 L 156.267,48.9305 L 156.318,48.6653 L 156.401,48.4085 L 156.516,48.1642 L 156.661,47.9363
 L 156.833,47.7282 L 157.03,47.5434 L 157.248,47.3847 L 157.485,47.2546 L 157.736,47.1552 L 157.997,47.0881
 L 158.265,47.0542 L 158.535,47.0542 L 158.803,47.0881 L 159.064,47.1552 L 159.315,47.2546 L 159.552,47.3847
 L 159.77,47.5434 L 159.967,47.7282 L 160.139,47.9363 L 160.284,48.1642 L 160.399,48.4085 L 160.482,48.6653
 L 160.533,48.9305 L 160.55,49.2 L 160.533,49.4695 L 160.482,49.7347 L 160.399,49.9915 L 160.284,50.2358
 L 160.139,50.4637 L 159.967,50.6718 L 159.77,50.8566 L 159.552,51.0153 L 159.315,51.1454 L 159.064,51.2448
 L 158.803,51.3119 L 158.535,51.3458 z
M 259.865,51.3458 L 259.597,51.3119 L 259.336,51.2448 L 259.085,51.1454 L 258.848,51.0153 L 258.63,50.8566
 L 258.433,50.6718 L 258.261,50.4637 L 258.116,50.2358 L 258.001,49.9915 L 257.918,49.7347 L 257.867,49.4695
 L 257.85,49.2 L 257.867,48.9305 L 257.918,48.6653 L 258.001,48.4085 L 258.116,48.1642 L 258.261,47.9363
 L 258.433,47.7282 L 258.63,47.5434 L 258.848,47.3847 L 259.085,47.2546 L 259.336,47.1552 L 259.597,47.0881
 L 259.865,47.0542 L 260.135,47.0542 L 260.403,47.0881 L 260.664,47.1552 L 260.915,47.2546 L 261.152,47.3847
 L 261.37,47.5434 L 261.567,47.7282 L 261.739,47.9363 L 261.884,48.1642 L 261.999,48.4085 L 262.082,48.6653
 L 262.133,48.9305 L 262.15,49.2 L 262.133,49.4695 L 262.082,49.7347 L 261.999,49.9915 L 261.884,50.2358
 L 261.739,50.4637 L 261.567,50.6718 L 261.37,50.8566 L 261.152,51.0153 L 260.915,51.1454 L 260.664,51.2448
 L 260.403,51.3119 L 260.135,51.3458 z
M 101.6,-408 L -101.6,-408 L -101.6,100 L 101.6,100 z
M -50.935,-355.054 L -51.2029,-355.088 L -51.4644,-355.155 L -51.7154,-355.255 L -51.952,-355.385 L -52.1705,-355.543
 L -52.3673,-355.728 L -52.5394,-355.936 L -52.6841,-356.164 L -52.799,-356.409 L -52.8824,-356.665 L -52.933,-356.931
 L -52.95,-357.2 L -52.933,-357.469 L -52.8824,-357.735 L -52.799,-357.991 L -52.6841,-358.236 L -52.5394,-358.464
 L -52.3673,-358.672 L -52.1705,-358.857 L -51.952,-359.015 L -51.7154,-359.145 L -51.4644,-359.245 L -51.2029,-359.312
 L -50.935,-359.346 L -50.665,-359.346 L -50.3971,-359.312 L -50.1356,-359.245 L -49.8846,-359.145 L -49.648,-359.015
 L -49.4295,-358.857 L -49.2327,-358.672 L -49.0606,-358.464 L -48.9159,-358.236 L -48.801,-357.991 L -48.7175,-357.735
 L -48.6669,-357.469 L -48.65,-357.2 L -48.6669,-356.931 L -48.7175,-356.665 L -48.801,-356.409 L -48.9159,-356.164
 L -49.0606,-355.936 L -49.2327,-355.728 L -49.4295,-355.543 L -49.648,-355.385 L -49.8846,-355.255 L -50.1356,-355.155
 L -50.3971,-355.088 L -50.665,-355.054 z
M 50.665,-355.054 L 50.3971,-355.088 L 50.1356,-355.155 L 49.8846,-355.255 L 49.648,-355.385 L 49.4295,-355.543
 L 49.2327,-355.728 L 49.0606,-355.936 L 48.9159,-356.164 L 48.801,-356.409 L 48.7175,-356.665 L 48.6669,-356.931
 L 48.65,-357.2 L 48.6669,-357.469 L 48.7175,-357.735 L 48.801,-357.991 L 48.9159,-358.236 L 49.0606,-358.464
 L 49.2327,-358.672 L 49.4295,-358.857 L 49.648,-359.015 L 49.8846,-359.145 L 50.1356,-359.245 L 50.3971,-359.312
 L 50.665,-359.346 L 50.935,-359.346 L 51.2029,-359.312 L 51.4644,-359.245 L 51.7154,-359.145 L 51.952,-359.015
 L 52.1705,-358.857 L 52.3673,-358.672 L 52.5394,-358.464 L 52.6841,-358.236 L 52.799,-357.991 L 52.8824,-357.735
 L 52.933,-357.469 L 52.95,-357.2 L 52.933,-356.931 L 52.8824,-356.665 L 52.799,-356.409 L 52.6841,-356.164
 L 52.5394,-355.936 L 52.3673,-355.728 L 52.1705,-355.543 L 51.952,-355.385 L 51.7154,-355.255 L 51.4644,-355.155
 L 51.2029,-355.088 L 50.935,-355.054 z
M -57.7695,-55.3669 L -58.0347,-55.4175 L -58.2915,-55.501 L -58.5358,-55.6159 L -58.7637,-55.7606 L -58.9718,-55.9327
 L -59.1566,-56.1295 L -59.3153,-56.348 L -59.4454,-56.5846 L -59.5448,-56.8356 L -59.6119,-57.0971 L -59.6458,-57.365
 L -59.6458,-57.635 L -59.6119,-57.9029 L -59.5448,-58.1644 L -59.4454,-58.4154 L -59.3153,-58.652 L -59.1566,-58.8705
 L -58.9718,-59.0673 L -58.7637,-59.2394 L -58.5358,-59.384 L -58.2915,-59.499 L -58.0347,-59.5824 L -57.7695,-59.633
 L -57.5,-59.65 L -57.2305,-59.633 L -56.9653,-59.5824 L -56.7085,-59.499 L -56.4642,-59.384 L -56.2363,-59.2394
 L -56.0282,-59.0673 L -55.8434,-58.8705 L -55.6847,-58.652 L -55.5546,-58.4154 L -55.4552,-58.1644 L -55.3881,-57.9029
 L -55.3542,-57.635 L -55.3542,-57.365 L -55.3881,-57.0971 L -55.4552,-56.8356 L -55.5546,-56.5846 L -55.6847,-56.348
 L -55.8434,-56.1295 L -56.0282,-55.9327 L -56.2363,-55.7606 L -56.4642,-55.6159 L -56.7085,-55.501 L -56.9653,-55.4175
 L -57.2305,-55.3669 L -57.5,-55.35 z
M 57.365,-55.3542 L 57.0971,-55.3881 L 56.8356,-55.4552 L 56.5846,-55.5546 L 56.348,-55.6847 L 56.1295,-55.8434
 L 55.9327,-56.0282 L 55.7606,-56.2363 L 55.6159,-56.4642 L 55.501,-56.7085 L 55.4175,-56.9653 L 55.3669,-57.2305
 L 55.35,-57.5 L 55.3669,-57.7695 L 55.4175,-58.0347 L 55.501,-58.2915 L 55.6159,-58.5358 L 55.7606,-58.7637
 L 55.9327,-58.9718 L 56.1295,-59.1566 L 56.348,-59.3153 L 56.5846,-59.4454 L 56.8356,-59.5448 L 57.0971,-59.6119
 L 57.365,-59.6458 L 57.635,-59.6458 L 57.9029,-59.6119 L 58.1644,-59.5448 L 58.4154,-59.4454 L 58.652,-59.3153
 L 58.8705,-59.1566 L 59.0673,-58.9718 L 59.2394,-58.7637 L 59.384,-58.5358 L 59.499,-58.2915 L 59.5824,-58.0347
 L 59.633,-57.7695 L 59.65,-57.5 L 59.633,-57.2305 L 59.5824,-56.9653 L 59.499,-56.7085 L 59.384,-56.4642
 L 59.2394,-56.2363 L 59.0673,-56.0282 L 58.8705,-55.8434 L 58.652,-55.6847 L 58.4154,-55.5546 L 58.1644,-55.4552
 L 57.9029,-55.3881 L 57.635,-55.3542 z
M -3.51627,55.8895 L -10.4933,55.0081 L -17.3049,53.2592 L -23.8436,50.6703 L -30.0063,47.2823 L -35.6957,43.1487
 L -40.8222,38.3346 L -45.3049,32.916 L -49.0732,26.9782 L -52.0675,20.615 L -54.2406,13.9266 L -55.5584,7.01865
 L -56,-0 L -55.5584,-7.01865 L -54.2406,-13.9266 L -52.0675,-20.615 L -49.0732,-26.9782 L -45.3049,-32.916
 L -40.8222,-38.3346 L -35.6957,-43.1487 L -30.0063,-47.2823 L -23.8436,-50.6703 L -17.3049,-53.2592 L -10.4933,-55.0081
 L -3.51627,-55.8895 L 3.51627,-55.8895 L 10.4933,-55.0081 L 17.3049,-53.2592 L 23.8436,-50.6703 L 30.0063,-47.2823
 L 35.6957,-43.1487 L 40.8222,-38.3346 L 45.3049,-32.916 L 49.0732,-26.9782 L 52.0675,-20.615 L 54.2406,-13.9266
 L 55.5584,-7.01865 L 56,-0 L 55.5584,7.01865 L 54.2406,13.9266 L 52.0675,20.615 L 49.0732,26.9782
 L 45.3049,32.916 L 40.8222,38.3346 L 35.6957,43.1487 L 30.0063,47.2823 L 23.8436,50.6703 L 17.3049,53.2592
 L 10.4933,55.0081 L 3.51627,55.8895 z
M 57.2305,59.633 L 56.9653,59.5824 L 56.7085,59.499 L 56.4642,59.384 L 56.2363,59.2394 L 56.0282,59.0673
 L 55.8434,58.8705 L 55.6847,58.652 L 55.5546,58.4154 L 55.4552,58.1644 L 55.3881,57.9029 L 55.3542,57.635
 L 55.3542,57.365 L 55.3881,57.0971 L 55.4552,56.8356 L 55.5546,56.5846 L 55.6847,56.348 L 55.8434,56.1295
 L 56.0282,55.9327 L 56.2363,55.7606 L 56.4642,55.6159 L 56.7085,55.501 L 56.9653,55.4175 L 57.2305,55.3669
 L 57.5,55.35 L 57.7695,55.3669 L 58.0347,55.4175 L 58.2915,55.501 L 58.5358,55.6159 L 58.7637,55.7606
 L 58.9718,55.9327 L 59.1566,56.1295 L 59.3153,56.348 L 59.4454,56.5846 L 59.5448,56.8356 L 59.6119,57.0971
 L 59.6458,57.365 L 59.6458,57.635 L 59.6119,57.9029 L 59.5448,58.1644 L 59.4454,58.4154 L 59.3153,58.652
 L 59.1566,58.8705 L 58.9718,59.0673 L 58.7637,59.2394 L 58.5358,59.384 L 58.2915,59.499 L 58.0347,59.5824
 L 57.7695,59.633 L 57.5,59.65 z
M -57.635,59.6458 L -57.9029,59.6119 L -58.1644,59.5448 L -58.4154,59.4454 L -58.652,59.3153 L -58.8705,59.1566
 L -59.0673,58.9718 L -59.2394,58.7637 L -59.384,58.5358 L -59.499,58.2915 L -59.5824,58.0347 L -59.633,57.7695
 L -59.65,57.5 L -59.633,57.2305 L -59.5824,56.9653 L -59.499,56.7085 L -59.384,56.4642 L -59.2394,56.2363
 L -59.0673,56.0282 L -58.8705,55.8434 L -58.652,55.6847 L -58.4154,55.5546 L -58.1644,55.4552 L -57.9029,55.3881
 L -57.635,55.3542 L -57.365,55.3542 L -57.0971,55.3881 L -56.8356,55.4552 L -56.5846,55.5546 L -56.348,55.6847
 L -56.1295,55.8434 L -55.9327,56.0282 L -55.7606,56.2363 L -55.6159,56.4642 L -55.501,56.7085 L -55.4175,56.9653
 L -55.3669,57.2305 L -55.35,57.5 L -55.3669,57.7695 L -55.4175,58.0347 L -55.501,58.2915 L -55.6159,58.5358
 L -55.7606,58.7637 L -55.9327,58.9718 L -56.1295,59.1566 L -56.348,59.3153 L -56.5846,59.4454 L -56.8356,59.5448
 L -57.0971,59.6119 L -57.365,59.6458 z
M 52.3917,132.9 L 53.9583,132.601 L 55.4752,132.108 L 56.9183,131.429 L 58.2649,130.574 L 59.4937,129.558
 L 60.5855,128.395 L 61.5229,127.105 L 62.2913,125.707 L 62.8784,124.225 L 63.275,122.68 L 63.4749,121.097
 L 63.4749,119.503 L 63.275,117.92 L 62.8784,116.375 L 62.2913,114.893 L 61.5229,113.495 L 60.5855,112.205
 L 59.4937,111.042 L 58.2649,110.025 L 56.9183,109.171 L 55.4752,108.492 L 53.9583,107.999 L 52.3917,107.7
 L 50.8,107.6 L -50.8,107.6 L -52.3917,107.7 L -53.9583,107.999 L -55.4752,108.492 L -56.9183,109.171
 L -58.2648,110.025 L -59.4937,111.042 L -60.5855,112.205 L -61.5229,113.495 L -62.2913,114.893 L -62.8784,116.375
 L -63.275,117.92 L -63.4749,119.503 L -63.4749,121.097 L -63.275,122.68 L -62.8784,124.225 L -62.2913,125.707
 L -61.5229,127.105 L -60.5855,128.395 L -59.4937,129.558 L -58.2648,130.574 L -56.9183,131.429 L -55.4752,132.108
 L -53.9583,132.601 L -52.3917,132.9 L -50.8,133 L 50.8,133 z
M 50.5305,122.433 L 50.2653,122.382 L 50.0085,122.299 L 49.7642,122.184 L 49.5363,122.039 L 49.3282,121.867
 L 49.1434,121.67 L 48.9847,121.452 L 48.8546,121.215 L 48.7552,120.964 L 48.6881,120.703 L 48.6542,120.435
 L 48.6542,120.165 L 48.6881,119.897 L 48.7552,119.636 L 48.8546,119.385 L 48.9847,119.148 L 49.1434,118.93
 L 49.3282,118.733 L 49.5363,118.561 L 49.7642,118.416 L 50.0085,118.301 L 50.2653,118.218 L 50.5305,118.167
 L 50.8,118.15 L 51.0695,118.167 L 51.3347,118.218 L 51.5915,118.301 L 51.8358,118.416 L 52.0637,118.561
 L 52.2718,118.733 L 52.4566,118.93 L 52.6153,119.148 L 52.7454,119.385 L 52.8448,119.636 L 52.9119,119.897
 L 52.9457,120.165 L 52.9457,120.435 L 52.9119,120.703 L 52.8448,120.964 L 52.7454,121.215 L 52.6153,121.452
 L 52.4566,121.67 L 52.2718,121.867 L 52.0637,122.039 L 51.8358,122.184 L 51.5915,122.299 L 51.3347,122.382
 L 51.0695,122.433 L 50.8,122.45 z
M -51.0694,122.433 L -51.3347,122.382 L -51.5914,122.299 L -51.8358,122.184 L -52.0637,122.039 L -52.2718,121.867
 L -52.4566,121.67 L -52.6153,121.452 L -52.7454,121.215 L -52.8448,120.964 L -52.9119,120.703 L -52.9457,120.435
 L -52.9457,120.165 L -52.9119,119.897 L -52.8448,119.636 L -52.7454,119.385 L -52.6153,119.148 L -52.4566,118.93
 L -52.2718,118.733 L -52.0637,118.561 L -51.8358,118.416 L -51.5914,118.301 L -51.3347,118.218 L -51.0694,118.167
 L -50.8,118.15 L -50.5305,118.167 L -50.2653,118.218 L -50.0085,118.301 L -49.7642,118.416 L -49.5363,118.561
 L -49.3282,118.733 L -49.1434,118.93 L -48.9847,119.148 L -48.8546,119.385 L -48.7552,119.636 L -48.6881,119.897
 L -48.6542,120.165 L -48.6542,120.435 L -48.6881,120.703 L -48.7552,120.964 L -48.8546,121.215 L -48.9847,121.452
 L -49.1434,121.67 L -49.3282,121.867 L -49.5363,122.039 L -49.7642,122.184 L -50.0085,122.299 L -50.2653,122.382
 L -50.5305,122.433 L -50.8,122.45 z
M 52.3917,164.3 L 53.9583,164.001 L 55.4752,163.508 L 56.9183,162.829 L 58.2649,161.974 L 59.4937,160.958
 L 60.5855,159.795 L 61.5229,158.505 L 62.2913,157.107 L 62.8784,155.624 L 63.275,154.08 L 63.4749,152.497
 L 63.4749,150.903 L 63.275,149.32 L 62.8784,147.775 L 62.2913,146.293 L 61.5229,144.895 L 60.5855,143.605
 L 59.4937,142.442 L 58.2649,141.425 L 56.9183,140.571 L 55.4752,139.892 L 53.9583,139.399 L 52.3917,139.1
 L 50.8,139 L -50.8,139 L -52.3917,139.1 L -53.9583,139.399 L -55.4752,139.892 L -56.9183,140.571
 L -58.2648,141.425 L -59.4937,142.442 L -60.5855,143.605 L -61.5229,144.895 L -62.2913,146.293 L -62.8784,147.775
 L -63.275,149.32 L -63.4749,150.903 L -63.4749,152.497 L -63.275,154.08 L -62.8784,155.624 L -62.2913,157.107
 L -61.5229,158.505 L -60.5855,159.795 L -59.4937,160.958 L -58.2648,161.974 L -56.9183,162.829 L -55.4752,163.508
 L -53.9583,164.001 L -52.3917,164.3 L -50.8,164.4 L 50.8,164.4 z
M 50.5305,153.833 L 50.2653,153.782 L 50.0085,153.699 L 49.7642,153.584 L 49.5363,153.439 L 49.3282,153.267
 L 49.1434,153.07 L 48.9847,152.852 L 48.8546,152.615 L 48.7552,152.364 L 48.6881,152.103 L 48.6542,151.835
 L 48.6542,151.565 L 48.6881,151.297 L 48.7552,151.036 L 48.8546,150.785 L 48.9847,150.548 L 49.1434,150.33
 L 49.3282,150.133 L 49.5363,149.961 L 49.7642,149.816 L 50.0085,149.701 L 50.2653,149.618 L 50.5305,149.567
 L 50.8,149.55 L 51.0695,149.567 L 51.3347,149.618 L 51.5915,149.701 L 51.8358,149.816 L 52.0637,149.961
 L 52.2718,150.133 L 52.4566,150.33 L 52.6153,150.548 L 52.7454,150.785 L 52.8448,151.036 L 52.9119,151.297
 L 52.9457,151.565 L 52.9457,151.835 L 52.9119,152.103 L 52.8448,152.364 L 52.7454,152.615 L 52.6153,152.852
 L 52.4566,153.07 L 52.2718,153.267 L 52.0637,153.439 L 51.8358,153.584 L 51.5915,153.699 L 51.3347,153.782
 L 51.0695,153.833 L 50.8,153.85 z
M -51.0694,153.833 L -51.3347,153.782 L -51.5914,153.699 L -51.8358,153.584 L -52.0637,153.439 L -52.2718,153.267
 L -52.4566,153.07 L -52.6153,152.852 L -52.7454,152.615 L -52.8448,152.364 L -52.9119,152.103 L -52.9457,151.835
 L -52.9457,151.565 L -52.9119,151.297 L -52.8448,151.036 L -52.7454,150.785 L -52.6153,150.548 L -52.4566,150.33
 L -52.2718,150.133 L -52.0637,149.961 L -51.8358,149.816 L -51.5914,149.701 L -51.3347,149.618 L -51.0694,149.567
 L -50.8,149.55 L -50.5305,149.567 L -50.2653,149.618 L -50.0085,149.701 L -49.7642,149.816 L -49.5363,149.961
 L -49.3282,150.133 L -49.1434,150.33 L -48.9847,150.548 L -48.8546,150.785 L -48.7552,151.036 L -48.6881,151.297
 L -48.6542,151.565 L -48.6542,151.835 L -48.6881,152.103 L -48.7552,152.364 L -48.8546,152.615 L -48.9847,152.852
 L -49.1434,153.07 L -49.3282,153.267 L -49.5363,153.439 L -49.7642,153.584 L -50.0085,153.699 L -50.2653,153.782
 L -50.5305,153.833 L -50.8,153.85 z
" stroke="black" fill="lightgray" stroke-width="0.5"/></svg>
