  0
SECTION
  2
BLOCKS
  0
ENDSEC
  0
SECTION
  2
ENTITIES
  0
LINE
  8
0
 10
101.6
 20
918
 11
-101.6
 21
918
  0
LINE
  8
0
 10
-101.6
 20
918
 11
-101.6
 21
410
  0
LINE
  8
0
 10
-101.6
 20
410
 11
101.6
 21
410
  0
LINE
  8
0
 10
101.6
 20
410
 11
101.6
 21
918
  0
LINE
  8
0
 10
50.665
 20
458.654
 11
50.3971
 21
458.688
  0
LINE
  8
0
 10
50.3971
 20
458.688
 11
50.1356
 21
458.755
  0
LINE
  8
0
 10
50.1356
 20
458.755
 11
49.8846
 21
458.855
  0
LINE
  8
0
 10
49.8846
 20
458.855
 11
49.648
 21
458.985
  0
LINE
  8
0
 10
49.648
 20
458.985
 11
49.4295
 21
459.143
  0
LINE
  8
0
 10
49.4295
 20
459.143
 11
49.2327
 21
459.328
  0
LINE
  8
0
 10
49.2327
 20
459.328
 11
49.0606
 21
459.536
  0
LINE
  8
0
 10
49.0606
 20
459.536
 11
48.9159
 21
459.764
  0
LINE
  8
0
 10
48.9159
 20
459.764
 11
48.801
 21
460.009
  0
LINE
  8
0
 10
48.801
 20
460.009
 11
48.7175
 21
460.265
  0
LINE
  8
0
 10
48.7175
 20
460.265
 11
48.6669
 21
460.531
  0
LINE
  8
0
 10
48.6669
 20
460.531
 11
48.65
 21
460.8
  0
LINE
  8
0
 10
48.65
 20
460.8
 11
48.6669
 21
461.069
  0
LINE
  8
0
 10
48.6669
 20
461.069
 11
48.7175
 21
461.335
  0
LINE
  8
0
 10
48.7175
 20
461.335
 11
48.801
 21
461.591
  0
LINE
  8
0
 10
48.801
 20
461.591
 11
48.9159
 21
461.836
  0
LINE
  8
0
 10
48.9159
 20
461.836
 11
49.0606
 21
462.064
  0
LINE
  8
0
 10
49.0606
 20
462.064
 11
49.2327
 21
462.272
  0
LINE
  8
0
 10
49.2327
 20
462.272
 11
49.4295
 21
462.457
  0
LINE
  8
0
 10
49.4295
 20
462.457
 11
49.648
 21
462.615
  0
LINE
  8
0
 10
49.648
 20
462.615
 11
49.8846
 21
462.745
  0
LINE
  8
0
 10
49.8846
 20
462.745
 11
50.1356
 21
462.845
  0
LINE
  8
0
 10
50.1356
 20
462.845
 11
50.3971
 21
462.912
  0
LINE
  8
0
 10
50.3971
 20
462.912
 11
50.665
 21
462.946
  0
LINE
  8
0
 10
50.665
 20
462.946
 11
50.935
 21
462.946
  0
LINE
  8
0
 10
50.935
 20
462.946
 11
51.2029
 21
462.912
  0
LINE
  8
0
 10
51.2029
 20
462.912
 11
51.4644
 21
462.845
  0
LINE
  8
0
 10
51.4644
 20
462.845
 11
51.7154
 21
462.745
  0
LINE
  8
0
 10
51.7154
 20
462.745
 11
51.952
 21
462.615
  0
LINE
  8
0
 10
51.952
 20
462.615
 11
52.1705
 21
462.457
  0
LINE
  8
0
 10
52.1705
 20
462.457
 11
52.3673
 21
462.272
  0
LINE
  8
0
 10
52.3673
 20
462.272
 11
52.5394
 21
462.064
  0
LINE
  8
0
 10
52.5394
 20
462.064
 11
52.6841
 21
461.836
  0
LINE
  8
0
 10
52.6841
 20
461.836
 11
52.799
 21
461.591
  0
LINE
  8
0
 10
52.799
 20
461.591
 11
52.8824
 21
461.335
  0
LINE
  8
0
 10
52.8824
 20
461.335
 11
52.933
 21
461.069
  0
LINE
  8
0
 10
52.933
 20
461.069
 11
52.95
 21
460.8
  0
LINE
  8
0
 10
52.95
 20
460.8
 11
52.933
 21
460.531
  0
LINE
  8
0
 10
52.933
 20
460.531
 11
52.8824
 21
460.265
  0
LINE
  8
0
 10
52.8824
 20
460.265
 11
52.799
 21
460.009
  0
LINE
  8
0
 10
52.799
 20
460.009
 11
52.6841
 21
459.764
  0
LINE
  8
0
 10
52.6841
 20
459.764
 11
52.5394
 21
459.536
  0
LINE
  8
0
 10
52.5394
 20
459.536
 11
52.3673
 21
459.328
  0
LINE
  8
0
 10
52.3673
 20
459.328
 11
52.1705
 21
459.143
  0
LINE
  8
0
 10
52.1705
 20
459.143
 11
51.952
 21
458.985
  0
LINE
  8
0
 10
51.952
 20
458.985
 11
51.7154
 21
458.855
  0
LINE
  8
0
 10
51.7154
 20
458.855
 11
51.4644
 21
458.755
  0
LINE
  8
0
 10
51.4644
 20
458.755
 11
51.2029
 21
458.688
  0
LINE
  8
0
 10
51.2029
 20
458.688
 11
50.935
 21
458.654
  0
LINE
  8
0
 10
50.935
 20
458.654
 11
50.665
 21
458.654
  0
LINE
  8
0
 10
-50.935
 20
458.654
 11
-51.2029
 21
458.688
  0
LINE
  8
0
 10
-51.2029
 20
458.688
 11
-51.4644
 21
458.755
  0
LINE
  8
0
 10
-51.4644
 20
458.755
 11
-51.7154
 21
458.855
  0
LINE
  8
0
 10
-51.7154
 20
458.855
 11
-51.952
 21
458.985
  0
LINE
  8
0
 10
-51.952
 20
458.985
 11
-52.1705
 21
459.143
  0
LINE
  8
0
 10
-52.1705
 20
459.143
 11
-52.3673
 21
459.328
  0
LINE
  8
0
 10
-52.3673
 20
459.328
 11
-52.5394
 21
459.536
  0
LINE
  8
0
 10
-52.5394
 20
459.536
 11
-52.6841
 21
459.764
  0
LINE
  8
0
 10
-52.6841
 20
459.764
 11
-52.799
 21
460.009
  0
LINE
  8
0
 10
-52.799
 20
460.009
 11
-52.8824
 21
460.265
  0
LINE
  8
0
 10
-52.8824
 20
460.265
 11
-52.933
 21
460.531
  0
LINE
  8
0
 10
-52.933
 20
460.531
 11
-52.95
 21
460.8
  0
LINE
  8
0
 10
-52.95
 20
460.8
 11
-52.933
 21
461.069
  0
LINE
  8
0
 10
-52.933
 20
461.069
 11
-52.8824
 21
461.335
  0
LINE
  8
0
 10
-52.8824
 20
461.335
 11
-52.799
 21
461.591
  0
LINE
  8
0
 10
-52.799
 20
461.591
 11
-52.6841
 21
461.836
  0
LINE
  8
0
 10
-52.6841
 20
461.836
 11
-52.5394
 21
462.064
  0
LINE
  8
0
 10
-52.5394
 20
462.064
 11
-52.3673
 21
462.272
  0
LINE
  8
0
 10
-52.3673
 20
462.272
 11
-52.1705
 21
462.457
  0
LINE
  8
0
 10
-52.1705
 20
462.457
 11
-51.952
 21
462.615
  0
LINE
  8
0
 10
-51.952
 20
462.615
 11
-51.7154
 21
462.745
  0
LINE
  8
0
 10
-51.7154
 20
462.745
 11
-51.4644
 21
462.845
  0
LINE
  8
0
 10
-51.4644
 20
462.845
 11
-51.2029
 21
462.912
  0
LINE
  8
0
 10
-51.2029
 20
462.912
 11
-50.935
 21
462.946
  0
LINE
  8
0
 10
-50.935
 20
462.946
 11
-50.665
 21
462.946
  0
LINE
  8
0
 10
-50.665
 20
462.946
 11
-50.3971
 21
462.912
  0
LINE
  8
0
 10
-50.3971
 20
462.912
 11
-50.1356
 21
462.845
  0
LINE
  8
0
 10
-50.1356
 20
462.845
 11
-49.8846
 21
462.745
  0
LINE
  8
0
 10
-49.8846
 20
462.745
 11
-49.648
 21
462.615
  0
LINE
  8
0
 10
-49.648
 20
462.615
 11
-49.4295
 21
462.457
  0
LINE
  8
0
 10
-49.4295
 20
462.457
 11
-49.2327
 21
462.272
  0
LINE
  8
0
 10
-49.2327
 20
462.272
 11
-49.0606
 21
462.064
  0
LINE
  8
0
 10
-49.0606
 20
462.064
 11
-48.9159
 21
461.836
  0
LINE
  8
0
 10
-48.9159
 20
461.836
 11
-48.801
 21
461.591
  0
LINE
  8
0
 10
-48.801
 20
461.591
 11
-48.7175
 21
461.335
  0
LINE
  8
0
 10
-48.7175
 20
461.335
 11
-48.6669
 21
461.069
  0
LINE
  8
0
 10
-48.6669
 20
461.069
 11
-48.65
 21
460.8
  0
LINE
  8
0
 10
-48.65
 20
460.8
 11
-48.6669
 21
460.531
  0
LINE
  8
0
 10
-48.6669
 20
460.531
 11
-48.7175
 21
460.265
  0
LINE
  8
0
 10
-48.7175
 20
460.265
 11
-48.801
 21
460.009
  0
LINE
  8
0
 10
-48.801
 20
460.009
 11
-48.9159
 21
459.764
  0
LINE
  8
0
 10
-48.9159
 20
459.764
 11
-49.0606
 21
459.536
  0
LINE
  8
0
 10
-49.0606
 20
459.536
 11
-49.2327
 21
459.328
  0
LINE
  8
0
 10
-49.2327
 20
459.328
 11
-49.4295
 21
459.143
  0
LINE
  8
0
 10
-49.4295
 20
459.143
 11
-49.648
 21
458.985
  0
LINE
  8
0
 10
-49.648
 20
458.985
 11
-49.8846
 21
458.855
  0
LINE
  8
0
 10
-49.8846
 20
458.855
 11
-50.1356
 21
458.755
  0
LINE
  8
0
 10
-50.1356
 20
458.755
 11
-50.3971
 21
458.688
  0
LINE
  8
0
 10
-50.3971
 20
458.688
 11
-50.665
 21
458.654
  0
LINE
  8
0
 10
-50.665
 20
458.654
 11
-50.935
 21
458.654
  0
LINE
  8
0
 10
101.6
 20
408
 11
-101.6
 21
408
  0
LINE
  8
0
 10
-101.6
 20
408
 11
-101.6
 21
-100
  0
LINE
  8
0
 10
-101.6
 20
-100
 11
101.6
 21
-100
  0
LINE
  8
0
 10
101.6
 20
-100
 11
101.6
 21
408
  0
LINE
  8
0
 10
50.665
 20
355.054
 11
50.3971
 21
355.088
  0
LINE
  8
0
 10
50.3971
 20
355.088
 11
50.1356
 21
355.155
  0
LINE
  8
0
 10
50.1356
 20
355.155
 11
49.8846
 21
355.255
  0
LINE
  8
0
 10
49.8846
 20
355.255
 11
49.648
 21
355.385
  0
LINE
  8
0
 10
49.648
 20
355.385
 11
49.4295
 21
355.543
  0
LINE
  8
0
 10
49.4295
 20
355.543
 11
49.2327
 21
355.728
  0
LINE
  8
0
 10
49.2327
 20
355.728
 11
49.0606
 21
355.936
  0
LINE
  8
0
 10
49.0606
 20
355.936
 11
48.9159
 21
356.164
  0
LINE
  8
0
 10
48.9159
 20
356.164
 11
48.801
 21
356.409
  0
LINE
  8
0
 10
48.801
 20
356.409
 11
48.7175
 21
356.665
  0
LINE
  8
0
 10
48.7175
 20
356.665
 11
48.6669
 21
356.931
  0
LINE
  8
0
 10
48.6669
 20
356.931
 11
48.65
 21
357.2
  0
LINE
  8
0
 10
48.65
 20
357.2
 11
48.6669
 21
357.469
  0
LINE
  8
0
 10
48.6669
 20
357.469
 11
48.7175
 21
357.735
  0
LINE
  8
0
 10
48.7175
 20
357.735
 11
48.801
 21
357.991
  0
LINE
  8
0
 10
48.801
 20
357.991
 11
48.9159
 21
358.236
  0
LINE
  8
0
 10
48.9159
 20
358.236
 11
49.0606
 21
358.464
  0
LINE
  8
0
 10
49.0606
 20
358.464
 11
49.2327
 21
358.672
  0
LINE
  8
0
 10
49.2327
 20
358.672
 11
49.4295
 21
358.857
  0
LINE
  8
0
 10
49.4295
 20
358.857
 11
49.648
 21
359.015
  0
LINE
  8
0
 10
49.648
 20
359.015
 11
49.8846
 21
359.145
  0
LINE
  8
0
 10
49.8846
 20
359.145
 11
50.1356
 21
359.245
  0
LINE
  8
0
 10
50.1356
 20
359.245
 11
50.3971
 21
359.312
  0
LINE
  8
0
 10
50.3971
 20
359.312
 11
50.665
 21
359.346
  0
LINE
  8
0
 10
50.665
 20
359.346
 11
50.935
 21
359.346
  0
LINE
  8
0
 10
50.935
 20
359.346
 11
51.2029
 21
359.312
  0
LINE
  8
0
 10
51.2029
 20
359.312
 11
51.4644
 21
359.245
  0
LINE
  8
0
 10
51.4644
 20
359.245
 11
51.7154
 21
359.145
  0
LINE
  8
0
 10
51.7154
 20
359.145
 11
51.952
 21
359.015
  0
LINE
  8
0
 10
51.952
 20
359.015
 11
52.1705
 21
358.857
  0
LINE
  8
0
 10
52.1705
 20
358.857
 11
52.3673
 21
358.672
  0
LINE
  8
0
 10
52.3673
 20
358.672
 11
52.5394
 21
358.464
  0
LINE
  8
0
 10
52.5394
 20
358.464
 11
52.6841
 21
358.236
  0
LINE
  8
0
 10
52.6841
 20
358.236
 11
52.799
 21
357.991
  0
LINE
  8
0
 10
52.799
 20
357.991
 11
52.8824
 21
357.735
  0
LINE
  8
0
 10
52.8824
 20
357.735
 11
52.933
 21
357.469
  0
LINE
  8
0
 10
52.933
 20
357.469
 11
52.95
 21
357.2
  0
LINE
  8
0
 10
52.95
 20
357.2
 11
52.933
 21
356.931
  0
LINE
  8
0
 10
52.933
 20
356.931
 11
52.8824
 21
356.665
  0
LINE
  8
0
 10
52.8824
 20
356.665
 11
52.799
 21
356.409
  0
LINE
  8
0
 10
52.799
 20
356.409
 11
52.6841
 21
356.164
  0
LINE
  8
0
 10
52.6841
 20
356.164
 11
52.5394
 21
355.936
  0
LINE
  8
0
 10
52.5394
 20
355.936
 11
52.3673
 21
355.728
  0
LINE
  8
0
 10
52.3673
 20
355.728
 11
52.1705
 21
355.543
  0
LINE
  8
0
 10
52.1705
 20
355.543
 11
51.952
 21
355.385
  0
LINE
  8
0
 10
51.952
 20
355.385
 11
51.7154
 21
355.255
  0
LINE
  8
0
 10
51.7154
 20
355.255
 11
51.4644
 21
355.155
  0
LINE
  8
0
 10
51.4644
 20
355.155
 11
51.2029
 21
355.088
  0
LINE
  8
0
 10
51.2029
 20
355.088
 11
50.935
 21
355.054
  0
LINE
  8
0
 10
50.935
 20
355.054
 11
50.665
 21
355.054
  0
LINE
  8
0
 10
-50.935
 20
355.054
 11
-51.2029
 21
355.088
  0
LINE
  8
0
 10
-51.2029
 20
355.088
 11
-51.4644
 21
355.155
  0
LINE
  8
0
 10
-51.4644
 20
355.155
 11
-51.7154
 21
355.255
  0
LINE
  8
0
 10
-51.7154
 20
355.255
 11
-51.952
 21
355.385
  0
LINE
  8
0
 10
-51.952
 20
355.385
 11
-52.1705
 21
355.543
  0
LINE
  8
0
 10
-52.1705
 20
355.543
 11
-52.3673
 21
355.728
  0
LINE
  8
0
 10
-52.3673
 20
355.728
 11
-52.5394
 21
355.936
  0
LINE
  8
0
 10
-52.5394
 20
355.936
 11
-52.6841
 21
356.164
  0
LINE
  8
0
 10
-52.6841
 20
356.164
 11
-52.799
 21
356.409
  0
LINE
  8
0
 10
-52.799
 20
356.409
 11
-52.8824
 21
356.665
  0
LINE
  8
0
 10
-52.8824
 20
356.665
 11
-52.933
 21
356.931
  0
LINE
  8
0
 10
-52.933
 20
356.931
 11
-52.95
 21
357.2
  0
LINE
  8
0
 10
-52.95
 20
357.2
 11
-52.933
 21
357.469
  0
LINE
  8
0
 10
-52.933
 20
357.469
 11
-52.8824
 21
357.735
  0
LINE
  8
0
 10
-52.8824
 20
357.735
 11
-52.799
 21
357.991
  0
LINE
  8
0
 10
-52.799
 20
357.991
 11
-52.6841
 21
358.236
  0
LINE
  8
0
 10
-52.6841
 20
358.236
 11
-52.5394
 21
358.464
  0
LINE
  8
0
 10
-52.5394
 20
358.464
 11
-52.3673
 21
358.672
  0
LINE
  8
0
 10
-52.3673
 20
358.672
 11
-52.1705
 21
358.857
  0
LINE
  8
0
 10
-52.1705
 20
358.857
 11
-51.952
 21
359.015
  0
LINE
  8
0
 10
-51.952
 20
359.015
 11
-51.7154
 21
359.145
  0
LINE
  8
0
 10
-51.7154
 20
359.145
 11
-51.4644
 21
359.245
  0
LINE
  8
0
 10
-51.4644
 20
359.245
 11
-51.2029
 21
359.312
  0
LINE
  8
0
 10
-51.2029
 20
359.312
 11
-50.935
 21
359.346
  0
LINE
  8
0
 10
-50.935
 20
359.346
 11
-50.665
 21
359.346
  0
LINE
  8
0
 10
-50.665
 20
359.346
 11
-50.3971
 21
359.312
  0
LINE
  8
0
 10
-50.3971
 20
359.312
 11
-50.1356
 21
359.245
  0
LINE
  8
0
 10
-50.1356
 20
359.245
 11
-49.8846
 21
359.145
  0
LINE
  8
0
 10
-49.8846
 20
359.145
 11
-49.648
 21
359.015
  0
LINE
  8
0
 10
-49.648
 20
359.015
 11
-49.4295
 21
358.857
  0
LINE
  8
0
 10
-49.4295
 20
358.857
 11
-49.2327
 21
358.672
  0
LINE
  8
0
 10
-49.2327
 20
358.672
 11
-49.0606
 21
358.464
  0
LINE
  8
0
 10
-49.0606
 20
358.464
 11
-48.9159
 21
358.236
  0
LINE
  8
0
 10
-48.9159
 20
358.236
 11
-48.801
 21
357.991
  0
LINE
  8
0
 10
-48.801
 20
357.991
 11
-48.7175
 21
357.735
  0
LINE
  8
0
 10
-48.7175
 20
357.735
 11
-48.6669
 21
357.469
  0
LINE
  8
0
 10
-48.6669
 20
357.469
 11
-48.65
 21
357.2
  0
LINE
  8
0
 10
-48.65
 20
357.2
 11
-48.6669
 21
356.931
  0
LINE
  8
0
 10
-48.6669
 20
356.931
 11
-48.7175
 21
356.665
  0
LINE
  8
0
 10
-48.7175
 20
356.665
 11
-48.801
 21
356.409
  0
LINE
  8
0
 10
-48.801
 20
356.409
 11
-48.9159
 21
356.164
  0
LINE
  8
0
 10
-48.9159
 20
356.164
 11
-49.0606
 21
355.936
  0
LINE
  8
0
 10
-49.0606
 20
355.936
 11
-49.2327
 21
355.728
  0
LINE
  8
0
 10
-49.2327
 20
355.728
 11
-49.4295
 21
355.543
  0
LINE
  8
0
 10
-49.4295
 20
355.543
 11
-49.648
 21
355.385
  0
LINE
  8
0
 10
-49.648
 20
355.385
 11
-49.8846
 21
355.255
  0
LINE
  8
0
 10
-49.8846
 20
355.255
 11
-50.1356
 21
355.155
  0
LINE
  8
0
 10
-50.1356
 20
355.155
 11
-50.3971
 21
355.088
  0
LINE
  8
0
 10
-50.3971
 20
355.088
 11
-50.665
 21
355.054
  0
LINE
  8
0
 10
-50.665
 20
355.054
 11
-50.935
 21
355.054
  0
LINE
  8
0
 10
-57.7695
 20
55.3669
 11
-58.0347
 21
55.4175
  0
LINE
  8
0
 10
-58.0347
 20
55.4175
 11
-58.2915
 21
55.501
  0
LINE
  8
0
 10
-58.2915
 20
55.501
 11
-58.5358
 21
55.6159
  0
LINE
  8
0
 10
-58.5358
 20
55.6159
 11
-58.7637
 21
55.7606
  0
LINE
  8
0
 10
-58.7637
 20
55.7606
 11
-58.9718
 21
55.9327
  0
LINE
  8
0
 10
-58.9718
 20
55.9327
 11
-59.1566
 21
56.1295
  0
LINE
  8
0
 10
-59.1566
 20
56.1295
 11
-59.3153
 21
56.348
  0
LINE
  8
0
 10
-59.3153
 20
56.348
 11
-59.4454
 21
56.5846
  0
LINE
  8
0
 10
-59.4454
 20
56.5846
 11
-59.5448
 21
56.8356
  0
LINE
  8
0
 10
-59.5448
 20
56.8356
 11
-59.6119
 21
57.0971
  0
LINE
  8
0
 10
-59.6119
 20
57.0971
 11
-59.6458
 21
57.365
  0
LINE
  8
0
 10
-59.6458
 20
57.365
 11
-59.6458
 21
57.635
  0
LINE
  8
0
 10
-59.6458
 20
57.635
 11
-59.6119
 21
57.9029
  0
LINE
  8
0
 10
-59.6119
 20
57.9029
 11
-59.5448
 21
58.1644
  0
LINE
  8
0
 10
-59.5448
 20
58.1644
 11
-59.4454
 21
58.4154
  0
LINE
  8
0
 10
-59.4454
 20
58.4154
 11
-59.3153
 21
58.652
  0
LINE
  8
0
 10
-59.3153
 20
58.652
 11
-59.1566
 21
58.8705
  0
LINE
  8
0
 10
-59.1566
 20
58.8705
 11
-58.9718
 21
59.0673
  0
LINE
  8
0
 10
-58.9718
 20
59.0673
 11
-58.7637
 21
59.2394
  0
LINE
  8
0
 10
-58.7637
 20
59.2394
 11
-58.5358
 21
59.384
  0
LINE
  8
0
 10
-58.5358
 20
59.384
 11
-58.2915
 21
59.499
  0
LINE
  8
0
 10
-58.2915
 20
59.499
 11
-58.0347
 21
59.5824
  0
LINE
  8
0
 10
-58.0347
 20
59.5824
 11
-57.7695
 21
59.633
  0
LINE
  8
0
 10
-57.7695
 20
59.633
 11
-57.5
 21
59.65
  0
LINE
  8
0
 10
-57.5
 20
59.65
 11
-57.2305
 21
59.633
  0
LINE
  8
0
 10
-57.2305
 20
59.633
 11
-56.9653
 21
59.5824
  0
LINE
  8
0
 10
-56.9653
 20
59.5824
 11
-56.7085
 21
59.499
  0
LINE
  8
0
 10
-56.7085
 20
59.499
 11
-56.4642
 21
59.384
  0
LINE
  8
0
 10
-56.4642
 20
59.384
 11
-56.2363
 21
59.2394
  0
LINE
  8
0
 10
-56.2363
 20
59.2394
 11
-56.0282
 21
59.0673
  0
LINE
  8
0
 10
-56.0282
 20
59.0673
 11
-55.8434
 21
58.8705
  0
LINE
  8
0
 10
-55.8434
 20
58.8705
 11
-55.6847
 21
58.652
  0
LINE
  8
0
 10
-55.6847
 20
58.652
 11
-55.5546
 21
58.4154
  0
LINE
  8
0
 10
-55.5546
 20
58.4154
 11
-55.4552
 21
58.1644
  0
LINE
  8
0
 10
-55.4552
 20
58.1644
 11
-55.3881
 21
57.9029
  0
LINE
  8
0
 10
-55.3881
 20
57.9029
 11
-55.3542
 21
57.635
  0
LINE
  8
0
 10
-55.3542
 20
57.635
 11
-55.3542
 21
57.365
  0
LINE
  8
0
 10
-55.3542
 20
57.365
 11
-55.3881
 21
57.0971
  0
LINE
  8
0
 10
-55.3881
 20
57.0971
 11
-55.4552
 21
56.8356
  0
LINE
  8
0
 10
-55.4552
 20
56.8356
 11
-55.5546
 21
56.5846
  0
LINE
  8
0
 10
-55.5546
 20
56.5846
 11
-55.6847
 21
56.348
  0
LINE
  8
0
 10
-55.6847
 20
56.348
 11
-55.8434
 21
56.1295
  0
LINE
  8
0
 10
-55.8434
 20
56.1295
 11
-56.0282
 21
55.9327
  0
LINE
  8
0
 10
-56.0282
 20
55.9327
 11
-56.2363
 21
55.7606
  0
LINE
  8
0
 10
-56.2363
 20
55.7606
 11
-56.4642
 21
55.6159
  0
LINE
  8
0
 10
-56.4642
 20
55.6159
 11
-56.7085
 21
55.501
  0
LINE
  8
0
 10
-56.7085
 20
55.501
 11
-56.9653
 21
55.4175
  0
LINE
  8
0
 10
-56.9653
 20
55.4175
 11
-57.2305
 21
55.3669
  0
LINE
  8
0
 10
-57.2305
 20
55.3669
 11
-57.5
 21
55.35
  0
LINE
  8
0
 10
-57.5
 20
55.35
 11
-57.7695
 21
55.3669
  0
LINE
  8
0
 10
57.365
 20
55.3542
 11
57.0971
 21
55.3881
  0
LINE
  8
0
 10
57.0971
 20
55.3881
 11
56.8356
 21
55.4552
  0
LINE
  8
0
 10
56.8356
 20
55.4552
 11
56.5846
 21
55.5546
  0
LINE
  8
0
 10
56.5846
 20
55.5546
 11
56.348
 21
55.6847
  0
LINE
  8
0
 10
56.348
 20
55.6847
 11
56.1295
 21
55.8434
  0
LINE
  8
0
 10
56.1295
 20
55.8434
 11
55.9327
 21
56.0282
  0
LINE
  8
0
 10
55.9327
 20
56.0282
 11
55.7606
 21
56.2363
  0
LINE
  8
0
 10
55.7606
 20
56.2363
 11
55.6159
 21
56.4642
  0
LINE
  8
0
 10
55.6159
 20
56.4642
 11
55.501
 21
56.7085
  0
LINE
  8
0
 10
55.501
 20
56.7085
 11
55.4175
 21
56.9653
  0
LINE
  8
0
 10
55.4175
 20
56.9653
 11
55.3669
 21
57.2305
  0
LINE
  8
0
 10
55.3669
 20
57.2305
 11
55.35
 21
57.5
  0
LINE
  8
0
 10
55.35
 20
57.5
 11
55.3669
 21
57.7695
  0
LINE
  8
0
 10
55.3669
 20
57.7695
 11
55.4175
 21
58.0347
  0
LINE
  8
0
 10
55.4175
 20
58.0347
 11
55.501
 21
58.2915
  0
LINE
  8
0
 10
55.501
 20
58.2915
 11
55.6159
 21
58.5358
  0
LINE
  8
0
 10
55.6159
 20
58.5358
 11
55.7606
 21
58.7637
  0
LINE
  8
0
 10
55.7606
 20
58.7637
 11
55.9327
 21
58.9718
  0
LINE
  8
0
 10
55.9327
 20
58.9718
 11
56.1295
 21
59.1566
  0
LINE
  8
0
 10
56.1295
 20
59.1566
 11
56.348
 21
59.3153
  0
LINE
  8
0
 10
56.348
 20
59.3153
 11
56.5846
 21
59.4454
  0
LINE
  8
0
 10
56.5846
 20
59.4454
 11
56.8356
 21
59.5448
  0
LINE
  8
0
 10
56.8356
 20
59.5448
 11
57.0971
 21
59.6119
  0
LINE
  8
0
 10
57.0971
 20
59.6119
 11
57.365
 21
59.6458
  0
LINE
  8
0
 10
57.365
 20
59.6458
 11
57.635
 21
59.6458
  0
LINE
  8
0
 10
57.635
 20
59.6458
 11
57.9029
 21
59.6119
  0
LINE
  8
0
 10
57.9029
 20
59.6119
 11
58.1644
 21
59.5448
  0
LINE
  8
0
 10
58.1644
 20
59.5448
 11
58.4154
 21
59.4454
  0
LINE
  8
0
 10
58.4154
 20
59.4454
 11
58.652
 21
59.3153
  0
LINE
  8
0
 10
58.652
 20
59.3153
 11
58.8705
 21
59.1566
  0
LINE
  8
0
 10
58.8705
 20
59.1566
 11
59.0673
 21
58.9718
  0
LINE
  8
0
 10
59.0673
 20
58.9718
 11
59.2394
 21
58.7637
  0
LINE
  8
0
 10
59.2394
 20
58.7637
 11
59.384
 21
58.5358
  0
LINE
  8
0
 10
59.384
 20
58.5358
 11
59.499
 21
58.2915
  0
LINE
  8
0
 10
59.499
 20
58.2915
 11
59.5824
 21
58.0347
  0
LINE
  8
0
 10
59.5824
 20
58.0347
 11
59.633
 21
57.7695
  0
LINE
  8
0
 10
59.633
 20
57.7695
 11
59.65
 21
57.5
  0
LINE
  8
0
 10
59.65
 20
57.5
 11
59.633
 21
57.2305
  0
LINE
  8
0
 10
59.633
 20
57.2305
 11
59.5824
 21
56.9653
  0
LINE
  8
0
 10
59.5824
 20
56.9653
 11
59.499
 21
56.7085
  0
LINE
  8
0
 10
59.499
 20
56.7085
 11
59.384
 21
56.4642
  0
LINE
  8
0
 10
59.384
 20
56.4642
 11
59.2394
 21
56.2363
  0
LINE
  8
0
 10
59.2394
 20
56.2363
 11
59.0673
 21
56.0282
  0
LINE
  8
0
 10
59.0673
 20
56.0282
 11
58.8705
 21
55.8434
  0
LINE
  8
0
 10
58.8705
 20
55.8434
 11
58.652
 21
55.6847
  0
LINE
  8
0
 10
58.652
 20
55.6847
 11
58.4154
 21
55.5546
  0
LINE
  8
0
 10
58.4154
 20
55.5546
 11
58.1644
 21
55.4552
  0
LINE
  8
0
 10
58.1644
 20
55.4552
 11
57.9029
 21
55.3881
  0
LINE
  8
0
 10
57.9029
 20
55.3881
 11
57.635
 21
55.3542
  0
LINE
  8
0
 10
57.635
 20
55.3542
 11
57.365
 21
55.3542
  0
LINE
  8
0
 10
-3.51627
 20
-55.8895
 11
-10.4933
 21
-55.0081
  0
LINE
  8
0
 10
-10.4933
 20
-55.0081
 11
-17.3049
 21
-53.2592
  0
LINE
  8
0
 10
-17.3049
 20
-53.2592
 11
-23.8436
 21
-50.6703
  0
LINE
  8
0
 10
-23.8436
 20
-50.6703
 11
-30.0063
 21
-47.2823
  0
LINE
  8
0
 10
-30.0063
 20
-47.2823
 11
-35.6957
 21
-43.1487
  0
LINE
  8
0
 10
-35.6957
 20
-43.1487
 11
-40.8222
 21
-38.3346
  0
LINE
  8
0
 10
-40.8222
 20
-38.3346
 11
-45.3049
 21
-32.916
  0
LINE
  8
0
 10
-45.3049
 20
-32.916
 11
-49.0732
 21
-26.9782
  0
LINE
  8
0
 10
-49.0732
 20
-26.9782
 11
-52.0675
 21
-20.615
  0
LINE
  8
0
 10
-52.0675
 20
-20.615
 11
-54.2406
 21
-13.9266
  0
LINE
  8
0
 10
-54.2406
 20
-13.9266
 11
-55.5584
 21
-7.01865
  0
LINE
  8
0
 10
-55.5584
 20
-7.01865
 11
-56
 21
0
  0
LINE
  8
0
 10
-56
 20
0
 11
-55.5584
 21
7.01865
  0
LINE
  8
0
 10
-55.5584
 20
7.01865
 11
-54.2406
 21
13.9266
  0
LINE
  8
0
 10
-54.2406
 20
13.9266
 11
-52.0675
 21
20.615
  0
LINE
  8
0
 10
-52.0675
 20
20.615
 11
-49.0732
 21
26.9782
  0
LINE
  8
0
 10
-49.0732
 20
26.9782
 11
-45.3049
 21
32.916
  0
LINE
  8
0
 10
-45.3049
 20
32.916
 11
-40.8222
 21
38.3346
  0
LINE
  8
0
 10
-40.8222
 20
38.3346
 11
-35.6957
 21
43.1487
  0
LINE
  8
0
 10
-35.6957
 20
43.1487
 11
-30.0063
 21
47.2823
  0
LINE
  8
0
 10
-30.0063
 20
47.2823
 11
-23.8436
 21
50.6703
  0
LINE
  8
0
 10
-23.8436
 20
50.6703
 11
-17.3049
 21
53.2592
  0
LINE
  8
0
 10
-17.3049
 20
53.2592
 11
-10.4933
 21
55.0081
  0
LINE
  8
0
 10
-10.4933
 20
55.0081
 11
-3.51627
 21
55.8895
  0
LINE
  8
0
 10
-3.51627
 20
55.8895
 11
3.51627
 21
55.8895
  0
LINE
  8
0
 10
3.51627
 20
55.8895
 11
10.4933
 21
55.0081
  0
LINE
  8
0
 10
10.4933
 20
55.0081
 11
17.3049
 21
53.2592
  0
LINE
  8
0
 10
17.3049
 20
53.2592
 11
23.8436
 21
50.6703
  0
LINE
  8
0
 10
23.8436
 20
50.6703
 11
30.0063
 21
47.2823
  0
LINE
  8
0
 10
30.0063
 20
47.2823
 11
35.6957
 21
43.1487
  0
LINE
  8
0
 10
35.6957
 20
43.1487
 11
40.8222
 21
38.3346
  0
LINE
  8
0
 10
40.8222
 20
38.3346
 11
45.3049
 21
32.916
  0
LINE
  8
0
 10
45.3049
 20
32.916
 11
49.0732
 21
26.9782
  0
LINE
  8
0
 10
49.0732
 20
26.9782
 11
52.0675
 21
20.615
  0
LINE
  8
0
 10
52.0675
 20
20.615
 11
54.2406
 21
13.9266
  0
LINE
  8
0
 10
54.2406
 20
13.9266
 11
55.5584
 21
7.01865
  0
LINE
  8
0
 10
55.5584
 20
7.01865
 11
56
 21
0
  0
LINE
  8
0
 10
56
 20
0
 11
55.5584
 21
-7.01865
  0
LINE
  8
0
 10
55.5584
 20
-7.01865
 11
54.2406
 21
-13.9266
  0
LINE
  8
0
 10
54.2406
 20
-13.9266
 11
52.0675
 21
-20.615
  0
LINE
  8
0
 10
52.0675
 20
-20.615
 11
49.0732
 21
-26.9782
  0
LINE
  8
0
 10
49.0732
 20
-26.9782
 11
45.3049
 21
-32.916
  0
LINE
  8
0
 10
45.3049
 20
-32.916
 11
40.8222
 21
-38.3346
  0
LINE
  8
0
 10
40.8222
 20
-38.3346
 11
35.6957
 21
-43.1487
  0
LINE
  8
0
 10
35.6957
 20
-43.1487
 11
30.0063
 21
-47.2823
  0
LINE
  8
0
 10
30.0063
 20
-47.2823
 11
23.8436
 21
-50.6703
  0
LINE
  8
0
 10
23.8436
 20
-50.6703
 11
17.3049
 21
-53.2592
  0
LINE
  8
0
 10
17.3049
 20
-53.2592
 11
10.4933
 21
-55.0081
  0
LINE
  8
0
 10
10.4933
 20
-55.0081
 11
3.51627
 21
-55.8895
  0
LINE
  8
0
 10
3.51627
 20
-55.8895
 11
-3.51627
 21
-55.8895
  0
LINE
  8
0
 10
57.2305
 20
-59.633
 11
56.9653
 21
-59.5824
  0
LINE
  8
0
 10
56.9653
 20
-59.5824
 11
56.7085
 21
-59.499
  0
LINE
  8
0
 10
56.7085
 20
-59.499
 11
56.4642
 21
-59.384
  0
LINE
  8
0
 10
56.4642
 20
-59.384
 11
56.2363
 21
-59.2394
  0
LINE
  8
0
 10
56.2363
 20
-59.2394
 11
56.0282
 21
-59.0673
  0
LINE
  8
0
 10
56.0282
 20
-59.0673
 11
55.8434
 21
-58.8705
  0
LINE
  8
0
 10
55.8434
 20
-58.8705
 11
55.6847
 21
-58.652
  0
LINE
  8
0
 10
55.6847
 20
-58.652
 11
55.5546
 21
-58.4154
  0
LINE
  8
0
 10
55.5546
 20
-58.4154
 11
55.4552
 21
-58.1644
  0
LINE
  8
0
 10
55.4552
 20
-58.1644
 11
55.3881
 21
-57.9029
  0
LINE
  8
0
 10
55.3881
 20
-57.9029
 11
55.3542
 21
-57.635
  0
LINE
  8
0
 10
55.3542
 20
-57.635
 11
55.3542
 21
-57.365
  0
LINE
  8
0
 10
55.3542
 20
-57.365
 11
55.3881
 21
-57.0971
  0
LINE
  8
0
 10
55.3881
 20
-57.0971
 11
55.4552
 21
-56.8356
  0
LINE
  8
0
 10
55.4552
 20
-56.8356
 11
55.5546
 21
-56.5846
  0
LINE
  8
0
 10
55.5546
 20
-56.5846
 11
55.6847
 21
-56.348
  0
LINE
  8
0
 10
55.6847
 20
-56.348
 11
55.8434
 21
-56.1295
  0
LINE
  8
0
 10
55.8434
 20
-56.1295
 11
56.0282
 21
-55.9327
  0
LINE
  8
0
 10
56.0282
 20
-55.9327
 11
56.2363
 21
-55.7606
  0
LINE
  8
0
 10
56.2363
 20
-55.7606
 11
56.4642
 21
-55.6159
  0
LINE
  8
0
 10
56.4642
 20
-55.6159
 11
56.7085
 21
-55.501
  0
LINE
  8
0
 10
56.7085
 20
-55.501
 11
56.9653
 21
-55.4175
  0
LINE
  8
0
 10
56.9653
 20
-55.4175
 11
57.2305
 21
-55.3669
  0
LINE
  8
0
 10
57.2305
 20
-55.3669
 11
57.5
 21
-55.35
  0
LINE
  8
0
 10
57.5
 20
-55.35
 11
57.7695
 21
-55.3669
  0
LINE
  8
0
 10
57.7695
 20
-55.3669
 11
58.0347
 21
-55.4175
  0
LINE
  8
0
 10
58.0347
 20
-55.4175
 11
58.2915
 21
-55.501
  0
LINE
  8
0
 10
58.2915
 20
-55.501
 11
58.5358
 21
-55.6159
  0
LINE
  8
0
 10
58.5358
 20
-55.6159
 11
58.7637
 21
-55.7606
  0
LINE
  8
0
 10
58.7637
 20
-55.7606
 11
58.9718
 21
-55.9327
  0
LINE
  8
0
 10
58.9718
 20
-55.9327
 11
59.1566
 21
-56.1295
  0
LINE
  8
0
 10
59.1566
 20
-56.1295
 11
59.3153
 21
-56.348
  0
LINE
  8
0
 10
59.3153
 20
-56.348
 11
59.4454
 21
-56.5846
  0
LINE
  8
0
 10
59.4454
 20
-56.5846
 11
59.5448
 21
-56.8356
  0
LINE
  8
0
 10
59.5448
 20
-56.8356
 11
59.6119
 21
-57.0971
  0
LINE
  8
0
 10
59.6119
 20
-57.0971
 11
59.6458
 21
-57.365
  0
LINE
  8
0
 10
59.6458
 20
-57.365
 11
59.6458
 21
-57.635
  0
LINE
  8
0
 10
59.6458
 20
-57.635
 11
59.6119
 21
-57.9029
  0
LINE
  8
0
 10
59.6119
 20
-57.9029
 11
59.5448
 21
-58.1644
  0
LINE
  8
0
 10
59.5448
 20
-58.1644
 11
59.4454
 21
-58.4154
  0
LINE
  8
0
 10
59.4454
 20
-58.4154
 11
59.3153
 21
-58.652
  0
LINE
  8
0
 10
59.3153
 20
-58.652
 11
59.1566
 21
-58.8705
  0
LINE
  8
0
 10
59.1566
 20
-58.8705
 11
58.9718
 21
-59.0673
  0
LINE
  8
0
 10
58.9718
 20
-59.0673
 11
58.7637
 21
-59.2394
  0
LINE
  8
0
 10
58.7637
 20
-59.2394
 11
58.5358
 21
-59.384
  0
LINE
  8
0
 10
58.5358
 20
-59.384
 11
58.2915
 21
-59.499
  0
LINE
  8
0
 10
58.2915
 20
-59.499
 11
58.0347
 21
-59.5824
  0
LINE
  8
0
 10
58.0347
 20
-59.5824
 11
57.7695
 21
-59.633
  0
LINE
  8
0
 10
57.7695
 20
-59.633
 11
57.5
 21
-59.65
  0
LINE
  8
0
 10
57.5
 20
-59.65
 11
57.2305
 21
-59.633
  0
LINE
  8
0
 10
-57.635
 20
-59.6458
 11
-57.9029
 21
-59.6119
  0
LINE
  8
0
 10
-57.9029
 20
-59.6119
 11
-58.1644
 21
-59.5448
  0
LINE
  8
0
 10
-58.1644
 20
-59.5448
 11
-58.4154
 21
-59.4454
  0
LINE
  8
0
 10
-58.4154
 20
-59.4454
 11
-58.652
 21
-59.3153
  0
LINE
  8
0
 10
-58.652
 20
-59.3153
 11
-58.8705
 21
-59.1566
  0
LINE
  8
0
 10
-58.8705
 20
-59.1566
 11
-59.0673
 21
-58.9718
  0
LINE
  8
0
 10
-59.0673
 20
-58.9718
 11
-59.2394
 21
-58.7637
  0
LINE
  8
0
 10
-59.2394
 20
-58.7637
 11
-59.384
 21
-58.5358
  0
LINE
  8
0
 10
-59.384
 20
-58.5358
 11
-59.499
 21
-58.2915
  0
LINE
  8
0
 10
-59.499
 20
-58.2915
 11
-59.5824
 21
-58.0347
  0
LINE
  8
0
 10
-59.5824
 20
-58.0347
 11
-59.633
 21
-57.7695
  0
LINE
  8
0
 10
-59.633
 20
-57.7695
 11
-59.65
 21
-57.5
  0
LINE
  8
0
 10
-59.65
 20
-57.5
 11
-59.633
 21
-57.2305
  0
LINE
  8
0
 10
-59.633
 20
-57.2305
 11
-59.5824
 21
-56.9653
  0
LINE
  8
0
 10
-59.5824
 20
-56.9653
 11
-59.499
 21
-56.7085
  0
LINE
  8
0
 10
-59.499
 20
-56.7085
 11
-59.384
 21
-56.4642
  0
LINE
  8
0
 10
-59.384
 20
-56.4642
 11
-59.2394
 21
-56.2363
  0
LINE
  8
0
 10
-59.2394
 20
-56.2363
 11
-59.0673
 21
-56.0282
  0
LINE
  8
0
 10
-59.0673
 20
-56.0282
 11
-58.8705
 21
-55.8434
  0
LINE
  8
0
 10
-58.8705
 20
-55.8434
 11
-58.652
 21
-55.6847
  0
LINE
  8
0
 10
-58.652
 20
-55.6847
 11
-58.4154
 21
-55.5546
  0
LINE
  8
0
 10
-58.4154
 20
-55.5546
 11
-58.1644
 21
-55.4552
  0
LINE
  8
0
 10
-58.1644
 20
-55.4552
 11
-57.9029
 21
-55.3881
  0
LINE
  8
0
 10
-57.9029
 20
-55.3881
 11
-57.635
 21
-55.3542
  0
LINE
  8
0
 10
-57.635
 20
-55.3542
 11
-57.365
 21
-55.3542
  0
LINE
  8
0
 10
-57.365
 20
-55.3542
 11
-57.0971
 21
-55.3881
  0
LINE
  8
0
 10
-57.0971
 20
-55.3881
 11
-56.8356
 21
-55.4552
  0
LINE
  8
0
 10
-56.8356
 20
-55.4552
 11
-56.5846
 21
-55.5546
  0
LINE
  8
0
 10
-56.5846
 20
-55.5546
 11
-56.348
 21
-55.6847
  0
LINE
  8
0
 10
-56.348
 20
-55.6847
 11
-56.1295
 21
-55.8434
  0
LINE
  8
0
 10
-56.1295
 20
-55.8434
 11
-55.9327
 21
-56.0282
  0
LINE
  8
0
 10
-55.9327
 20
-56.0282
 11
-55.7606
 21
-56.2363
  0
LINE
  8
0
 10
-55.7606
 20
-56.2363
 11
-55.6159
 21
-56.4642
  0
LINE
  8
0
 10
-55.6159
 20
-56.4642
 11
-55.501
 21
-56.7085
  0
LINE
  8
0
 10
-55.501
 20
-56.7085
 11
-55.4175
 21
-56.9653
  0
LINE
  8
0
 10
-55.4175
 20
-56.9653
 11
-55.3669
 21
-57.2305
  0
LINE
  8
0
 10
-55.3669
 20
-57.2305
 11
-55.35
 21
-57.5
  0
LINE
  8
0
 10
-55.35
 20
-57.5
 11
-55.3669
 21
-57.7695
  0
LINE
  8
0
 10
-55.3669
 20
-57.7695
 11
-55.4175
 21
-58.0347
  0
LINE
  8
0
 10
-55.4175
 20
-58.0347
 11
-55.501
 21
-58.2915
  0
LINE
  8
0
 10
-55.501
 20
-58.2915
 11
-55.6159
 21
-58.5358
  0
LINE
  8
0
 10
-55.6159
 20
-58.5358
 11
-55.7606
 21
-58.7637
  0
LINE
  8
0
 10
-55.7606
 20
-58.7637
 11
-55.9327
 21
-58.9718
  0
LINE
  8
0
 10
-55.9327
 20
-58.9718
 11
-56.1295
 21
-59.1566
  0
LINE
  8
0
 10
-56.1295
 20
-59.1566
 11
-56.348
 21
-59.3153
  0
LINE
  8
0
 10
-56.348
 20
-59.3153
 11
-56.5846
 21
-59.4454
  0
LINE
  8
0
 10
-56.5846
 20
-59.4454
 11
-56.8356
 21
-59.5448
  0
LINE
  8
0
 10
-56.8356
 20
-59.5448
 11
-57.0971
 21
-59.6119
  0
LINE
  8
0
 10
-57.0971
 20
-59.6119
 11
-57.365
 21
-59.6458
  0
LINE
  8
0
 10
-57.365
 20
-59.6458
 11
-57.635
 21
-59.6458
  0
LINE
  8
0
 10
52.3917
 20
-128.9
 11
53.9583
 21
-128.601
  0
LINE
  8
0
 10
53.9583
 20
-128.601
 11
55.4752
 21
-128.108
  0
LINE
  8
0
 10
55.4752
 20
-128.108
 11
56.9183
 21
-127.429
  0
LINE
  8
0
 10
56.9183
 20
-127.429
 11
58.2649
 21
-126.574
  0
LINE
  8
0
 10
58.2649
 20
-126.574
 11
59.4937
 21
-125.558
  0
LINE
  8
0
 10
59.4937
 20
-125.558
 11
60.5855
 21
-124.395
  0
LINE
  8
0
 10
60.5855
 20
-124.395
 11
61.5229
 21
-123.105
  0
LINE
  8
0
 10
61.5229
 20
-123.105
 11
62.2913
 21
-121.707
  0
LINE
  8
0
 10
62.2913
 20
-121.707
 11
62.8784
 21
-120.225
  0
LINE
  8
0
 10
62.8784
 20
-120.225
 11
63.275
 21
-118.68
  0
LINE
  8
0
 10
63.275
 20
-118.68
 11
63.4749
 21
-117.097
  0
LINE
  8
0
 10
63.4749
 20
-117.097
 11
63.4749
 21
-115.503
  0
LINE
  8
0
 10
63.4749
 20
-115.503
 11
63.275
 21
-113.92
  0
LINE
  8
0
 10
63.275
 20
-113.92
 11
62.8784
 21
-112.375
  0
LINE
  8
0
 10
62.8784
 20
-112.375
 11
62.2913
 21
-110.893
  0
LINE
  8
0
 10
62.2913
 20
-110.893
 11
61.5229
 21
-109.495
  0
LINE
  8
0
 10
61.5229
 20
-109.495
 11
60.5855
 21
-108.205
  0
LINE
  8
0
 10
60.5855
 20
-108.205
 11
59.4937
 21
-107.042
  0
LINE
  8
0
 10
59.4937
 20
-107.042
 11
58.2649
 21
-106.025
  0
LINE
  8
0
 10
58.2649
 20
-106.025
 11
56.9183
 21
-105.171
  0
LINE
  8
0
 10
56.9183
 20
-105.171
 11
55.4752
 21
-104.492
  0
LINE
  8
0
 10
55.4752
 20
-104.492
 11
53.9583
 21
-103.999
  0
LINE
  8
0
 10
53.9583
 20
-103.999
 11
52.3917
 21
-103.7
  0
LINE
  8
0
 10
52.3917
 20
-103.7
 11
50.8
 21
-103.6
  0
LINE
  8
0
 10
50.8
 20
-103.6
 11
-50.8
 21
-103.6
  0
LINE
  8
0
 10
-50.8
 20
-103.6
 11
-52.3917
 21
-103.7
  0
LINE
  8
0
 10
-52.3917
 20
-103.7
 11
-53.9583
 21
-103.999
  0
LINE
  8
0
 10
-53.9583
 20
-103.999
 11
-55.4752
 21
-104.492
  0
LINE
  8
0
 10
-55.4752
 20
-104.492
 11
-56.9183
 21
-105.171
  0
LINE
  8
0
 10
-56.9183
 20
-105.171
 11
-58.2648
 21
-106.025
  0
LINE
  8
0
 10
-58.2648
 20
-106.025
 11
-59.4937
 21
-107.042
  0
LINE
  8
0
 10
-59.4937
 20
-107.042
 11
-60.5855
 21
-108.205
  0
LINE
  8
0
 10
-60.5855
 20
-108.205
 11
-61.5229
 21
-109.495
  0
LINE
  8
0
 10
-61.5229
 20
-109.495
 11
-62.2913
 21
-110.893
  0
LINE
  8
0
 10
-62.2913
 20
-110.893
 11
-62.8784
 21
-112.375
  0
LINE
  8
0
 10
-62.8784
 20
-112.375
 11
-63.275
 21
-113.92
  0
LINE
  8
0
 10
-63.275
 20
-113.92
 11
-63.4749
 21
-115.503
  0
LINE
  8
0
 10
-63.4749
 20
-115.503
 11
-63.4749
 21
-117.097
  0
LINE
  8
0
 10
-63.4749
 20
-117.097
 11
-63.275
 21
-118.68
  0
LINE
  8
0
 10
-63.275
 20
-118.68
 11
-62.8784
 21
-120.225
  0
LINE
  8
0
 10
-62.8784
 20
-120.225
 11
-62.2913
 21
-121.707
  0
LINE
  8
0
 10
-62.2913
 20
-121.707
 11
-61.5229
 21
-123.105
  0
LINE
  8
0
 10
-61.5229
 20
-123.105
 11
-60.5855
 21
-124.395
  0
LINE
  8
0
 10
-60.5855
 20
-124.395
 11
-59.4937
 21
-125.558
  0
LINE
  8
0
 10
-59.4937
 20
-125.558
 11
-58.2648
 21
-126.574
  0
LINE
  8
0
 10
-58.2648
 20
-126.574
 11
-56.9183
 21
-127.429
  0
LINE
  8
0
 10
-56.9183
 20
-127.429
 11
-55.4752
 21
-128.108
  0
LINE
  8
0
 10
-55.4752
 20
-128.108
 11
-53.9583
 21
-128.601
  0
LINE
  8
0
 10
-53.9583
 20
-128.601
 11
-52.3917
 21
-128.9
  0
LINE
  8
0
 10
-52.3917
 20
-128.9
 11
-50.8
 21
-129
  0
LINE
  8
0
 10
-50.8
 20
-129
 11
50.8
 21
-129
  0
LINE
  8
0
 10
50.8
 20
-129
 11
52.3917
 21
-128.9
  0
LINE
  8
0
 10
50.5305
 20
-118.433
 11
50.2653
 21
-118.382
  0
LINE
  8
0
 10
50.2653
 20
-118.382
 11
50.0085
 21
-118.299
  0
LINE
  8
0
 10
50.0085
 20
-118.299
 11
49.7642
 21
-118.184
  0
LINE
  8
0
 10
49.7642
 20
-118.184
 11
49.5363
 21
-118.039
  0
LINE
  8
0
 10
49.5363
 20
-118.039
 11
49.3282
 21
-117.867
  0
LINE
  8
0
 10
49.3282
 20
-117.867
 11
49.1434
 21
-117.67
  0
LINE
  8
0
 10
49.1434
 20
-117.67
 11
48.9847
 21
-117.452
  0
LINE
  8
0
 10
48.9847
 20
-117.452
 11
48.8546
 21
-117.215
  0
LINE
  8
0
 10
48.8546
 20
-117.215
 11
48.7552
 21
-116.964
  0
LINE
  8
0
 10
48.7552
 20
-116.964
 11
48.6881
 21
-116.703
  0
LINE
  8
0
 10
48.6881
 20
-116.703
 11
48.6542
 21
-116.435
  0
LINE
  8
0
 10
48.6542
 20
-116.435
 11
48.6542
 21
-116.165
  0
LINE
  8
0
 10
48.6542
 20
-116.165
 11
48.6881
 21
-115.897
  0
LINE
  8
0
 10
48.6881
 20
-115.897
 11
48.7552
 21
-115.636
  0
LINE
  8
0
 10
48.7552
 20
-115.636
 11
48.8546
 21
-115.385
  0
LINE
  8
0
 10
48.8546
 20
-115.385
 11
48.9847
 21
-115.148
  0
LINE
  8
0
 10
48.9847
 20
-115.148
 11
49.1434
 21
-114.93
  0
LINE
  8
0
 10
49.1434
 20
-114.93
 11
49.3282
 21
-114.733
  0
LINE
  8
0
 10
49.3282
 20
-114.733
 11
49.5363
 21
-114.561
  0
LINE
  8
0
 10
49.5363
 20
-114.561
 11
49.7642
 21
-114.416
  0
LINE
  8
0
 10
49.7642
 20
-114.416
 11
50.0085
 21
-114.301
  0
LINE
  8
0
 10
50.0085
 20
-114.301
 11
50.2653
 21
-114.218
  0
LINE
  8
0
 10
50.2653
 20
-114.218
 11
50.5305
 21
-114.167
  0
LINE
  8
0
 10
50.5305
 20
-114.167
 11
50.8
 21
-114.15
  0
LINE
  8
0
 10
50.8
 20
-114.15
 11
51.0695
 21
-114.167
  0
LINE
  8
0
 10
51.0695
 20
-114.167
 11
51.3347
 21
-114.218
  0
LINE
  8
0
 10
51.3347
 20
-114.218
 11
51.5915
 21
-114.301
  0
LINE
  8
0
 10
51.5915
 20
-114.301
 11
51.8358
 21
-114.416
  0
LINE
  8
0
 10
51.8358
 20
-114.416
 11
52.0637
 21
-114.561
  0
LINE
  8
0
 10
52.0637
 20
-114.561
 11
52.2718
 21
-114.733
  0
LINE
  8
0
 10
52.2718
 20
-114.733
 11
52.4566
 21
-114.93
  0
LINE
  8
0
 10
52.4566
 20
-114.93
 11
52.6153
 21
-115.148
  0
LINE
  8
0
 10
52.6153
 20
-115.148
 11
52.7454
 21
-115.385
  0
LINE
  8
0
 10
52.7454
 20
-115.385
 11
52.8448
 21
-115.636
  0
LINE
  8
0
 10
52.8448
 20
-115.636
 11
52.9119
 21
-115.897
  0
LINE
  8
0
 10
52.9119
 20
-115.897
 11
52.9457
 21
-116.165
  0
LINE
  8
0
 10
52.9457
 20
-116.165
 11
52.9457
 21
-116.435
  0
LINE
  8
0
 10
52.9457
 20
-116.435
 11
52.9119
 21
-116.703
  0
LINE
  8
0
 10
52.9119
 20
-116.703
 11
52.8448
 21
-116.964
  0
LINE
  8
0
 10
52.8448
 20
-116.964
 11
52.7454
 21
-117.215
  0
LINE
  8
0
 10
52.7454
 20
-117.215
 11
52.6153
 21
-117.452
  0
LINE
  8
0
 10
52.6153
 20
-117.452
 11
52.4566
 21
-117.67
  0
LINE
  8
0
 10
52.4566
 20
-117.67
 11
52.2718
 21
-117.867
  0
LINE
  8
0
 10
52.2718
 20
-117.867
 11
52.0637
 21
-118.039
  0
LINE
  8
0
 10
52.0637
 20
-118.039
 11
51.8358
 21
-118.184
  0
LINE
  8
0
 10
51.8358
 20
-118.184
 11
51.5915
 21
-118.299
  0
LINE
  8
0
 10
51.5915
 20
-118.299
 11
51.3347
 21
-118.382
  0
LINE
  8
0
 10
51.3347
 20
-118.382
 11
51.0695
 21
-118.433
  0
LINE
  8
0
 10
51.0695
 20
-118.433
 11
50.8
 21
-118.45
  0
LINE
  8
0
 10
50.8
 20
-118.45
 11
50.5305
 21
-118.433
  0
LINE
  8
0
 10
-51.0694
 20
-118.433
 11
-51.3347
 21
-118.382
  0
LINE
  8
0
 10
-51.3347
 20
-118.382
 11
-51.5914
 21
-118.299
  0
LINE
  8
0
 10
-51.5914
 20
-118.299
 11
-51.8358
 21
-118.184
  0
LINE
  8
0
 10
-51.8358
 20
-118.184
 11
-52.0637
 21
-118.039
  0
LINE
  8
0
 10
-52.0637
 20
-118.039
 11
-52.2718
 21
-117.867
  0
LINE
  8
0
 10
-52.2718
 20
-117.867
 11
-52.4566
 21
-117.67
  0
LINE
  8
0
 10
-52.4566
 20
-117.67
 11
-52.6153
 21
-117.452
  0
LINE
  8
0
 10
-52.6153
 20
-117.452
 11
-52.7454
 21
-117.215
  0
LINE
  8
0
 10
-52.7454
 20
-117.215
 11
-52.8448
 21
-116.964
  0
LINE
  8
0
 10
-52.8448
 20
-116.964
 11
-52.9119
 21
-116.703
  0
LINE
  8
0
 10
-52.9119
 20
-116.703
 11
-52.9457
 21
-116.435
  0
LINE
  8
0
 10
-52.9457
 20
-116.435
 11
-52.9457
 21
-116.165
  0
LINE
  8
0
 10
-52.9457
 20
-116.165
 11
-52.9119
 21
-115.897
  0
LINE
  8
0
 10
-52.9119
 20
-115.897
 11
-52.8448
 21
-115.636
  0
LINE
  8
0
 10
-52.8448
 20
-115.636
 11
-52.7454
 21
-115.385
  0
LINE
  8
0
 10
-52.7454
 20
-115.385
 11
-52.6153
 21
-115.148
  0
LINE
  8
0
 10
-52.6153
 20
-115.148
 11
-52.4566
 21
-114.93
  0
LINE
  8
0
 10
-52.4566
 20
-114.93
 11
-52.2718
 21
-114.733
  0
LINE
  8
0
 10
-52.2718
 20
-114.733
 11
-52.0637
 21
-114.561
  0
LINE
  8
0
 10
-52.0637
 20
-114.561
 11
-51.8358
 21
-114.416
  0
LINE
  8
0
 10
-51.8358
 20
-114.416
 11
-51.5914
 21
-114.301
  0
LINE
  8
0
 10
-51.5914
 20
-114.301
 11
-51.3347
 21
-114.218
  0
LINE
  8
0
 10
-51.3347
 20
-114.218
 11
-51.0694
 21
-114.167
  0
LINE
  8
0
 10
-51.0694
 20
-114.167
 11
-50.8
 21
-114.15
  0
LINE
  8
0
 10
-50.8
 20
-114.15
 11
-50.5305
 21
-114.167
  0
LINE
  8
0
 10
-50.5305
 20
-114.167
 11
-50.2653
 21
-114.218
  0
LINE
  8
0
 10
-50.2653
 20
-114.218
 11
-50.0085
 21
-114.301
  0
LINE
  8
0
 10
-50.0085
 20
-114.301
 11
-49.7642
 21
-114.416
  0
LINE
  8
0
 10
-49.7642
 20
-114.416
 11
-49.5363
 21
-114.561
  0
LINE
  8
0
 10
-49.5363
 20
-114.561
 11
-49.3282
 21
-114.733
  0
LINE
  8
0
 10
-49.3282
 20
-114.733
 11
-49.1434
 21
-114.93
  0
LINE
  8
0
 10
-49.1434
 20
-114.93
 11
-48.9847
 21
-115.148
  0
LINE
  8
0
 10
-48.9847
 20
-115.148
 11
-48.8546
 21
-115.385
  0
LINE
  8
0
 10
-48.8546
 20
-115.385
 11
-48.7552
 21
-115.636
  0
LINE
  8
0
 10
-48.7552
 20
-115.636
 11
-48.6881
 21
-115.897
  0
LINE
  8
0
 10
-48.6881
 20
-115.897
 11
-48.6542
 21
-116.165
  0
LINE
  8
0
 10
-48.6542
 20
-116.165
 11
-48.6542
 21
-116.435
  0
LINE
  8
0
 10
-48.6542
 20
-116.435
 11
-48.6881
 21
-116.703
  0
LINE
  8
0
 10
-48.6881
 20
-116.703
 11
-48.7552
 21
-116.964
  0
LINE
  8
0
 10
-48.7552
 20
-116.964
 11
-48.8546
 21
-117.215
  0
LINE
  8
0
 10
-48.8546
 20
-117.215
 11
-48.9847
 21
-117.452
  0
LINE
  8
0
 10
-48.9847
 20
-117.452
 11
-49.1434
 21
-117.67
  0
LINE
  8
0
 10
-49.1434
 20
-117.67
 11
-49.3282
 21
-117.867
  0
LINE
  8
0
 10
-49.3282
 20
-117.867
 11
-49.5363
 21
-118.039
  0
LINE
  8
0
 10
-49.5363
 20
-118.039
 11
-49.7642
 21
-118.184
  0
LINE
  8
0
 10
-49.7642
 20
-118.184
 11
-50.0085
 21
-118.299
  0
LINE
  8
0
 10
-50.0085
 20
-118.299
 11
-50.2653
 21
-118.382
  0
LINE
  8
0
 10
-50.2653
 20
-118.382
 11
-50.5305
 21
-118.433
  0
LINE
  8
0
 10
-50.5305
 20
-118.433
 11
-50.8
 21
-118.45
  0
LINE
  8
0
 10
-50.8
 20
-118.45
 11
-51.0694
 21
-118.433
  0
LINE
  8
0
 10
52.3917
 20
-156.3
 11
53.9583
 21
-156.001
  0
LINE
  8
0
 10
53.9583
 20
-156.001
 11
55.4752
 21
-155.508
  0
LINE
  8
0
 10
55.4752
 20
-155.508
 11
56.9183
 21
-154.829
  0
LINE
  8
0
 10
56.9183
 20
-154.829
 11
58.2649
 21
-153.974
  0
LINE
  8
0
 10
58.2649
 20
-153.974
 11
59.4937
 21
-152.958
  0
LINE
  8
0
 10
59.4937
 20
-152.958
 11
60.5855
 21
-151.795
  0
LINE
  8
0
 10
60.5855
 20
-151.795
 11
61.5229
 21
-150.505
  0
LINE
  8
0
 10
61.5229
 20
-150.505
 11
62.2913
 21
-149.107
  0
LINE
  8
0
 10
62.2913
 20
-149.107
 11
62.8784
 21
-147.624
  0
LINE
  8
0
 10
62.8784
 20
-147.624
 11
63.275
 21
-146.08
  0
LINE
  8
0
 10
63.275
 20
-146.08
 11
63.4749
 21
-144.497
  0
LINE
  8
0
 10
63.4749
 20
-144.497
 11
63.4749
 21
-142.903
  0
LINE
  8
0
 10
63.4749
 20
-142.903
 11
63.275
 21
-141.32
  0
LINE
  8
0
 10
63.275
 20
-141.32
 11
62.8784
 21
-139.775
  0
LINE
  8
0
 10
62.8784
 20
-139.775
 11
62.2913
 21
-138.293
  0
LINE
  8
0
 10
62.2913
 20
-138.293
 11
61.5229
 21
-136.895
  0
LINE
  8
0
 10
61.5229
 20
-136.895
 11
60.5855
 21
-135.605
  0
LINE
  8
0
 10
60.5855
 20
-135.605
 11
59.4937
 21
-134.442
  0
LINE
  8
0
 10
59.4937
 20
-134.442
 11
58.2649
 21
-133.425
  0
LINE
  8
0
 10
58.2649
 20
-133.425
 11
56.9183
 21
-132.571
  0
LINE
  8
0
 10
56.9183
 20
-132.571
 11
55.4752
 21
-131.892
  0
LINE
  8
0
 10
55.4752
 20
-131.892
 11
53.9583
 21
-131.399
  0
LINE
  8
0
 10
53.9583
 20
-131.399
 11
52.3917
 21
-131.1
  0
LINE
  8
0
 10
52.3917
 20
-131.1
 11
50.8
 21
-131
  0
LINE
  8
0
 10
50.8
 20
-131
 11
-50.8
 21
-131
  0
LINE
  8
0
 10
-50.8
 20
-131
 11
-52.3917
 21
-131.1
  0
LINE
  8
0
 10
-52.3917
 20
-131.1
 11
-53.9583
 21
-131.399
  0
LINE
  8
0
 10
-53.9583
 20
-131.399
 11
-55.4752
 21
-131.892
  0
LINE
  8
0
 10
-55.4752
 20
-131.892
 11
-56.9183
 21
-132.571
  0
LINE
  8
0
 10
-56.9183
 20
-132.571
 11
-58.2648
 21
-133.425
  0
LINE
  8
0
 10
-58.2648
 20
-133.425
 11
-59.4937
 21
-134.442
  0
LINE
  8
0
 10
-59.4937
 20
-134.442
 11
-60.5855
 21
-135.605
  0
LINE
  8
0
 10
-60.5855
 20
-135.605
 11
-61.5229
 21
-136.895
  0
LINE
  8
0
 10
-61.5229
 20
-136.895
 11
-62.2913
 21
-138.293
  0
LINE
  8
0
 10
-62.2913
 20
-138.293
 11
-62.8784
 21
-139.775
  0
LINE
  8
0
 10
-62.8784
 20
-139.775
 11
-63.275
 21
-141.32
  0
LINE
  8
0
 10
-63.275
 20
-141.32
 11
-63.4749
 21
-142.903
  0
LINE
  8
0
 10
-63.4749
 20
-142.903
 11
-63.4749
 21
-144.497
  0
LINE
  8
0
 10
-63.4749
 20
-144.497
 11
-63.275
 21
-146.08
  0
LINE
  8
0
 10
-63.275
 20
-146.08
 11
-62.8784
 21
-147.624
  0
LINE
  8
0
 10
-62.8784
 20
-147.624
 11
-62.2913
 21
-149.107
  0
LINE
  8
0
 10
-62.2913
 20
-149.107
 11
-61.5229
 21
-150.505
  0
LINE
  8
0
 10
-61.5229
 20
-150.505
 11
-60.5855
 21
-151.795
  0
LINE
  8
0
 10
-60.5855
 20
-151.795
 11
-59.4937
 21
-152.958
  0
LINE
  8
0
 10
-59.4937
 20
-152.958
 11
-58.2648
 21
-153.974
  0
LINE
  8
0
 10
-58.2648
 20
-153.974
 11
-56.9183
 21
-154.829
  0
LINE
  8
0
 10
-56.9183
 20
-154.829
 11
-55.4752
 21
-155.508
  0
LINE
  8
0
 10
-55.4752
 20
-155.508
 11
-53.9583
 21
-156.001
  0
LINE
  8
0
 10
-53.9583
 20
-156.001
 11
-52.3917
 21
-156.3
  0
LINE
  8
0
 10
-52.3917
 20
-156.3
 11
-50.8
 21
-156.4
  0
LINE
  8
0
 10
-50.8
 20
-156.4
 11
50.8
 21
-156.4
  0
LINE
  8
0
 10
50.8
 20
-156.4
 11
52.3917
 21
-156.3
  0
LINE
  8
0
 10
50.5305
 20
-145.833
 11
50.2653
 21
-145.782
  0
LINE
  8
0
 10
50.2653
 20
-145.782
 11
50.0085
 21
-145.699
  0
LINE
  8
0
 10
50.0085
 20
-145.699
 11
49.7642
 21
-145.584
  0
LINE
  8
0
 10
49.7642
 20
-145.584
 11
49.5363
 21
-145.439
  0
LINE
  8
0
 10
49.5363
 20
-145.439
 11
49.3282
 21
-145.267
  0
LINE
  8
0
 10
49.3282
 20
-145.267
 11
49.1434
 21
-145.07
  0
LINE
  8
0
 10
49.1434
 20
-145.07
 11
48.9847
 21
-144.852
  0
LINE
  8
0
 10
48.9847
 20
-144.852
 11
48.8546
 21
-144.615
  0
LINE
  8
0
 10
48.8546
 20
-144.615
 11
48.7552
 21
-144.364
  0
LINE
  8
0
 10
48.7552
 20
-144.364
 11
48.6881
 21
-144.103
  0
LINE
  8
0
 10
48.6881
 20
-144.103
 11
48.6542
 21
-143.835
  0
LINE
  8
0
 10
48.6542
 20
-143.835
 11
48.6542
 21
-143.565
  0
LINE
  8
0
 10
48.6542
 20
-143.565
 11
48.6881
 21
-143.297
  0
LINE
  8
0
 10
48.6881
 20
-143.297
 11
48.7552
 21
-143.036
  0
LINE
  8
0
 10
48.7552
 20
-143.036
 11
48.8546
 21
-142.785
  0
LINE
  8
0
 10
48.8546
 20
-142.785
 11
48.9847
 21
-142.548
  0
LINE
  8
0
 10
48.9847
 20
-142.548
 11
49.1434
 21
-142.33
  0
LINE
  8
0
 10
49.1434
 20
-142.33
 11
49.3282
 21
-142.133
  0
LINE
  8
0
 10
49.3282
 20
-142.133
 11
49.5363
 21
-141.961
  0
LINE
  8
0
 10
49.5363
 20
-141.961
 11
49.7642
 21
-141.816
  0
LINE
  8
0
 10
49.7642
 20
-141.816
 11
50.0085
 21
-141.701
  0
LINE
  8
0
 10
50.0085
 20
-141.701
 11
50.2653
 21
-141.618
  0
LINE
  8
0
 10
50.2653
 20
-141.618
 11
50.5305
 21
-141.567
  0
LINE
  8
0
 10
50.5305
 20
-141.567
 11
50.8
 21
-141.55
  0
LINE
  8
0
 10
50.8
 20
-141.55
 11
51.0695
 21
-141.567
  0
LINE
  8
0
 10
51.0695
 20
-141.567
 11
51.3347
 21
-141.618
  0
LINE
  8
0
 10
51.3347
 20
-141.618
 11
51.5915
 21
-141.701
  0
LINE
  8
0
 10
51.5915
 20
-141.701
 11
51.8358
 21
-141.816
  0
LINE
  8
0
 10
51.8358
 20
-141.816
 11
52.0637
 21
-141.961
  0
LINE
  8
0
 10
52.0637
 20
-141.961
 11
52.2718
 21
-142.133
  0
LINE
  8
0
 10
52.2718
 20
-142.133
 11
52.4566
 21
-142.33
  0
LINE
  8
0
 10
52.4566
 20
-142.33
 11
52.6153
 21
-142.548
  0
LINE
  8
0
 10
52.6153
 20
-142.548
 11
52.7454
 21
-142.785
  0
LINE
  8
0
 10
52.7454
 20
-142.785
 11
52.8448
 21
-143.036
  0
LINE
  8
0
 10
52.8448
 20
-143.036
 11
52.9119
 21
-143.297
  0
LINE
  8
0
 10
52.9119
 20
-143.297
 11
52.9457
 21
-143.565
  0
LINE
  8
0
 10
52.9457
 20
-143.565
 11
52.9457
 21
-143.835
  0
LINE
  8
0
 10
52.9457
 20
-143.835
 11
52.9119
 21
-144.103
  0
LINE
  8
0
 10
52.9119
 20
-144.103
 11
52.8448
 21
-144.364
  0
LINE
  8
0
 10
52.8448
 20
-144.364
 11
52.7454
 21
-144.615
  0
LINE
  8
0
 10
52.7454
 20
-144.615
 11
52.6153
 21
-144.852
  0
LINE
  8
0
 10
52.6153
 20
-144.852
 11
52.4566
 21
-145.07
  0
LINE
  8
0
 10
52.4566
 20
-145.07
 11
52.2718
 21
-145.267
  0
LINE
  8
0
 10
52.2718
 20
-145.267
 11
52.0637
 21
-145.439
  0
LINE
  8
0
 10
52.0637
 20
-145.439
 11
51.8358
 21
-145.584
  0
LINE
  8
0
 10
51.8358
 20
-145.584
 11
51.5915
 21
-145.699
  0
LINE
  8
0
 10
51.5915
 20
-145.699
 11
51.3347
 21
-145.782
  0
LINE
  8
0
 10
51.3347
 20
-145.782
 11
51.0695
 21
-145.833
  0
LINE
  8
0
 10
51.0695
 20
-145.833
 11
50.8
 21
-145.85
  0
LINE
  8
0
 10
50.8
 20
-145.85
 11
50.5305
 21
-145.833
  0
LINE
  8
0
 10
-51.0694
 20
-145.833
 11
-51.3347
 21
-145.782
  0
LINE
  8
0
 10
-51.3347
 20
-145.782
 11
-51.5914
 21
-145.699
  0
LINE
  8
0
 10
-51.5914
 20
-145.699
 11
-51.8358
 21
-145.584
  0
LINE
  8
0
 10
-51.8358
 20
-145.584
 11
-52.0637
 21
-145.439
  0
LINE
  8
0
 10
-52.0637
 20
-145.439
 11
-52.2718
 21
-145.267
  0
LINE
  8
0
 10
-52.2718
 20
-145.267
 11
-52.4566
 21
-145.07
  0
LINE
  8
0
 10
-52.4566
 20
-145.07
 11
-52.6153
 21
-144.852
  0
LINE
  8
0
 10
-52.6153
 20
-144.852
 11
-52.7454
 21
-144.615
  0
LINE
  8
0
 10
-52.7454
 20
-144.615
 11
-52.8448
 21
-144.364
  0
LINE
  8
0
 10
-52.8448
 20
-144.364
 11
-52.9119
 21
-144.103
  0
LINE
  8
0
 10
-52.9119
 20
-144.103
 11
-52.9457
 21
-143.835
  0
LINE
  8
0
 10
-52.9457
 20
-143.835
 11
-52.9457
 21
-143.565
  0
LINE
  8
0
 10
-52.9457
 20
-143.565
 11
-52.9119
 21
-143.297
  0
LINE
  8
0
 10
-52.9119
 20
-143.297
 11
-52.8448
 21
-143.036
  0
LINE
  8
0
 10
-52.8448
 20
-143.036
 11
-52.7454
 21
-142.785
  0
LINE
  8
0
 10
-52.7454
 20
-142.785
 11
-52.6153
 21
-142.548
  0
LINE
  8
0
 10
-52.6153
 20
-142.548
 11
-52.4566
 21
-142.33
  0
LINE
  8
0
 10
-52.4566
 20
-142.33
 11
-52.2718
 21
-142.133
  0
LINE
  8
0
 10
-52.2718
 20
-142.133
 11
-52.0637
 21
-141.961
  0
LINE
  8
0
 10
-52.0637
 20
-141.961
 11
-51.8358
 21
-141.816
  0
LINE
  8
0
 10
-51.8358
 20
-141.816
 11
-51.5914
 21
-141.701
  0
LINE
  8
0
 10
-51.5914
 20
-141.701
 11
-51.3347
 21
-141.618
  0
LINE
  8
0
 10
-51.3347
 20
-141.618
 11
-51.0694
 21
-141.567
  0
LINE
  8
0
 10
-51.0694
 20
-141.567
 11
-50.8
 21
-141.55
  0
LINE
  8
0
 10
-50.8
 20
-141.55
 11
-50.5305
 21
-141.567
  0
LINE
  8
0
 10
-50.5305
 20
-141.567
 11
-50.2653
 21
-141.618
  0
LINE
  8
0
 10
-50.2653
 20
-141.618
 11
-50.0085
 21
-141.701
  0
LINE
  8
0
 10
-50.0085
 20
-141.701
 11
-49.7642
 21
-141.816
  0
LINE
  8
0
 10
-49.7642
 20
-141.816
 11
-49.5363
 21
-141.961
  0
LINE
  8
0
 10
-49.5363
 20
-141.961
 11
-49.3282
 21
-142.133
  0
LINE
  8
0
 10
-49.3282
 20
-142.133
 11
-49.1434
 21
-142.33
  0
LINE
  8
0
 10
-49.1434
 20
-142.33
 11
-48.9847
 21
-142.548
  0
LINE
  8
0
 10
-48.9847
 20
-142.548
 11
-48.8546
 21
-142.785
  0
LINE
  8
0
 10
-48.8546
 20
-142.785
 11
-48.7552
 21
-143.036
  0
LINE
  8
0
 10
-48.7552
 20
-143.036
 11
-48.6881
 21
-143.297
  0
LINE
  8
0
 10
-48.6881
 20
-143.297
 11
-48.6542
 21
-143.565
  0
LINE
  8
0
 10
-48.6542
 20
-143.565
 11
-48.6542
 21
-143.835
  0
LINE
  8
0
 10
-48.6542
 20
-143.835
 11
-48.6881
 21
-144.103
  0
LINE
  8
0
 10
-48.6881
 20
-144.103
 11
-48.7552
 21
-144.364
  0
LINE
  8
0
 10
-48.7552
 20
-144.364
 11
-48.8546
 21
-144.615
  0
LINE
  8
0
 10
-48.8546
 20
-144.615
 11
-48.9847
 21
-144.852
  0
LINE
  8
0
 10
-48.9847
 20
-144.852
 11
-49.1434
 21
-145.07
  0
LINE
  8
0
 10
-49.1434
 20
-145.07
 11
-49.3282
 21
-145.267
  0
LINE
  8
0
 10
-49.3282
 20
-145.267
 11
-49.5363
 21
-145.439
  0
LINE
  8
0
 10
-49.5363
 20
-145.439
 11
-49.7642
 21
-145.584
  0
LINE
  8
0
 10
-49.7642
 20
-145.584
 11
-50.0085
 21
-145.699
  0
LINE
  8
0
 10
-50.0085
 20
-145.699
 11
-50.2653
 21
-145.782
  0
LINE
  8
0
 10
-50.2653
 20
-145.782
 11
-50.5305
 21
-145.833
  0
LINE
  8
0
 10
-50.5305
 20
-145.833
 11
-50.8
 21
-145.85
  0
LINE
  8
0
 10
-50.8
 20
-145.85
 11
-51.0694
 21
-145.833
  0
ENDSEC
  0
SECTION
  2
OBJECTS
  0
DICTIONARY
  0
ENDSEC
  0
EOF
