  0
SECTION
  2
BLOCKS
  0
ENDSEC
  0
SECTION
  2
ENTITIES
  0
LINE
  8
0
 10
310.8
 20
408
 11
107.6
 21
408
  0
LINE
  8
0
 10
107.6
 20
408
 11
107.6
 21
-100
  0
LINE
  8
0
 10
107.6
 20
-100
 11
310.8
 21
-100
  0
LINE
  8
0
 10
310.8
 20
-100
 11
310.8
 21
408
  0
LINE
  8
0
 10
158.265
 20
-51.3458
 11
157.997
 21
-51.3119
  0
LINE
  8
0
 10
157.997
 20
-51.3119
 11
157.736
 21
-51.2448
  0
LINE
  8
0
 10
157.736
 20
-51.2448
 11
157.485
 21
-51.1454
  0
LINE
  8
0
 10
157.485
 20
-51.1454
 11
157.248
 21
-51.0153
  0
LINE
  8
0
 10
157.248
 20
-51.0153
 11
157.03
 21
-50.8566
  0
LINE
  8
0
 10
157.03
 20
-50.8566
 11
156.833
 21
-50.6718
  0
LINE
  8
0
 10
156.833
 20
-50.6718
 11
156.661
 21
-50.4637
  0
LINE
  8
0
 10
156.661
 20
-50.4637
 11
156.516
 21
-50.2358
  0
LINE
  8
0
 10
156.516
 20
-50.2358
 11
156.401
 21
-49.9915
  0
LINE
  8
0
 10
156.401
 20
-49.9915
 11
156.318
 21
-49.7347
  0
LINE
  8
0
 10
156.318
 20
-49.7347
 11
156.267
 21
-49.4695
  0
LINE
  8
0
 10
156.267
 20
-49.4695
 11
156.25
 21
-49.2
  0
LINE
  8
0
 10
156.25
 20
-49.2
 11
156.267
 21
-48.9305
  0
LINE
  8
0
 10
156.267
 20
-48.9305
 11
156.318
 21
-48.6653
  0
LINE
  8
0
 10
156.318
 20
-48.6653
 11
156.401
 21
-48.4085
  0
LINE
  8
0
 10
156.401
 20
-48.4085
 11
156.516
 21
-48.1642
  0
LINE
  8
0
 10
156.516
 20
-48.1642
 11
156.661
 21
-47.9363
  0
LINE
  8
0
 10
156.661
 20
-47.9363
 11
156.833
 21
-47.7282
  0
LINE
  8
0
 10
156.833
 20
-47.7282
 11
157.03
 21
-47.5434
  0
LINE
  8
0
 10
157.03
 20
-47.5434
 11
157.248
 21
-47.3847
  0
LINE
  8
0
 10
157.248
 20
-47.3847
 11
157.485
 21
-47.2546
  0
LINE
  8
0
 10
157.485
 20
-47.2546
 11
157.736
 21
-47.1552
  0
LINE
  8
0
 10
157.736
 20
-47.1552
 11
157.997
 21
-47.0881
  0
LINE
  8
0
 10
157.997
 20
-47.0881
 11
158.265
 21
-47.0542
  0
LINE
  8
0
 10
158.265
 20
-47.0542
 11
158.535
 21
-47.0542
  0
LINE
  8
0
 10
158.535
 20
-47.0542
 11
158.803
 21
-47.0881
  0
LINE
  8
0
 10
158.803
 20
-47.0881
 11
159.064
 21
-47.1552
  0
LINE
  8
0
 10
159.064
 20
-47.1552
 11
159.315
 21
-47.2546
  0
LINE
  8
0
 10
159.315
 20
-47.2546
 11
159.552
 21
-47.3847
  0
LINE
  8
0
 10
159.552
 20
-47.3847
 11
159.77
 21
-47.5434
  0
LINE
  8
0
 10
159.77
 20
-47.5434
 11
159.967
 21
-47.7282
  0
LINE
  8
0
 10
159.967
 20
-47.7282
 11
160.139
 21
-47.9363
  0
LINE
  8
0
 10
160.139
 20
-47.9363
 11
160.284
 21
-48.1642
  0
LINE
  8
0
 10
160.284
 20
-48.1642
 11
160.399
 21
-48.4085
  0
LINE
  8
0
 10
160.399
 20
-48.4085
 11
160.482
 21
-48.6653
  0
LINE
  8
0
 10
160.482
 20
-48.6653
 11
160.533
 21
-48.9305
  0
LINE
  8
0
 10
160.533
 20
-48.9305
 11
160.55
 21
-49.2
  0
LINE
  8
0
 10
160.55
 20
-49.2
 11
160.533
 21
-49.4695
  0
LINE
  8
0
 10
160.533
 20
-49.4695
 11
160.482
 21
-49.7347
  0
LINE
  8
0
 10
160.482
 20
-49.7347
 11
160.399
 21
-49.9915
  0
LINE
  8
0
 10
160.399
 20
-49.9915
 11
160.284
 21
-50.2358
  0
LINE
  8
0
 10
160.284
 20
-50.2358
 11
160.139
 21
-50.4637
  0
LINE
  8
0
 10
160.139
 20
-50.4637
 11
159.967
 21
-50.6718
  0
LINE
  8
0
 10
159.967
 20
-50.6718
 11
159.77
 21
-50.8566
  0
LINE
  8
0
 10
159.77
 20
-50.8566
 11
159.552
 21
-51.0153
  0
LINE
  8
0
 10
159.552
 20
-51.0153
 11
159.315
 21
-51.1454
  0
LINE
  8
0
 10
159.315
 20
-51.1454
 11
159.064
 21
-51.2448
  0
LINE
  8
0
 10
159.064
 20
-51.2448
 11
158.803
 21
-51.3119
  0
LINE
  8
0
 10
158.803
 20
-51.3119
 11
158.535
 21
-51.3458
  0
LINE
  8
0
 10
158.535
 20
-51.3458
 11
158.265
 21
-51.3458
  0
LINE
  8
0
 10
259.865
 20
-51.3458
 11
259.597
 21
-51.3119
  0
LINE
  8
0
 10
259.597
 20
-51.3119
 11
259.336
 21
-51.2448
  0
LINE
  8
0
 10
259.336
 20
-51.2448
 11
259.085
 21
-51.1454
  0
LINE
  8
0
 10
259.085
 20
-51.1454
 11
258.848
 21
-51.0153
  0
LINE
  8
0
 10
258.848
 20
-51.0153
 11
258.63
 21
-50.8566
  0
LINE
  8
0
 10
258.63
 20
-50.8566
 11
258.433
 21
-50.6718
  0
LINE
  8
0
 10
258.433
 20
-50.6718
 11
258.261
 21
-50.4637
  0
LINE
  8
0
 10
258.261
 20
-50.4637
 11
258.116
 21
-50.2358
  0
LINE
  8
0
 10
258.116
 20
-50.2358
 11
258.001
 21
-49.9915
  0
LINE
  8
0
 10
258.001
 20
-49.9915
 11
257.918
 21
-49.7347
  0
LINE
  8
0
 10
257.918
 20
-49.7347
 11
257.867
 21
-49.4695
  0
LINE
  8
0
 10
257.867
 20
-49.4695
 11
257.85
 21
-49.2
  0
LINE
  8
0
 10
257.85
 20
-49.2
 11
257.867
 21
-48.9305
  0
LINE
  8
0
 10
257.867
 20
-48.9305
 11
257.918
 21
-48.6653
  0
LINE
  8
0
 10
257.918
 20
-48.6653
 11
258.001
 21
-48.4085
  0
LINE
  8
0
 10
258.001
 20
-48.4085
 11
258.116
 21
-48.1642
  0
LINE
  8
0
 10
258.116
 20
-48.1642
 11
258.261
 21
-47.9363
  0
LINE
  8
0
 10
258.261
 20
-47.9363
 11
258.433
 21
-47.7282
  0
LINE
  8
0
 10
258.433
 20
-47.7282
 11
258.63
 21
-47.5434
  0
LINE
  8
0
 10
258.63
 20
-47.5434
 11
258.848
 21
-47.3847
  0
LINE
  8
0
 10
258.848
 20
-47.3847
 11
259.085
 21
-47.2546
  0
LINE
  8
0
 10
259.085
 20
-47.2546
 11
259.336
 21
-47.1552
  0
LINE
  8
0
 10
259.336
 20
-47.1552
 11
259.597
 21
-47.0881
  0
LINE
  8
0
 10
259.597
 20
-47.0881
 11
259.865
 21
-47.0542
  0
LINE
  8
0
 10
259.865
 20
-47.0542
 11
260.135
 21
-47.0542
  0
LINE
  8
0
 10
260.135
 20
-47.0542
 11
260.403
 21
-47.0881
  0
LINE
  8
0
 10
260.403
 20
-47.0881
 11
260.664
 21
-47.1552
  0
LINE
  8
0
 10
260.664
 20
-47.1552
 11
260.915
 21
-47.2546
  0
LINE
  8
0
 10
260.915
 20
-47.2546
 11
261.152
 21
-47.3847
  0
LINE
  8
0
 10
261.152
 20
-47.3847
 11
261.37
 21
-47.5434
  0
LINE
  8
0
 10
261.37
 20
-47.5434
 11
261.567
 21
-47.7282
  0
LINE
  8
0
 10
261.567
 20
-47.7282
 11
261.739
 21
-47.9363
  0
LINE
  8
0
 10
261.739
 20
-47.9363
 11
261.884
 21
-48.1642
  0
LINE
  8
0
 10
261.884
 20
-48.1642
 11
261.999
 21
-48.4085
  0
LINE
  8
0
 10
261.999
 20
-48.4085
 11
262.082
 21
-48.6653
  0
LINE
  8
0
 10
262.082
 20
-48.6653
 11
262.133
 21
-48.9305
  0
LINE
  8
0
 10
262.133
 20
-48.9305
 11
262.15
 21
-49.2
  0
LINE
  8
0
 10
262.15
 20
-49.2
 11
262.133
 21
-49.4695
  0
LINE
  8
0
 10
262.133
 20
-49.4695
 11
262.082
 21
-49.7347
  0
LINE
  8
0
 10
262.082
 20
-49.7347
 11
261.999
 21
-49.9915
  0
LINE
  8
0
 10
261.999
 20
-49.9915
 11
261.884
 21
-50.2358
  0
LINE
  8
0
 10
261.884
 20
-50.2358
 11
261.739
 21
-50.4637
  0
LINE
  8
0
 10
261.739
 20
-50.4637
 11
261.567
 21
-50.6718
  0
LINE
  8
0
 10
261.567
 20
-50.6718
 11
261.37
 21
-50.8566
  0
LINE
  8
0
 10
261.37
 20
-50.8566
 11
261.152
 21
-51.0153
  0
LINE
  8
0
 10
261.152
 20
-51.0153
 11
260.915
 21
-51.1454
  0
LINE
  8
0
 10
260.915
 20
-51.1454
 11
260.664
 21
-51.2448
  0
LINE
  8
0
 10
260.664
 20
-51.2448
 11
260.403
 21
-51.3119
  0
LINE
  8
0
 10
260.403
 20
-51.3119
 11
260.135
 21
-51.3458
  0
LINE
  8
0
 10
260.135
 20
-51.3458
 11
259.865
 21
-51.3458
  0
LINE
  8
0
 10
101.6
 20
408
 11
-101.6
 21
408
  0
LINE
  8
0
 10
-101.6
 20
408
 11
-101.6
 21
-100
  0
LINE
  8
0
 10
-101.6
 20
-100
 11
101.6
 21
-100
  0
LINE
  8
0
 10
101.6
 20
-100
 11
101.6
 21
408
  0
LINE
  8
0
 10
-50.935
 20
355.054
 11
-51.2029
 21
355.088
  0
LINE
  8
0
 10
-51.2029
 20
355.088
 11
-51.4644
 21
355.155
  0
LINE
  8
0
 10
-51.4644
 20
355.155
 11
-51.7154
 21
355.255
  0
LINE
  8
0
 10
-51.7154
 20
355.255
 11
-51.952
 21
355.385
  0
LINE
  8
0
 10
-51.952
 20
355.385
 11
-52.1705
 21
355.543
  0
LINE
  8
0
 10
-52.1705
 20
355.543
 11
-52.3673
 21
355.728
  0
LINE
  8
0
 10
-52.3673
 20
355.728
 11
-52.5394
 21
355.936
  0
LINE
  8
0
 10
-52.5394
 20
355.936
 11
-52.6841
 21
356.164
  0
LINE
  8
0
 10
-52.6841
 20
356.164
 11
-52.799
 21
356.409
  0
LINE
  8
0
 10
-52.799
 20
356.409
 11
-52.8824
 21
356.665
  0
LINE
  8
0
 10
-52.8824
 20
356.665
 11
-52.933
 21
356.931
  0
LINE
  8
0
 10
-52.933
 20
356.931
 11
-52.95
 21
357.2
  0
LINE
  8
0
 10
-52.95
 20
357.2
 11
-52.933
 21
357.469
  0
LINE
  8
0
 10
-52.933
 20
357.469
 11
-52.8824
 21
357.735
  0
LINE
  8
0
 10
-52.8824
 20
357.735
 11
-52.799
 21
357.991
  0
LINE
  8
0
 10
-52.799
 20
357.991
 11
-52.6841
 21
358.236
  0
LINE
  8
0
 10
-52.6841
 20
358.236
 11
-52.5394
 21
358.464
  0
LINE
  8
0
 10
-52.5394
 20
358.464
 11
-52.3673
 21
358.672
  0
LINE
  8
0
 10
-52.3673
 20
358.672
 11
-52.1705
 21
358.857
  0
LINE
  8
0
 10
-52.1705
 20
358.857
 11
-51.952
 21
359.015
  0
LINE
  8
0
 10
-51.952
 20
359.015
 11
-51.7154
 21
359.145
  0
LINE
  8
0
 10
-51.7154
 20
359.145
 11
-51.4644
 21
359.245
  0
LINE
  8
0
 10
-51.4644
 20
359.245
 11
-51.2029
 21
359.312
  0
LINE
  8
0
 10
-51.2029
 20
359.312
 11
-50.935
 21
359.346
  0
LINE
  8
0
 10
-50.935
 20
359.346
 11
-50.665
 21
359.346
  0
LINE
  8
0
 10
-50.665
 20
359.346
 11
-50.3971
 21
359.312
  0
LINE
  8
0
 10
-50.3971
 20
359.312
 11
-50.1356
 21
359.245
  0
LINE
  8
0
 10
-50.1356
 20
359.245
 11
-49.8846
 21
359.145
  0
LINE
  8
0
 10
-49.8846
 20
359.145
 11
-49.648
 21
359.015
  0
LINE
  8
0
 10
-49.648
 20
359.015
 11
-49.4295
 21
358.857
  0
LINE
  8
0
 10
-49.4295
 20
358.857
 11
-49.2327
 21
358.672
  0
LINE
  8
0
 10
-49.2327
 20
358.672
 11
-49.0606
 21
358.464
  0
LINE
  8
0
 10
-49.0606
 20
358.464
 11
-48.9159
 21
358.236
  0
LINE
  8
0
 10
-48.9159
 20
358.236
 11
-48.801
 21
357.991
  0
LINE
  8
0
 10
-48.801
 20
357.991
 11
-48.7175
 21
357.735
  0
LINE
  8
0
 10
-48.7175
 20
357.735
 11
-48.6669
 21
357.469
  0
LINE
  8
0
 10
-48.6669
 20
357.469
 11
-48.65
 21
357.2
  0
LINE
  8
0
 10
-48.65
 20
357.2
 11
-48.6669
 21
356.931
  0
LINE
  8
0
 10
-48.6669
 20
356.931
 11
-48.7175
 21
356.665
  0
LINE
  8
0
 10
-48.7175
 20
356.665
 11
-48.801
 21
356.409
  0
LINE
  8
0
 10
-48.801
 20
356.409
 11
-48.9159
 21
356.164
  0
LINE
  8
0
 10
-48.9159
 20
356.164
 11
-49.0606
 21
355.936
  0
LINE
  8
0
 10
-49.0606
 20
355.936
 11
-49.2327
 21
355.728
  0
LINE
  8
0
 10
-49.2327
 20
355.728
 11
-49.4295
 21
355.543
  0
LINE
  8
0
 10
-49.4295
 20
355.543
 11
-49.648
 21
355.385
  0
LINE
  8
0
 10
-49.648
 20
355.385
 11
-49.8846
 21
355.255
  0
LINE
  8
0
 10
-49.8846
 20
355.255
 11
-50.1356
 21
355.155
  0
LINE
  8
0
 10
-50.1356
 20
355.155
 11
-50.3971
 21
355.088
  0
LINE
  8
0
 10
-50.3971
 20
355.088
 11
-50.665
 21
355.054
  0
LINE
  8
0
 10
-50.665
 20
355.054
 11
-50.935
 21
355.054
  0
LINE
  8
0
 10
50.665
 20
355.054
 11
50.3971
 21
355.088
  0
LINE
  8
0
 10
50.3971
 20
355.088
 11
50.1356
 21
355.155
  0
LINE
  8
0
 10
50.1356
 20
355.155
 11
49.8846
 21
355.255
  0
LINE
  8
0
 10
49.8846
 20
355.255
 11
49.648
 21
355.385
  0
LINE
  8
0
 10
49.648
 20
355.385
 11
49.4295
 21
355.543
  0
LINE
  8
0
 10
49.4295
 20
355.543
 11
49.2327
 21
355.728
  0
LINE
  8
0
 10
49.2327
 20
355.728
 11
49.0606
 21
355.936
  0
LINE
  8
0
 10
49.0606
 20
355.936
 11
48.9159
 21
356.164
  0
LINE
  8
0
 10
48.9159
 20
356.164
 11
48.801
 21
356.409
  0
LINE
  8
0
 10
48.801
 20
356.409
 11
48.7175
 21
356.665
  0
LINE
  8
0
 10
48.7175
 20
356.665
 11
48.6669
 21
356.931
  0
LINE
  8
0
 10
48.6669
 20
356.931
 11
48.65
 21
357.2
  0
LINE
  8
0
 10
48.65
 20
357.2
 11
48.6669
 21
357.469
  0
LINE
  8
0
 10
48.6669
 20
357.469
 11
48.7175
 21
357.735
  0
LINE
  8
0
 10
48.7175
 20
357.735
 11
48.801
 21
357.991
  0
LINE
  8
0
 10
48.801
 20
357.991
 11
48.9159
 21
358.236
  0
LINE
  8
0
 10
48.9159
 20
358.236
 11
49.0606
 21
358.464
  0
LINE
  8
0
 10
49.0606
 20
358.464
 11
49.2327
 21
358.672
  0
LINE
  8
0
 10
49.2327
 20
358.672
 11
49.4295
 21
358.857
  0
LINE
  8
0
 10
49.4295
 20
358.857
 11
49.648
 21
359.015
  0
LINE
  8
0
 10
49.648
 20
359.015
 11
49.8846
 21
359.145
  0
LINE
  8
0
 10
49.8846
 20
359.145
 11
50.1356
 21
359.245
  0
LINE
  8
0
 10
50.1356
 20
359.245
 11
50.3971
 21
359.312
  0
LINE
  8
0
 10
50.3971
 20
359.312
 11
50.665
 21
359.346
  0
LINE
  8
0
 10
50.665
 20
359.346
 11
50.935
 21
359.346
  0
LINE
  8
0
 10
50.935
 20
359.346
 11
51.2029
 21
359.312
  0
LINE
  8
0
 10
51.2029
 20
359.312
 11
51.4644
 21
359.245
  0
LINE
  8
0
 10
51.4644
 20
359.245
 11
51.7154
 21
359.145
  0
LINE
  8
0
 10
51.7154
 20
359.145
 11
51.952
 21
359.015
  0
LINE
  8
0
 10
51.952
 20
359.015
 11
52.1705
 21
358.857
  0
LINE
  8
0
 10
52.1705
 20
358.857
 11
52.3673
 21
358.672
  0
LINE
  8
0
 10
52.3673
 20
358.672
 11
52.5394
 21
358.464
  0
LINE
  8
0
 10
52.5394
 20
358.464
 11
52.6841
 21
358.236
  0
LINE
  8
0
 10
52.6841
 20
358.236
 11
52.799
 21
357.991
  0
LINE
  8
0
 10
52.799
 20
357.991
 11
52.8824
 21
357.735
  0
LINE
  8
0
 10
52.8824
 20
357.735
 11
52.933
 21
357.469
  0
LINE
  8
0
 10
52.933
 20
357.469
 11
52.95
 21
357.2
  0
LINE
  8
0
 10
52.95
 20
357.2
 11
52.933
 21
356.931
  0
LINE
  8
0
 10
52.933
 20
356.931
 11
52.8824
 21
356.665
  0
LINE
  8
0
 10
52.8824
 20
356.665
 11
52.799
 21
356.409
  0
LINE
  8
0
 10
52.799
 20
356.409
 11
52.6841
 21
356.164
  0
LINE
  8
0
 10
52.6841
 20
356.164
 11
52.5394
 21
355.936
  0
LINE
  8
0
 10
52.5394
 20
355.936
 11
52.3673
 21
355.728
  0
LINE
  8
0
 10
52.3673
 20
355.728
 11
52.1705
 21
355.543
  0
LINE
  8
0
 10
52.1705
 20
355.543
 11
51.952
 21
355.385
  0
LINE
  8
0
 10
51.952
 20
355.385
 11
51.7154
 21
355.255
  0
LINE
  8
0
 10
51.7154
 20
355.255
 11
51.4644
 21
355.155
  0
LINE
  8
0
 10
51.4644
 20
355.155
 11
51.2029
 21
355.088
  0
LINE
  8
0
 10
51.2029
 20
355.088
 11
50.935
 21
355.054
  0
LINE
  8
0
 10
50.935
 20
355.054
 11
50.665
 21
355.054
  0
LINE
  8
0
 10
-57.7695
 20
55.3669
 11
-58.0347
 21
55.4175
  0
LINE
  8
0
 10
-58.0347
 20
55.4175
 11
-58.2915
 21
55.501
  0
LINE
  8
0
 10
-58.2915
 20
55.501
 11
-58.5358
 21
55.6159
  0
LINE
  8
0
 10
-58.5358
 20
55.6159
 11
-58.7637
 21
55.7606
  0
LINE
  8
0
 10
-58.7637
 20
55.7606
 11
-58.9718
 21
55.9327
  0
LINE
  8
0
 10
-58.9718
 20
55.9327
 11
-59.1566
 21
56.1295
  0
LINE
  8
0
 10
-59.1566
 20
56.1295
 11
-59.3153
 21
56.348
  0
LINE
  8
0
 10
-59.3153
 20
56.348
 11
-59.4454
 21
56.5846
  0
LINE
  8
0
 10
-59.4454
 20
56.5846
 11
-59.5448
 21
56.8356
  0
LINE
  8
0
 10
-59.5448
 20
56.8356
 11
-59.6119
 21
57.0971
  0
LINE
  8
0
 10
-59.6119
 20
57.0971
 11
-59.6458
 21
57.365
  0
LINE
  8
0
 10
-59.6458
 20
57.365
 11
-59.6458
 21
57.635
  0
LINE
  8
0
 10
-59.6458
 20
57.635
 11
-59.6119
 21
57.9029
  0
LINE
  8
0
 10
-59.6119
 20
57.9029
 11
-59.5448
 21
58.1644
  0
LINE
  8
0
 10
-59.5448
 20
58.1644
 11
-59.4454
 21
58.4154
  0
LINE
  8
0
 10
-59.4454
 20
58.4154
 11
-59.3153
 21
58.652
  0
LINE
  8
0
 10
-59.3153
 20
58.652
 11
-59.1566
 21
58.8705
  0
LINE
  8
0
 10
-59.1566
 20
58.8705
 11
-58.9718
 21
59.0673
  0
LINE
  8
0
 10
-58.9718
 20
59.0673
 11
-58.7637
 21
59.2394
  0
LINE
  8
0
 10
-58.7637
 20
59.2394
 11
-58.5358
 21
59.384
  0
LINE
  8
0
 10
-58.5358
 20
59.384
 11
-58.2915
 21
59.499
  0
LINE
  8
0
 10
-58.2915
 20
59.499
 11
-58.0347
 21
59.5824
  0
LINE
  8
0
 10
-58.0347
 20
59.5824
 11
-57.7695
 21
59.633
  0
LINE
  8
0
 10
-57.7695
 20
59.633
 11
-57.5
 21
59.65
  0
LINE
  8
0
 10
-57.5
 20
59.65
 11
-57.2305
 21
59.633
  0
LINE
  8
0
 10
-57.2305
 20
59.633
 11
-56.9653
 21
59.5824
  0
LINE
  8
0
 10
-56.9653
 20
59.5824
 11
-56.7085
 21
59.499
  0
LINE
  8
0
 10
-56.7085
 20
59.499
 11
-56.4642
 21
59.384
  0
LINE
  8
0
 10
-56.4642
 20
59.384
 11
-56.2363
 21
59.2394
  0
LINE
  8
0
 10
-56.2363
 20
59.2394
 11
-56.0282
 21
59.0673
  0
LINE
  8
0
 10
-56.0282
 20
59.0673
 11
-55.8434
 21
58.8705
  0
LINE
  8
0
 10
-55.8434
 20
58.8705
 11
-55.6847
 21
58.652
  0
LINE
  8
0
 10
-55.6847
 20
58.652
 11
-55.5546
 21
58.4154
  0
LINE
  8
0
 10
-55.5546
 20
58.4154
 11
-55.4552
 21
58.1644
  0
LINE
  8
0
 10
-55.4552
 20
58.1644
 11
-55.3881
 21
57.9029
  0
LINE
  8
0
 10
-55.3881
 20
57.9029
 11
-55.3542
 21
57.635
  0
LINE
  8
0
 10
-55.3542
 20
57.635
 11
-55.3542
 21
57.365
  0
LINE
  8
0
 10
-55.3542
 20
57.365
 11
-55.3881
 21
57.0971
  0
LINE
  8
0
 10
-55.3881
 20
57.0971
 11
-55.4552
 21
56.8356
  0
LINE
  8
0
 10
-55.4552
 20
56.8356
 11
-55.5546
 21
56.5846
  0
LINE
  8
0
 10
-55.5546
 20
56.5846
 11
-55.6847
 21
56.348
  0
LINE
  8
0
 10
-55.6847
 20
56.348
 11
-55.8434
 21
56.1295
  0
LINE
  8
0
 10
-55.8434
 20
56.1295
 11
-56.0282
 21
55.9327
  0
LINE
  8
0
 10
-56.0282
 20
55.9327
 11
-56.2363
 21
55.7606
  0
LINE
  8
0
 10
-56.2363
 20
55.7606
 11
-56.4642
 21
55.6159
  0
LINE
  8
0
 10
-56.4642
 20
55.6159
 11
-56.7085
 21
55.501
  0
LINE
  8
0
 10
-56.7085
 20
55.501
 11
-56.9653
 21
55.4175
  0
LINE
  8
0
 10
-56.9653
 20
55.4175
 11
-57.2305
 21
55.3669
  0
LINE
  8
0
 10
-57.2305
 20
55.3669
 11
-57.5
 21
55.35
  0
LINE
  8
0
 10
-57.5
 20
55.35
 11
-57.7695
 21
55.3669
  0
LINE
  8
0
 10
57.365
 20
55.3542
 11
57.0971
 21
55.3881
  0
LINE
  8
0
 10
57.0971
 20
55.3881
 11
56.8356
 21
55.4552
  0
LINE
  8
0
 10
56.8356
 20
55.4552
 11
56.5846
 21
55.5546
  0
LINE
  8
0
 10
56.5846
 20
55.5546
 11
56.348
 21
55.6847
  0
LINE
  8
0
 10
56.348
 20
55.6847
 11
56.1295
 21
55.8434
  0
LINE
  8
0
 10
56.1295
 20
55.8434
 11
55.9327
 21
56.0282
  0
LINE
  8
0
 10
55.9327
 20
56.0282
 11
55.7606
 21
56.2363
  0
LINE
  8
0
 10
55.7606
 20
56.2363
 11
55.6159
 21
56.4642
  0
LINE
  8
0
 10
55.6159
 20
56.4642
 11
55.501
 21
56.7085
  0
LINE
  8
0
 10
55.501
 20
56.7085
 11
55.4175
 21
56.9653
  0
LINE
  8
0
 10
55.4175
 20
56.9653
 11
55.3669
 21
57.2305
  0
LINE
  8
0
 10
55.3669
 20
57.2305
 11
55.35
 21
57.5
  0
LINE
  8
0
 10
55.35
 20
57.5
 11
55.3669
 21
57.7695
  0
LINE
  8
0
 10
55.3669
 20
57.7695
 11
55.4175
 21
58.0347
  0
LINE
  8
0
 10
55.4175
 20
58.0347
 11
55.501
 21
58.2915
  0
LINE
  8
0
 10
55.501
 20
58.2915
 11
55.6159
 21
58.5358
  0
LINE
  8
0
 10
55.6159
 20
58.5358
 11
55.7606
 21
58.7637
  0
LINE
  8
0
 10
55.7606
 20
58.7637
 11
55.9327
 21
58.9718
  0
LINE
  8
0
 10
55.9327
 20
58.9718
 11
56.1295
 21
59.1566
  0
LINE
  8
0
 10
56.1295
 20
59.1566
 11
56.348
 21
59.3153
  0
LINE
  8
0
 10
56.348
 20
59.3153
 11
56.5846
 21
59.4454
  0
LINE
  8
0
 10
56.5846
 20
59.4454
 11
56.8356
 21
59.5448
  0
LINE
  8
0
 10
56.8356
 20
59.5448
 11
57.0971
 21
59.6119
  0
LINE
  8
0
 10
57.0971
 20
59.6119
 11
57.365
 21
59.6458
  0
LINE
  8
0
 10
57.365
 20
59.6458
 11
57.635
 21
59.6458
  0
LINE
  8
0
 10
57.635
 20
59.6458
 11
57.9029
 21
59.6119
  0
LINE
  8
0
 10
57.9029
 20
59.6119
 11
58.1644
 21
59.5448
  0
LINE
  8
0
 10
58.1644
 20
59.5448
 11
58.4154
 21
59.4454
  0
LINE
  8
0
 10
58.4154
 20
59.4454
 11
58.652
 21
59.3153
  0
LINE
  8
0
 10
58.652
 20
59.3153
 11
58.8705
 21
59.1566
  0
LINE
  8
0
 10
58.8705
 20
59.1566
 11
59.0673
 21
58.9718
  0
LINE
  8
0
 10
59.0673
 20
58.9718
 11
59.2394
 21
58.7637
  0
LINE
  8
0
 10
59.2394
 20
58.7637
 11
59.384
 21
58.5358
  0
LINE
  8
0
 10
59.384
 20
58.5358
 11
59.499
 21
58.2915
  0
LINE
  8
0
 10
59.499
 20
58.2915
 11
59.5824
 21
58.0347
  0
LINE
  8
0
 10
59.5824
 20
58.0347
 11
59.633
 21
57.7695
  0
LINE
  8
0
 10
59.633
 20
57.7695
 11
59.65
 21
57.5
  0
LINE
  8
0
 10
59.65
 20
57.5
 11
59.633
 21
57.2305
  0
LINE
  8
0
 10
59.633
 20
57.2305
 11
59.5824
 21
56.9653
  0
LINE
  8
0
 10
59.5824
 20
56.9653
 11
59.499
 21
56.7085
  0
LINE
  8
0
 10
59.499
 20
56.7085
 11
59.384
 21
56.4642
  0
LINE
  8
0
 10
59.384
 20
56.4642
 11
59.2394
 21
56.2363
  0
LINE
  8
0
 10
59.2394
 20
56.2363
 11
59.0673
 21
56.0282
  0
LINE
  8
0
 10
59.0673
 20
56.0282
 11
58.8705
 21
55.8434
  0
LINE
  8
0
 10
58.8705
 20
55.8434
 11
58.652
 21
55.6847
  0
LINE
  8
0
 10
58.652
 20
55.6847
 11
58.4154
 21
55.5546
  0
LINE
  8
0
 10
58.4154
 20
55.5546
 11
58.1644
 21
55.4552
  0
LINE
  8
0
 10
58.1644
 20
55.4552
 11
57.9029
 21
55.3881
  0
LINE
  8
0
 10
57.9029
 20
55.3881
 11
57.635
 21
55.3542
  0
LINE
  8
0
 10
57.635
 20
55.3542
 11
57.365
 21
55.3542
  0
LINE
  8
0
 10
-3.51627
 20
-55.8895
 11
-10.4933
 21
-55.0081
  0
LINE
  8
0
 10
-10.4933
 20
-55.0081
 11
-17.3049
 21
-53.2592
  0
LINE
  8
0
 10
-17.3049
 20
-53.2592
 11
-23.8436
 21
-50.6703
  0
LINE
  8
0
 10
-23.8436
 20
-50.6703
 11
-30.0063
 21
-47.2823
  0
LINE
  8
0
 10
-30.0063
 20
-47.2823
 11
-35.6957
 21
-43.1487
  0
LINE
  8
0
 10
-35.6957
 20
-43.1487
 11
-40.8222
 21
-38.3346
  0
LINE
  8
0
 10
-40.8222
 20
-38.3346
 11
-45.3049
 21
-32.916
  0
LINE
  8
0
 10
-45.3049
 20
-32.916
 11
-49.0732
 21
-26.9782
  0
LINE
  8
0
 10
-49.0732
 20
-26.9782
 11
-52.0675
 21
-20.615
  0
LINE
  8
0
 10
-52.0675
 20
-20.615
 11
-54.2406
 21
-13.9266
  0
LINE
  8
0
 10
-54.2406
 20
-13.9266
 11
-55.5584
 21
-7.01865
  0
LINE
  8
0
 10
-55.5584
 20
-7.01865
 11
-56
 21
0
  0
LINE
  8
0
 10
-56
 20
0
 11
-55.5584
 21
7.01865
  0
LINE
  8
0
 10
-55.5584
 20
7.01865
 11
-54.2406
 21
13.9266
  0
LINE
  8
0
 10
-54.2406
 20
13.9266
 11
-52.0675
 21
20.615
  0
LINE
  8
0
 10
-52.0675
 20
20.615
 11
-49.0732
 21
26.9782
  0
LINE
  8
0
 10
-49.0732
 20
26.9782
 11
-45.3049
 21
32.916
  0
LINE
  8
0
 10
-45.3049
 20
32.916
 11
-40.8222
 21
38.3346
  0
LINE
  8
0
 10
-40.8222
 20
38.3346
 11
-35.6957
 21
43.1487
  0
LINE
  8
0
 10
-35.6957
 20
43.1487
 11
-30.0063
 21
47.2823
  0
LINE
  8
0
 10
-30.0063
 20
47.2823
 11
-23.8436
 21
50.6703
  0
LINE
  8
0
 10
-23.8436
 20
50.6703
 11
-17.3049
 21
53.2592
  0
LINE
  8
0
 10
-17.3049
 20
53.2592
 11
-10.4933
 21
55.0081
  0
LINE
  8
0
 10
-10.4933
 20
55.0081
 11
-3.51627
 21
55.8895
  0
LINE
  8
0
 10
-3.51627
 20
55.8895
 11
3.51627
 21
55.8895
  0
LINE
  8
0
 10
3.51627
 20
55.8895
 11
10.4933
 21
55.0081
  0
LINE
  8
0
 10
10.4933
 20
55.0081
 11
17.3049
 21
53.2592
  0
LINE
  8
0
 10
17.3049
 20
53.2592
 11
23.8436
 21
50.6703
  0
LINE
  8
0
 10
23.8436
 20
50.6703
 11
30.0063
 21
47.2823
  0
LINE
  8
0
 10
30.0063
 20
47.2823
 11
35.6957
 21
43.1487
  0
LINE
  8
0
 10
35.6957
 20
43.1487
 11
40.8222
 21
38.3346
  0
LINE
  8
0
 10
40.8222
 20
38.3346
 11
45.3049
 21
32.916
  0
LINE
  8
0
 10
45.3049
 20
32.916
 11
49.0732
 21
26.9782
  0
LINE
  8
0
 10
49.0732
 20
26.9782
 11
52.0675
 21
20.615
  0
LINE
  8
0
 10
52.0675
 20
20.615
 11
54.2406
 21
13.9266
  0
LINE
  8
0
 10
54.2406
 20
13.9266
 11
55.5584
 21
7.01865
  0
LINE
  8
0
 10
55.5584
 20
7.01865
 11
56
 21
0
  0
LINE
  8
0
 10
56
 20
0
 11
55.5584
 21
-7.01865
  0
LINE
  8
0
 10
55.5584
 20
-7.01865
 11
54.2406
 21
-13.9266
  0
LINE
  8
0
 10
54.2406
 20
-13.9266
 11
52.0675
 21
-20.615
  0
LINE
  8
0
 10
52.0675
 20
-20.615
 11
49.0732
 21
-26.9782
  0
LINE
  8
0
 10
49.0732
 20
-26.9782
 11
45.3049
 21
-32.916
  0
LINE
  8
0
 10
45.3049
 20
-32.916
 11
40.8222
 21
-38.3346
  0
LINE
  8
0
 10
40.8222
 20
-38.3346
 11
35.6957
 21
-43.1487
  0
LINE
  8
0
 10
35.6957
 20
-43.1487
 11
30.0063
 21
-47.2823
  0
LINE
  8
0
 10
30.0063
 20
-47.2823
 11
23.8436
 21
-50.6703
  0
LINE
  8
0
 10
23.8436
 20
-50.6703
 11
17.3049
 21
-53.2592
  0
LINE
  8
0
 10
17.3049
 20
-53.2592
 11
10.4933
 21
-55.0081
  0
LINE
  8
0
 10
10.4933
 20
-55.0081
 11
3.51627
 21
-55.8895
  0
LINE
  8
0
 10
3.51627
 20
-55.8895
 11
-3.51627
 21
-55.8895
  0
LINE
  8
0
 10
57.2305
 20
-59.633
 11
56.9653
 21
-59.5824
  0
LINE
  8
0
 10
56.9653
 20
-59.5824
 11
56.7085
 21
-59.499
  0
LINE
  8
0
 10
56.7085
 20
-59.499
 11
56.4642
 21
-59.384
  0
LINE
  8
0
 10
56.4642
 20
-59.384
 11
56.2363
 21
-59.2394
  0
LINE
  8
0
 10
56.2363
 20
-59.2394
 11
56.0282
 21
-59.0673
  0
LINE
  8
0
 10
56.0282
 20
-59.0673
 11
55.8434
 21
-58.8705
  0
LINE
  8
0
 10
55.8434
 20
-58.8705
 11
55.6847
 21
-58.652
  0
LINE
  8
0
 10
55.6847
 20
-58.652
 11
55.5546
 21
-58.4154
  0
LINE
  8
0
 10
55.5546
 20
-58.4154
 11
55.4552
 21
-58.1644
  0
LINE
  8
0
 10
55.4552
 20
-58.1644
 11
55.3881
 21
-57.9029
  0
LINE
  8
0
 10
55.3881
 20
-57.9029
 11
55.3542
 21
-57.635
  0
LINE
  8
0
 10
55.3542
 20
-57.635
 11
55.3542
 21
-57.365
  0
LINE
  8
0
 10
55.3542
 20
-57.365
 11
55.3881
 21
-57.0971
  0
LINE
  8
0
 10
55.3881
 20
-57.0971
 11
55.4552
 21
-56.8356
  0
LINE
  8
0
 10
55.4552
 20
-56.8356
 11
55.5546
 21
-56.5846
  0
LINE
  8
0
 10
55.5546
 20
-56.5846
 11
55.6847
 21
-56.348
  0
LINE
  8
0
 10
55.6847
 20
-56.348
 11
55.8434
 21
-56.1295
  0
LINE
  8
0
 10
55.8434
 20
-56.1295
 11
56.0282
 21
-55.9327
  0
LINE
  8
0
 10
56.0282
 20
-55.9327
 11
56.2363
 21
-55.7606
  0
LINE
  8
0
 10
56.2363
 20
-55.7606
 11
56.4642
 21
-55.6159
  0
LINE
  8
0
 10
56.4642
 20
-55.6159
 11
56.7085
 21
-55.501
  0
LINE
  8
0
 10
56.7085
 20
-55.501
 11
56.9653
 21
-55.4175
  0
LINE
  8
0
 10
56.9653
 20
-55.4175
 11
57.2305
 21
-55.3669
  0
LINE
  8
0
 10
57.2305
 20
-55.3669
 11
57.5
 21
-55.35
  0
LINE
  8
0
 10
57.5
 20
-55.35
 11
57.7695
 21
-55.3669
  0
LINE
  8
0
 10
57.7695
 20
-55.3669
 11
58.0347
 21
-55.4175
  0
LINE
  8
0
 10
58.0347
 20
-55.4175
 11
58.2915
 21
-55.501
  0
LINE
  8
0
 10
58.2915
 20
-55.501
 11
58.5358
 21
-55.6159
  0
LINE
  8
0
 10
58.5358
 20
-55.6159
 11
58.7637
 21
-55.7606
  0
LINE
  8
0
 10
58.7637
 20
-55.7606
 11
58.9718
 21
-55.9327
  0
LINE
  8
0
 10
58.9718
 20
-55.9327
 11
59.1566
 21
-56.1295
  0
LINE
  8
0
 10
59.1566
 20
-56.1295
 11
59.3153
 21
-56.348
  0
LINE
  8
0
 10
59.3153
 20
-56.348
 11
59.4454
 21
-56.5846
  0
LINE
  8
0
 10
59.4454
 20
-56.5846
 11
59.5448
 21
-56.8356
  0
LINE
  8
0
 10
59.5448
 20
-56.8356
 11
59.6119
 21
-57.0971
  0
LINE
  8
0
 10
59.6119
 20
-57.0971
 11
59.6458
 21
-57.365
  0
LINE
  8
0
 10
59.6458
 20
-57.365
 11
59.6458
 21
-57.635
  0
LINE
  8
0
 10
59.6458
 20
-57.635
 11
59.6119
 21
-57.9029
  0
LINE
  8
0
 10
59.6119
 20
-57.9029
 11
59.5448
 21
-58.1644
  0
LINE
  8
0
 10
59.5448
 20
-58.1644
 11
59.4454
 21
-58.4154
  0
LINE
  8
0
 10
59.4454
 20
-58.4154
 11
59.3153
 21
-58.652
  0
LINE
  8
0
 10
59.3153
 20
-58.652
 11
59.1566
 21
-58.8705
  0
LINE
  8
0
 10
59.1566
 20
-58.8705
 11
58.9718
 21
-59.0673
  0
LINE
  8
0
 10
58.9718
 20
-59.0673
 11
58.7637
 21
-59.2394
  0
LINE
  8
0
 10
58.7637
 20
-59.2394
 11
58.5358
 21
-59.384
  0
LINE
  8
0
 10
58.5358
 20
-59.384
 11
58.2915
 21
-59.499
  0
LINE
  8
0
 10
58.2915
 20
-59.499
 11
58.0347
 21
-59.5824
  0
LINE
  8
0
 10
58.0347
 20
-59.5824
 11
57.7695
 21
-59.633
  0
LINE
  8
0
 10
57.7695
 20
-59.633
 11
57.5
 21
-59.65
  0
LINE
  8
0
 10
57.5
 20
-59.65
 11
57.2305
 21
-59.633
  0
LINE
  8
0
 10
-57.635
 20
-59.6458
 11
-57.9029
 21
-59.6119
  0
LINE
  8
0
 10
-57.9029
 20
-59.6119
 11
-58.1644
 21
-59.5448
  0
LINE
  8
0
 10
-58.1644
 20
-59.5448
 11
-58.4154
 21
-59.4454
  0
LINE
  8
0
 10
-58.4154
 20
-59.4454
 11
-58.652
 21
-59.3153
  0
LINE
  8
0
 10
-58.652
 20
-59.3153
 11
-58.8705
 21
-59.1566
  0
LINE
  8
0
 10
-58.8705
 20
-59.1566
 11
-59.0673
 21
-58.9718
  0
LINE
  8
0
 10
-59.0673
 20
-58.9718
 11
-59.2394
 21
-58.7637
  0
LINE
  8
0
 10
-59.2394
 20
-58.7637
 11
-59.384
 21
-58.5358
  0
LINE
  8
0
 10
-59.384
 20
-58.5358
 11
-59.499
 21
-58.2915
  0
LINE
  8
0
 10
-59.499
 20
-58.2915
 11
-59.5824
 21
-58.0347
  0
LINE
  8
0
 10
-59.5824
 20
-58.0347
 11
-59.633
 21
-57.7695
  0
LINE
  8
0
 10
-59.633
 20
-57.7695
 11
-59.65
 21
-57.5
  0
LINE
  8
0
 10
-59.65
 20
-57.5
 11
-59.633
 21
-57.2305
  0
LINE
  8
0
 10
-59.633
 20
-57.2305
 11
-59.5824
 21
-56.9653
  0
LINE
  8
0
 10
-59.5824
 20
-56.9653
 11
-59.499
 21
-56.7085
  0
LINE
  8
0
 10
-59.499
 20
-56.7085
 11
-59.384
 21
-56.4642
  0
LINE
  8
0
 10
-59.384
 20
-56.4642
 11
-59.2394
 21
-56.2363
  0
LINE
  8
0
 10
-59.2394
 20
-56.2363
 11
-59.0673
 21
-56.0282
  0
LINE
  8
0
 10
-59.0673
 20
-56.0282
 11
-58.8705
 21
-55.8434
  0
LINE
  8
0
 10
-58.8705
 20
-55.8434
 11
-58.652
 21
-55.6847
  0
LINE
  8
0
 10
-58.652
 20
-55.6847
 11
-58.4154
 21
-55.5546
  0
LINE
  8
0
 10
-58.4154
 20
-55.5546
 11
-58.1644
 21
-55.4552
  0
LINE
  8
0
 10
-58.1644
 20
-55.4552
 11
-57.9029
 21
-55.3881
  0
LINE
  8
0
 10
-57.9029
 20
-55.3881
 11
-57.635
 21
-55.3542
  0
LINE
  8
0
 10
-57.635
 20
-55.3542
 11
-57.365
 21
-55.3542
  0
LINE
  8
0
 10
-57.365
 20
-55.3542
 11
-57.0971
 21
-55.3881
  0
LINE
  8
0
 10
-57.0971
 20
-55.3881
 11
-56.8356
 21
-55.4552
  0
LINE
  8
0
 10
-56.8356
 20
-55.4552
 11
-56.5846
 21
-55.5546
  0
LINE
  8
0
 10
-56.5846
 20
-55.5546
 11
-56.348
 21
-55.6847
  0
LINE
  8
0
 10
-56.348
 20
-55.6847
 11
-56.1295
 21
-55.8434
  0
LINE
  8
0
 10
-56.1295
 20
-55.8434
 11
-55.9327
 21
-56.0282
  0
LINE
  8
0
 10
-55.9327
 20
-56.0282
 11
-55.7606
 21
-56.2363
  0
LINE
  8
0
 10
-55.7606
 20
-56.2363
 11
-55.6159
 21
-56.4642
  0
LINE
  8
0
 10
-55.6159
 20
-56.4642
 11
-55.501
 21
-56.7085
  0
LINE
  8
0
 10
-55.501
 20
-56.7085
 11
-55.4175
 21
-56.9653
  0
LINE
  8
0
 10
-55.4175
 20
-56.9653
 11
-55.3669
 21
-57.2305
  0
LINE
  8
0
 10
-55.3669
 20
-57.2305
 11
-55.35
 21
-57.5
  0
LINE
  8
0
 10
-55.35
 20
-57.5
 11
-55.3669
 21
-57.7695
  0
LINE
  8
0
 10
-55.3669
 20
-57.7695
 11
-55.4175
 21
-58.0347
  0
LINE
  8
0
 10
-55.4175
 20
-58.0347
 11
-55.501
 21
-58.2915
  0
LINE
  8
0
 10
-55.501
 20
-58.2915
 11
-55.6159
 21
-58.5358
  0
LINE
  8
0
 10
-55.6159
 20
-58.5358
 11
-55.7606
 21
-58.7637
  0
LINE
  8
0
 10
-55.7606
 20
-58.7637
 11
-55.9327
 21
-58.9718
  0
LINE
  8
0
 10
-55.9327
 20
-58.9718
 11
-56.1295
 21
-59.1566
  0
LINE
  8
0
 10
-56.1295
 20
-59.1566
 11
-56.348
 21
-59.3153
  0
LINE
  8
0
 10
-56.348
 20
-59.3153
 11
-56.5846
 21
-59.4454
  0
LINE
  8
0
 10
-56.5846
 20
-59.4454
 11
-56.8356
 21
-59.5448
  0
LINE
  8
0
 10
-56.8356
 20
-59.5448
 11
-57.0971
 21
-59.6119
  0
LINE
  8
0
 10
-57.0971
 20
-59.6119
 11
-57.365
 21
-59.6458
  0
LINE
  8
0
 10
-57.365
 20
-59.6458
 11
-57.635
 21
-59.6458
  0
LINE
  8
0
 10
52.3917
 20
-132.9
 11
53.9583
 21
-132.601
  0
LINE
  8
0
 10
53.9583
 20
-132.601
 11
55.4752
 21
-132.108
  0
LINE
  8
0
 10
55.4752
 20
-132.108
 11
56.9183
 21
-131.429
  0
LINE
  8
0
 10
56.9183
 20
-131.429
 11
58.2649
 21
-130.574
  0
LINE
  8
0
 10
58.2649
 20
-130.574
 11
59.4937
 21
-129.558
  0
LINE
  8
0
 10
59.4937
 20
-129.558
 11
60.5855
 21
-128.395
  0
LINE
  8
0
 10
60.5855
 20
-128.395
 11
61.5229
 21
-127.105
  0
LINE
  8
0
 10
61.5229
 20
-127.105
 11
62.2913
 21
-125.707
  0
LINE
  8
0
 10
62.2913
 20
-125.707
 11
62.8784
 21
-124.225
  0
LINE
  8
0
 10
62.8784
 20
-124.225
 11
63.275
 21
-122.68
  0
LINE
  8
0
 10
63.275
 20
-122.68
 11
63.4749
 21
-121.097
  0
LINE
  8
0
 10
63.4749
 20
-121.097
 11
63.4749
 21
-119.503
  0
LINE
  8
0
 10
63.4749
 20
-119.503
 11
63.275
 21
-117.92
  0
LINE
  8
0
 10
63.275
 20
-117.92
 11
62.8784
 21
-116.375
  0
LINE
  8
0
 10
62.8784
 20
-116.375
 11
62.2913
 21
-114.893
  0
LINE
  8
0
 10
62.2913
 20
-114.893
 11
61.5229
 21
-113.495
  0
LINE
  8
0
 10
61.5229
 20
-113.495
 11
60.5855
 21
-112.205
  0
LINE
  8
0
 10
60.5855
 20
-112.205
 11
59.4937
 21
-111.042
  0
LINE
  8
0
 10
59.4937
 20
-111.042
 11
58.2649
 21
-110.025
  0
LINE
  8
0
 10
58.2649
 20
-110.025
 11
56.9183
 21
-109.171
  0
LINE
  8
0
 10
56.9183
 20
-109.171
 11
55.4752
 21
-108.492
  0
LINE
  8
0
 10
55.4752
 20
-108.492
 11
53.9583
 21
-107.999
  0
LINE
  8
0
 10
53.9583
 20
-107.999
 11
52.3917
 21
-107.7
  0
LINE
  8
0
 10
52.3917
 20
-107.7
 11
50.8
 21
-107.6
  0
LINE
  8
0
 10
50.8
 20
-107.6
 11
-50.8
 21
-107.6
  0
LINE
  8
0
 10
-50.8
 20
-107.6
 11
-52.3917
 21
-107.7
  0
LINE
  8
0
 10
-52.3917
 20
-107.7
 11
-53.9583
 21
-107.999
  0
LINE
  8
0
 10
-53.9583
 20
-107.999
 11
-55.4752
 21
-108.492
  0
LINE
  8
0
 10
-55.4752
 20
-108.492
 11
-56.9183
 21
-109.171
  0
LINE
  8
0
 10
-56.9183
 20
-109.171
 11
-58.2648
 21
-110.025
  0
LINE
  8
0
 10
-58.2648
 20
-110.025
 11
-59.4937
 21
-111.042
  0
LINE
  8
0
 10
-59.4937
 20
-111.042
 11
-60.5855
 21
-112.205
  0
LINE
  8
0
 10
-60.5855
 20
-112.205
 11
-61.5229
 21
-113.495
  0
LINE
  8
0
 10
-61.5229
 20
-113.495
 11
-62.2913
 21
-114.893
  0
LINE
  8
0
 10
-62.2913
 20
-114.893
 11
-62.8784
 21
-116.375
  0
LINE
  8
0
 10
-62.8784
 20
-116.375
 11
-63.275
 21
-117.92
  0
LINE
  8
0
 10
-63.275
 20
-117.92
 11
-63.4749
 21
-119.503
  0
LINE
  8
0
 10
-63.4749
 20
-119.503
 11
-63.4749
 21
-121.097
  0
LINE
  8
0
 10
-63.4749
 20
-121.097
 11
-63.275
 21
-122.68
  0
LINE
  8
0
 10
-63.275
 20
-122.68
 11
-62.8784
 21
-124.225
  0
LINE
  8
0
 10
-62.8784
 20
-124.225
 11
-62.2913
 21
-125.707
  0
LINE
  8
0
 10
-62.2913
 20
-125.707
 11
-61.5229
 21
-127.105
  0
LINE
  8
0
 10
-61.5229
 20
-127.105
 11
-60.5855
 21
-128.395
  0
LINE
  8
0
 10
-60.5855
 20
-128.395
 11
-59.4937
 21
-129.558
  0
LINE
  8
0
 10
-59.4937
 20
-129.558
 11
-58.2648
 21
-130.574
  0
LINE
  8
0
 10
-58.2648
 20
-130.574
 11
-56.9183
 21
-131.429
  0
LINE
  8
0
 10
-56.9183
 20
-131.429
 11
-55.4752
 21
-132.108
  0
LINE
  8
0
 10
-55.4752
 20
-132.108
 11
-53.9583
 21
-132.601
  0
LINE
  8
0
 10
-53.9583
 20
-132.601
 11
-52.3917
 21
-132.9
  0
LINE
  8
0
 10
-52.3917
 20
-132.9
 11
-50.8
 21
-133
  0
LINE
  8
0
 10
-50.8
 20
-133
 11
50.8
 21
-133
  0
LINE
  8
0
 10
50.8
 20
-133
 11
52.3917
 21
-132.9
  0
LINE
  8
0
 10
50.5305
 20
-122.433
 11
50.2653
 21
-122.382
  0
LINE
  8
0
 10
50.2653
 20
-122.382
 11
50.0085
 21
-122.299
  0
LINE
  8
0
 10
50.0085
 20
-122.299
 11
49.7642
 21
-122.184
  0
LINE
  8
0
 10
49.7642
 20
-122.184
 11
49.5363
 21
-122.039
  0
LINE
  8
0
 10
49.5363
 20
-122.039
 11
49.3282
 21
-121.867
  0
LINE
  8
0
 10
49.3282
 20
-121.867
 11
49.1434
 21
-121.67
  0
LINE
  8
0
 10
49.1434
 20
-121.67
 11
48.9847
 21
-121.452
  0
LINE
  8
0
 10
48.9847
 20
-121.452
 11
48.8546
 21
-121.215
  0
LINE
  8
0
 10
48.8546
 20
-121.215
 11
48.7552
 21
-120.964
  0
LINE
  8
0
 10
48.7552
 20
-120.964
 11
48.6881
 21
-120.703
  0
LINE
  8
0
 10
48.6881
 20
-120.703
 11
48.6542
 21
-120.435
  0
LINE
  8
0
 10
48.6542
 20
-120.435
 11
48.6542
 21
-120.165
  0
LINE
  8
0
 10
48.6542
 20
-120.165
 11
48.6881
 21
-119.897
  0
LINE
  8
0
 10
48.6881
 20
-119.897
 11
48.7552
 21
-119.636
  0
LINE
  8
0
 10
48.7552
 20
-119.636
 11
48.8546
 21
-119.385
  0
LINE
  8
0
 10
48.8546
 20
-119.385
 11
48.9847
 21
-119.148
  0
LINE
  8
0
 10
48.9847
 20
-119.148
 11
49.1434
 21
-118.93
  0
LINE
  8
0
 10
49.1434
 20
-118.93
 11
49.3282
 21
-118.733
  0
LINE
  8
0
 10
49.3282
 20
-118.733
 11
49.5363
 21
-118.561
  0
LINE
  8
0
 10
49.5363
 20
-118.561
 11
49.7642
 21
-118.416
  0
LINE
  8
0
 10
49.7642
 20
-118.416
 11
50.0085
 21
-118.301
  0
LINE
  8
0
 10
50.0085
 20
-118.301
 11
50.2653
 21
-118.218
  0
LINE
  8
0
 10
50.2653
 20
-118.218
 11
50.5305
 21
-118.167
  0
LINE
  8
0
 10
50.5305
 20
-118.167
 11
50.8
 21
-118.15
  0
LINE
  8
0
 10
50.8
 20
-118.15
 11
51.0695
 21
-118.167
  0
LINE
  8
0
 10
51.0695
 20
-118.167
 11
51.3347
 21
-118.218
  0
LINE
  8
0
 10
51.3347
 20
-118.218
 11
51.5915
 21
-118.301
  0
LINE
  8
0
 10
51.5915
 20
-118.301
 11
51.8358
 21
-118.416
  0
LINE
  8
0
 10
51.8358
 20
-118.416
 11
52.0637
 21
-118.561
  0
LINE
  8
0
 10
52.0637
 20
-118.561
 11
52.2718
 21
-118.733
  0
LINE
  8
0
 10
52.2718
 20
-118.733
 11
52.4566
 21
-118.93
  0
LINE
  8
0
 10
52.4566
 20
-118.93
 11
52.6153
 21
-119.148
  0
LINE
  8
0
 10
52.6153
 20
-119.148
 11
52.7454
 21
-119.385
  0
LINE
  8
0
 10
52.7454
 20
-119.385
 11
52.8448
 21
-119.636
  0
LINE
  8
0
 10
52.8448
 20
-119.636
 11
52.9119
 21
-119.897
  0
LINE
  8
0
 10
52.9119
 20
-119.897
 11
52.9457
 21
-120.165
  0
LINE
  8
0
 10
52.9457
 20
-120.165
 11
52.9457
 21
-120.435
  0
LINE
  8
0
 10
52.9457
 20
-120.435
 11
52.9119
 21
-120.703
  0
LINE
  8
0
 10
52.9119
 20
-120.703
 11
52.8448
 21
-120.964
  0
LINE
  8
0
 10
52.8448
 20
-120.964
 11
52.7454
 21
-121.215
  0
LINE
  8
0
 10
52.7454
 20
-121.215
 11
52.6153
 21
-121.452
  0
LINE
  8
0
 10
52.6153
 20
-121.452
 11
52.4566
 21
-121.67
  0
LINE
  8
0
 10
52.4566
 20
-121.67
 11
52.2718
 21
-121.867
  0
LINE
  8
0
 10
52.2718
 20
-121.867
 11
52.0637
 21
-122.039
  0
LINE
  8
0
 10
52.0637
 20
-122.039
 11
51.8358
 21
-122.184
  0
LINE
  8
0
 10
51.8358
 20
-122.184
 11
51.5915
 21
-122.299
  0
LINE
  8
0
 10
51.5915
 20
-122.299
 11
51.3347
 21
-122.382
  0
LINE
  8
0
 10
51.3347
 20
-122.382
 11
51.0695
 21
-122.433
  0
LINE
  8
0
 10
51.0695
 20
-122.433
 11
50.8
 21
-122.45
  0
LINE
  8
0
 10
50.8
 20
-122.45
 11
50.5305
 21
-122.433
  0
LINE
  8
0
 10
-51.0694
 20
-122.433
 11
-51.3347
 21
-122.382
  0
LINE
  8
0
 10
-51.3347
 20
-122.382
 11
-51.5914
 21
-122.299
  0
LINE
  8
0
 10
-51.5914
 20
-122.299
 11
-51.8358
 21
-122.184
  0
LINE
  8
0
 10
-51.8358
 20
-122.184
 11
-52.0637
 21
-122.039
  0
LINE
  8
0
 10
-52.0637
 20
-122.039
 11
-52.2718
 21
-121.867
  0
LINE
  8
0
 10
-52.2718
 20
-121.867
 11
-52.4566
 21
-121.67
  0
LINE
  8
0
 10
-52.4566
 20
-121.67
 11
-52.6153
 21
-121.452
  0
LINE
  8
0
 10
-52.6153
 20
-121.452
 11
-52.7454
 21
-121.215
  0
LINE
  8
0
 10
-52.7454
 20
-121.215
 11
-52.8448
 21
-120.964
  0
LINE
  8
0
 10
-52.8448
 20
-120.964
 11
-52.9119
 21
-120.703
  0
LINE
  8
0
 10
-52.9119
 20
-120.703
 11
-52.9457
 21
-120.435
  0
LINE
  8
0
 10
-52.9457
 20
-120.435
 11
-52.9457
 21
-120.165
  0
LINE
  8
0
 10
-52.9457
 20
-120.165
 11
-52.9119
 21
-119.897
  0
LINE
  8
0
 10
-52.9119
 20
-119.897
 11
-52.8448
 21
-119.636
  0
LINE
  8
0
 10
-52.8448
 20
-119.636
 11
-52.7454
 21
-119.385
  0
LINE
  8
0
 10
-52.7454
 20
-119.385
 11
-52.6153
 21
-119.148
  0
LINE
  8
0
 10
-52.6153
 20
-119.148
 11
-52.4566
 21
-118.93
  0
LINE
  8
0
 10
-52.4566
 20
-118.93
 11
-52.2718
 21
-118.733
  0
LINE
  8
0
 10
-52.2718
 20
-118.733
 11
-52.0637
 21
-118.561
  0
LINE
  8
0
 10
-52.0637
 20
-118.561
 11
-51.8358
 21
-118.416
  0
LINE
  8
0
 10
-51.8358
 20
-118.416
 11
-51.5914
 21
-118.301
  0
LINE
  8
0
 10
-51.5914
 20
-118.301
 11
-51.3347
 21
-118.218
  0
LINE
  8
0
 10
-51.3347
 20
-118.218
 11
-51.0694
 21
-118.167
  0
LINE
  8
0
 10
-51.0694
 20
-118.167
 11
-50.8
 21
-118.15
  0
LINE
  8
0
 10
-50.8
 20
-118.15
 11
-50.5305
 21
-118.167
  0
LINE
  8
0
 10
-50.5305
 20
-118.167
 11
-50.2653
 21
-118.218
  0
LINE
  8
0
 10
-50.2653
 20
-118.218
 11
-50.0085
 21
-118.301
  0
LINE
  8
0
 10
-50.0085
 20
-118.301
 11
-49.7642
 21
-118.416
  0
LINE
  8
0
 10
-49.7642
 20
-118.416
 11
-49.5363
 21
-118.561
  0
LINE
  8
0
 10
-49.5363
 20
-118.561
 11
-49.3282
 21
-118.733
  0
LINE
  8
0
 10
-49.3282
 20
-118.733
 11
-49.1434
 21
-118.93
  0
LINE
  8
0
 10
-49.1434
 20
-118.93
 11
-48.9847
 21
-119.148
  0
LINE
  8
0
 10
-48.9847
 20
-119.148
 11
-48.8546
 21
-119.385
  0
LINE
  8
0
 10
-48.8546
 20
-119.385
 11
-48.7552
 21
-119.636
  0
LINE
  8
0
 10
-48.7552
 20
-119.636
 11
-48.6881
 21
-119.897
  0
LINE
  8
0
 10
-48.6881
 20
-119.897
 11
-48.6542
 21
-120.165
  0
LINE
  8
0
 10
-48.6542
 20
-120.165
 11
-48.6542
 21
-120.435
  0
LINE
  8
0
 10
-48.6542
 20
-120.435
 11
-48.6881
 21
-120.703
  0
LINE
  8
0
 10
-48.6881
 20
-120.703
 11
-48.7552
 21
-120.964
  0
LINE
  8
0
 10
-48.7552
 20
-120.964
 11
-48.8546
 21
-121.215
  0
LINE
  8
0
 10
-48.8546
 20
-121.215
 11
-48.9847
 21
-121.452
  0
LINE
  8
0
 10
-48.9847
 20
-121.452
 11
-49.1434
 21
-121.67
  0
LINE
  8
0
 10
-49.1434
 20
-121.67
 11
-49.3282
 21
-121.867
  0
LINE
  8
0
 10
-49.3282
 20
-121.867
 11
-49.5363
 21
-122.039
  0
LINE
  8
0
 10
-49.5363
 20
-122.039
 11
-49.7642
 21
-122.184
  0
LINE
  8
0
 10
-49.7642
 20
-122.184
 11
-50.0085
 21
-122.299
  0
LINE
  8
0
 10
-50.0085
 20
-122.299
 11
-50.2653
 21
-122.382
  0
LINE
  8
0
 10
-50.2653
 20
-122.382
 11
-50.5305
 21
-122.433
  0
LINE
  8
0
 10
-50.5305
 20
-122.433
 11
-50.8
 21
-122.45
  0
LINE
  8
0
 10
-50.8
 20
-122.45
 11
-51.0694
 21
-122.433
  0
LINE
  8
0
 10
52.3917
 20
-164.3
 11
53.9583
 21
-164.001
  0
LINE
  8
0
 10
53.9583
 20
-164.001
 11
55.4752
 21
-163.508
  0
LINE
  8
0
 10
55.4752
 20
-163.508
 11
56.9183
 21
-162.829
  0
LINE
  8
0
 10
56.9183
 20
-162.829
 11
58.2649
 21
-161.974
  0
LINE
  8
0
 10
58.2649
 20
-161.974
 11
59.4937
 21
-160.958
  0
LINE
  8
0
 10
59.4937
 20
-160.958
 11
60.5855
 21
-159.795
  0
LINE
  8
0
 10
60.5855
 20
-159.795
 11
61.5229
 21
-158.505
  0
LINE
  8
0
 10
61.5229
 20
-158.505
 11
62.2913
 21
-157.107
  0
LINE
  8
0
 10
62.2913
 20
-157.107
 11
62.8784
 21
-155.624
  0
LINE
  8
0
 10
62.8784
 20
-155.624
 11
63.275
 21
-154.08
  0
LINE
  8
0
 10
63.275
 20
-154.08
 11
63.4749
 21
-152.497
  0
LINE
  8
0
 10
63.4749
 20
-152.497
 11
63.4749
 21
-150.903
  0
LINE
  8
0
 10
63.4749
 20
-150.903
 11
63.275
 21
-149.32
  0
LINE
  8
0
 10
63.275
 20
-149.32
 11
62.8784
 21
-147.775
  0
LINE
  8
0
 10
62.8784
 20
-147.775
 11
62.2913
 21
-146.293
  0
LINE
  8
0
 10
62.2913
 20
-146.293
 11
61.5229
 21
-144.895
  0
LINE
  8
0
 10
61.5229
 20
-144.895
 11
60.5855
 21
-143.605
  0
LINE
  8
0
 10
60.5855
 20
-143.605
 11
59.4937
 21
-142.442
  0
LINE
  8
0
 10
59.4937
 20
-142.442
 11
58.2649
 21
-141.425
  0
LINE
  8
0
 10
58.2649
 20
-141.425
 11
56.9183
 21
-140.571
  0
LINE
  8
0
 10
56.9183
 20
-140.571
 11
55.4752
 21
-139.892
  0
LINE
  8
0
 10
55.4752
 20
-139.892
 11
53.9583
 21
-139.399
  0
LINE
  8
0
 10
53.9583
 20
-139.399
 11
52.3917
 21
-139.1
  0
LINE
  8
0
 10
52.3917
 20
-139.1
 11
50.8
 21
-139
  0
LINE
  8
0
 10
50.8
 20
-139
 11
-50.8
 21
-139
  0
LINE
  8
0
 10
-50.8
 20
-139
 11
-52.3917
 21
-139.1
  0
LINE
  8
0
 10
-52.3917
 20
-139.1
 11
-53.9583
 21
-139.399
  0
LINE
  8
0
 10
-53.9583
 20
-139.399
 11
-55.4752
 21
-139.892
  0
LINE
  8
0
 10
-55.4752
 20
-139.892
 11
-56.9183
 21
-140.571
  0
LINE
  8
0
 10
-56.9183
 20
-140.571
 11
-58.2648
 21
-141.425
  0
LINE
  8
0
 10
-58.2648
 20
-141.425
 11
-59.4937
 21
-142.442
  0
LINE
  8
0
 10
-59.4937
 20
-142.442
 11
-60.5855
 21
-143.605
  0
LINE
  8
0
 10
-60.5855
 20
-143.605
 11
-61.5229
 21
-144.895
  0
LINE
  8
0
 10
-61.5229
 20
-144.895
 11
-62.2913
 21
-146.293
  0
LINE
  8
0
 10
-62.2913
 20
-146.293
 11
-62.8784
 21
-147.775
  0
LINE
  8
0
 10
-62.8784
 20
-147.775
 11
-63.275
 21
-149.32
  0
LINE
  8
0
 10
-63.275
 20
-149.32
 11
-63.4749
 21
-150.903
  0
LINE
  8
0
 10
-63.4749
 20
-150.903
 11
-63.4749
 21
-152.497
  0
LINE
  8
0
 10
-63.4749
 20
-152.497
 11
-63.275
 21
-154.08
  0
LINE
  8
0
 10
-63.275
 20
-154.08
 11
-62.8784
 21
-155.624
  0
LINE
  8
0
 10
-62.8784
 20
-155.624
 11
-62.2913
 21
-157.107
  0
LINE
  8
0
 10
-62.2913
 20
-157.107
 11
-61.5229
 21
-158.505
  0
LINE
  8
0
 10
-61.5229
 20
-158.505
 11
-60.5855
 21
-159.795
  0
LINE
  8
0
 10
-60.5855
 20
-159.795
 11
-59.4937
 21
-160.958
  0
LINE
  8
0
 10
-59.4937
 20
-160.958
 11
-58.2648
 21
-161.974
  0
LINE
  8
0
 10
-58.2648
 20
-161.974
 11
-56.9183
 21
-162.829
  0
LINE
  8
0
 10
-56.9183
 20
-162.829
 11
-55.4752
 21
-163.508
  0
LINE
  8
0
 10
-55.4752
 20
-163.508
 11
-53.9583
 21
-164.001
  0
LINE
  8
0
 10
-53.9583
 20
-164.001
 11
-52.3917
 21
-164.3
  0
LINE
  8
0
 10
-52.3917
 20
-164.3
 11
-50.8
 21
-164.4
  0
LINE
  8
0
 10
-50.8
 20
-164.4
 11
50.8
 21
-164.4
  0
LINE
  8
0
 10
50.8
 20
-164.4
 11
52.3917
 21
-164.3
  0
LINE
  8
0
 10
50.5305
 20
-153.833
 11
50.2653
 21
-153.782
  0
LINE
  8
0
 10
50.2653
 20
-153.782
 11
50.0085
 21
-153.699
  0
LINE
  8
0
 10
50.0085
 20
-153.699
 11
49.7642
 21
-153.584
  0
LINE
  8
0
 10
49.7642
 20
-153.584
 11
49.5363
 21
-153.439
  0
LINE
  8
0
 10
49.5363
 20
-153.439
 11
49.3282
 21
-153.267
  0
LINE
  8
0
 10
49.3282
 20
-153.267
 11
49.1434
 21
-153.07
  0
LINE
  8
0
 10
49.1434
 20
-153.07
 11
48.9847
 21
-152.852
  0
LINE
  8
0
 10
48.9847
 20
-152.852
 11
48.8546
 21
-152.615
  0
LINE
  8
0
 10
48.8546
 20
-152.615
 11
48.7552
 21
-152.364
  0
LINE
  8
0
 10
48.7552
 20
-152.364
 11
48.6881
 21
-152.103
  0
LINE
  8
0
 10
48.6881
 20
-152.103
 11
48.6542
 21
-151.835
  0
LINE
  8
0
 10
48.6542
 20
-151.835
 11
48.6542
 21
-151.565
  0
LINE
  8
0
 10
48.6542
 20
-151.565
 11
48.6881
 21
-151.297
  0
LINE
  8
0
 10
48.6881
 20
-151.297
 11
48.7552
 21
-151.036
  0
LINE
  8
0
 10
48.7552
 20
-151.036
 11
48.8546
 21
-150.785
  0
LINE
  8
0
 10
48.8546
 20
-150.785
 11
48.9847
 21
-150.548
  0
LINE
  8
0
 10
48.9847
 20
-150.548
 11
49.1434
 21
-150.33
  0
LINE
  8
0
 10
49.1434
 20
-150.33
 11
49.3282
 21
-150.133
  0
LINE
  8
0
 10
49.3282
 20
-150.133
 11
49.5363
 21
-149.961
  0
LINE
  8
0
 10
49.5363
 20
-149.961
 11
49.7642
 21
-149.816
  0
LINE
  8
0
 10
49.7642
 20
-149.816
 11
50.0085
 21
-149.701
  0
LINE
  8
0
 10
50.0085
 20
-149.701
 11
50.2653
 21
-149.618
  0
LINE
  8
0
 10
50.2653
 20
-149.618
 11
50.5305
 21
-149.567
  0
LINE
  8
0
 10
50.5305
 20
-149.567
 11
50.8
 21
-149.55
  0
LINE
  8
0
 10
50.8
 20
-149.55
 11
51.0695
 21
-149.567
  0
LINE
  8
0
 10
51.0695
 20
-149.567
 11
51.3347
 21
-149.618
  0
LINE
  8
0
 10
51.3347
 20
-149.618
 11
51.5915
 21
-149.701
  0
LINE
  8
0
 10
51.5915
 20
-149.701
 11
51.8358
 21
-149.816
  0
LINE
  8
0
 10
51.8358
 20
-149.816
 11
52.0637
 21
-149.961
  0
LINE
  8
0
 10
52.0637
 20
-149.961
 11
52.2718
 21
-150.133
  0
LINE
  8
0
 10
52.2718
 20
-150.133
 11
52.4566
 21
-150.33
  0
LINE
  8
0
 10
52.4566
 20
-150.33
 11
52.6153
 21
-150.548
  0
LINE
  8
0
 10
52.6153
 20
-150.548
 11
52.7454
 21
-150.785
  0
LINE
  8
0
 10
52.7454
 20
-150.785
 11
52.8448
 21
-151.036
  0
LINE
  8
0
 10
52.8448
 20
-151.036
 11
52.9119
 21
-151.297
  0
LINE
  8
0
 10
52.9119
 20
-151.297
 11
52.9457
 21
-151.565
  0
LINE
  8
0
 10
52.9457
 20
-151.565
 11
52.9457
 21
-151.835
  0
LINE
  8
0
 10
52.9457
 20
-151.835
 11
52.9119
 21
-152.103
  0
LINE
  8
0
 10
52.9119
 20
-152.103
 11
52.8448
 21
-152.364
  0
LINE
  8
0
 10
52.8448
 20
-152.364
 11
52.7454
 21
-152.615
  0
LINE
  8
0
 10
52.7454
 20
-152.615
 11
52.6153
 21
-152.852
  0
LINE
  8
0
 10
52.6153
 20
-152.852
 11
52.4566
 21
-153.07
  0
LINE
  8
0
 10
52.4566
 20
-153.07
 11
52.2718
 21
-153.267
  0
LINE
  8
0
 10
52.2718
 20
-153.267
 11
52.0637
 21
-153.439
  0
LINE
  8
0
 10
52.0637
 20
-153.439
 11
51.8358
 21
-153.584
  0
LINE
  8
0
 10
51.8358
 20
-153.584
 11
51.5915
 21
-153.699
  0
LINE
  8
0
 10
51.5915
 20
-153.699
 11
51.3347
 21
-153.782
  0
LINE
  8
0
 10
51.3347
 20
-153.782
 11
51.0695
 21
-153.833
  0
LINE
  8
0
 10
51.0695
 20
-153.833
 11
50.8
 21
-153.85
  0
LINE
  8
0
 10
50.8
 20
-153.85
 11
50.5305
 21
-153.833
  0
LINE
  8
0
 10
-51.0694
 20
-153.833
 11
-51.3347
 21
-153.782
  0
LINE
  8
0
 10
-51.3347
 20
-153.782
 11
-51.5914
 21
-153.699
  0
LINE
  8
0
 10
-51.5914
 20
-153.699
 11
-51.8358
 21
-153.584
  0
LINE
  8
0
 10
-51.8358
 20
-153.584
 11
-52.0637
 21
-153.439
  0
LINE
  8
0
 10
-52.0637
 20
-153.439
 11
-52.2718
 21
-153.267
  0
LINE
  8
0
 10
-52.2718
 20
-153.267
 11
-52.4566
 21
-153.07
  0
LINE
  8
0
 10
-52.4566
 20
-153.07
 11
-52.6153
 21
-152.852
  0
LINE
  8
0
 10
-52.6153
 20
-152.852
 11
-52.7454
 21
-152.615
  0
LINE
  8
0
 10
-52.7454
 20
-152.615
 11
-52.8448
 21
-152.364
  0
LINE
  8
0
 10
-52.8448
 20
-152.364
 11
-52.9119
 21
-152.103
  0
LINE
  8
0
 10
-52.9119
 20
-152.103
 11
-52.9457
 21
-151.835
  0
LINE
  8
0
 10
-52.9457
 20
-151.835
 11
-52.9457
 21
-151.565
  0
LINE
  8
0
 10
-52.9457
 20
-151.565
 11
-52.9119
 21
-151.297
  0
LINE
  8
0
 10
-52.9119
 20
-151.297
 11
-52.8448
 21
-151.036
  0
LINE
  8
0
 10
-52.8448
 20
-151.036
 11
-52.7454
 21
-150.785
  0
LINE
  8
0
 10
-52.7454
 20
-150.785
 11
-52.6153
 21
-150.548
  0
LINE
  8
0
 10
-52.6153
 20
-150.548
 11
-52.4566
 21
-150.33
  0
LINE
  8
0
 10
-52.4566
 20
-150.33
 11
-52.2718
 21
-150.133
  0
LINE
  8
0
 10
-52.2718
 20
-150.133
 11
-52.0637
 21
-149.961
  0
LINE
  8
0
 10
-52.0637
 20
-149.961
 11
-51.8358
 21
-149.816
  0
LINE
  8
0
 10
-51.8358
 20
-149.816
 11
-51.5914
 21
-149.701
  0
LINE
  8
0
 10
-51.5914
 20
-149.701
 11
-51.3347
 21
-149.618
  0
LINE
  8
0
 10
-51.3347
 20
-149.618
 11
-51.0694
 21
-149.567
  0
LINE
  8
0
 10
-51.0694
 20
-149.567
 11
-50.8
 21
-149.55
  0
LINE
  8
0
 10
-50.8
 20
-149.55
 11
-50.5305
 21
-149.567
  0
LINE
  8
0
 10
-50.5305
 20
-149.567
 11
-50.2653
 21
-149.618
  0
LINE
  8
0
 10
-50.2653
 20
-149.618
 11
-50.0085
 21
-149.701
  0
LINE
  8
0
 10
-50.0085
 20
-149.701
 11
-49.7642
 21
-149.816
  0
LINE
  8
0
 10
-49.7642
 20
-149.816
 11
-49.5363
 21
-149.961
  0
LINE
  8
0
 10
-49.5363
 20
-149.961
 11
-49.3282
 21
-150.133
  0
LINE
  8
0
 10
-49.3282
 20
-150.133
 11
-49.1434
 21
-150.33
  0
LINE
  8
0
 10
-49.1434
 20
-150.33
 11
-48.9847
 21
-150.548
  0
LINE
  8
0
 10
-48.9847
 20
-150.548
 11
-48.8546
 21
-150.785
  0
LINE
  8
0
 10
-48.8546
 20
-150.785
 11
-48.7552
 21
-151.036
  0
LINE
  8
0
 10
-48.7552
 20
-151.036
 11
-48.6881
 21
-151.297
  0
LINE
  8
0
 10
-48.6881
 20
-151.297
 11
-48.6542
 21
-151.565
  0
LINE
  8
0
 10
-48.6542
 20
-151.565
 11
-48.6542
 21
-151.835
  0
LINE
  8
0
 10
-48.6542
 20
-151.835
 11
-48.6881
 21
-152.103
  0
LINE
  8
0
 10
-48.6881
 20
-152.103
 11
-48.7552
 21
-152.364
  0
LINE
  8
0
 10
-48.7552
 20
-152.364
 11
-48.8546
 21
-152.615
  0
LINE
  8
0
 10
-48.8546
 20
-152.615
 11
-48.9847
 21
-152.852
  0
LINE
  8
0
 10
-48.9847
 20
-152.852
 11
-49.1434
 21
-153.07
  0
LINE
  8
0
 10
-49.1434
 20
-153.07
 11
-49.3282
 21
-153.267
  0
LINE
  8
0
 10
-49.3282
 20
-153.267
 11
-49.5363
 21
-153.439
  0
LINE
  8
0
 10
-49.5363
 20
-153.439
 11
-49.7642
 21
-153.584
  0
LINE
  8
0
 10
-49.7642
 20
-153.584
 11
-50.0085
 21
-153.699
  0
LINE
  8
0
 10
-50.0085
 20
-153.699
 11
-50.2653
 21
-153.782
  0
LINE
  8
0
 10
-50.2653
 20
-153.782
 11
-50.5305
 21
-153.833
  0
LINE
  8
0
 10
-50.5305
 20
-153.833
 11
-50.8
 21
-153.85
  0
LINE
  8
0
 10
-50.8
 20
-153.85
 11
-51.0694
 21
-153.833
  0
ENDSEC
  0
SECTION
  2
OBJECTS
  0
DICTIONARY
  0
ENDSEC
  0
EOF
