<?xml version="1.0" standalone="no"?>
<!DOCTYPE svg PUBLIC "-//W3C//DTD SVG 1.1//EN" "http://www.w3.org/Graphics/SVG/1.1/DTD/svg11.dtd">
<svg width="409" height="565" viewBox="-102 -408 409 565" xmlns="http://www.w3.org/2000/svg" version="1.1">
<title>OpenSCAD Model</title>
<path d="
M 306.8,-408 L 103.6,-408 L 103.6,100 L 306.8,100 z
M 154.265,51.3458 L 153.997,51.3119 L 153.736,51.2448 L 153.485,51.1454 L 153.248,51.0153 L 153.03,50.8566
 L 152.833,50.6718 L 152.661,50.4637 L 152.516,50.2358 L 152.401,49.9915 L 152.318,49.7347 L 152.267,49.4695
 L 152.25,49.2 L 152.267,48.9305 L 152.318,48.6653 L 152.401,48.4085 L 152.516,48.1642 L 152.661,47.9363
 L 152.833,47.7282 L 153.03,47.5434 L 153.248,47.3847 L 153.485,47.2546 L 153.736,47.1552 L 153.997,47.0881
 L 154.265,47.0542 L 154.535,47.0542 L 154.803,47.0881 L 155.064,47.1552 L 155.315,47.2546 L 155.552,47.3847
 L 155.77,47.5434 L 155.967,47.7282 L 156.139,47.9363 L 156.284,48.1642 L 156.399,48.4085 L 156.482,48.6653
 L 156.533,48.9305 L 156.55,49.2 L 156.533,49.4695 L 156.482,49.7347 L 156.399,49.9915 L 156.284,50.2358
 L 156.139,50.4637 L 155.967,50.6718 L 155.77,50.8566 L 155.552,51.0153 L 155.315,51.1454 L 155.064,51.2448
 L 154.803,51.3119 L 154.535,51.3458 z
M 255.865,51.3458 L 255.597,51.3119 L 255.336,51.2448 L 255.085,51.1454 L 254.848,51.0153 L 254.63,50.8566
 L 254.433,50.6718 L 254.261,50.4637 L 254.116,50.2358 L 254.001,49.9915 L 253.918,49.7347 L 253.867,49.4695
 L 253.85,49.2 L 253.867,48.9305 L 253.918,48.6653 L 254.001,48.4085 L 254.116,48.1642 L 254.261,47.9363
 L 254.433,47.7282 L 254.63,47.5434 L 254.848,47.3847 L 255.085,47.2546 L 255.336,47.1552 L 255.597,47.0881
 L 255.865,47.0542 L 256.135,47.0542 L 256.403,47.0881 L 256.664,47.1552 L 256.915,47.2546 L 257.152,47.3847
 L 257.37,47.5434 L 257.567,47.7282 L 257.739,47.9363 L 257.884,48.1642 L 257.999,48.4085 L 258.082,48.6653
 L 258.133,48.9305 L 258.15,49.2 L 258.133,49.4695 L 258.082,49.7347 L 257.999,49.9915 L 257.884,50.2358
 L 257.739,50.4637 L 257.567,50.6718 L 257.37,50.8566 L 257.152,51.0153 L 256.915,51.1454 L 256.664,51.2448
 L 256.403,51.3119 L 256.135,51.3458 z
M 101.6,-408 L -101.6,-408 L -101.6,100 L 101.6,100 z
M -50.935,-355.054 L -51.2029,-355.088 L -51.4644,-355.155 L -51.7154,-355.255 L -51.952,-355.385 L -52.1705,-355.543
 L -52.3673,-355.728 L -52.5394,-355.936 L -52.6841,-356.164 L -52.799,-356.409 L -52.8824,-356.665 L -52.933,-356.931
 L -52.95,-357.2 L -52.933,-357.469 L -52.8824,-357.735 L -52.799,-357.991 L -52.6841,-358.236 L -52.5394,-358.464
 L -52.3673,-358.672 L -52.1705,-358.857 L -51.952,-359.015 L -51.7154,-359.145 L -51.4644,-359.245 L -51.2029,-359.312
 L -50.935,-359.346 L -50.665,-359.346 L -50.3971,-359.312 L -50.1356,-359.245 L -49.8846,-359.145 L -49.648,-359.015
 L -49.4295,-358.857 L -49.2327,-358.672 L -49.0606,-358.464 L -48.9159,-358.236 L -48.801,-357.991 L -48.7175,-357.735
 L -48.6669,-357.469 L -48.65,-357.2 L -48.6669,-356.931 L -48.7175,-356.665 L -48.801,-356.409 L -48.9159,-356.164
 L -49.0606,-355.936 L -49.2327,-355.728 L -49.4295,-355.543 L -49.648,-355.385 L -49.8846,-355.255 L -50.1356,-355.155
 L -50.3971,-355.088 L -50.665,-355.054 z
M 50.665,-355.054 L 50.3971,-355.088 L 50.1356,-355.155 L 49.8846,-355.255 L 49.648,-355.385 L 49.4295,-355.543
 L 49.2327,-355.728 L 49.0606,-355.936 L 48.9159,-356.164 L 48.801,-356.409 L 48.7175,-356.665 L 48.6669,-356.931
 L 48.65,-357.2 L 48.6669,-357.469 L 48.7175,-357.735 L 48.801,-357.991 L 48.9159,-358.236 L 49.0606,-358.464
 L 49.2327,-358.672 L 49.4295,-358.857 L 49.648,-359.015 L 49.8846,-359.145 L 50.1356,-359.245 L 50.3971,-359.312
 L 50.665,-359.346 L 50.935,-359.346 L 51.2029,-359.312 L 51.4644,-359.245 L 51.7154,-359.145 L 51.952,-359.015
 L 52.1705,-358.857 L 52.3673,-358.672 L 52.5394,-358.464 L 52.6841,-358.236 L 52.799,-357.991 L 52.8824,-357.735
 L 52.933,-357.469 L 52.95,-357.2 L 52.933,-356.931 L 52.8824,-356.665 L 52.799,-356.409 L 52.6841,-356.164
 L 52.5394,-355.936 L 52.3673,-355.728 L 52.1705,-355.543 L 51.952,-355.385 L 51.7154,-355.255 L 51.4644,-355.155
 L 51.2029,-355.088 L 50.935,-355.054 z
M -57.7695,-55.3669 L -58.0347,-55.4175 L -58.2915,-55.501 L -58.5358,-55.6159 L -58.7637,-55.7606 L -58.9718,-55.9327
 L -59.1566,-56.1295 L -59.3153,-56.348 L -59.4454,-56.5846 L -59.5448,-56.8356 L -59.6119,-57.0971 L -59.6458,-57.365
 L -59.6458,-57.635 L -59.6119,-57.9029 L -59.5448,-58.1644 L -59.4454,-58.4154 L -59.3153,-58.652 L -59.1566,-58.8705
 L -58.9718,-59.0673 L -58.7637,-59.2394 L -58.5358,-59.384 L -58.2915,-59.499 L -58.0347,-59.5824 L -57.7695,-59.633
 L -57.5,-59.65 L -57.2305,-59.633 L -56.9653,-59.5824 L -56.7085,-59.499 L -56.4642,-59.384 L -56.2363,-59.2394
 L -56.0282,-59.0673 L -55.8434,-58.8705 L -55.6847,-58.652 L -55.5546,-58.4154 L -55.4552,-58.1644 L -55.3881,-57.9029
 L -55.3542,-57.635 L -55.3542,-57.365 L -55.3881,-57.0971 L -55.4552,-56.8356 L -55.5546,-56.5846 L -55.6847,-56.348
 L -55.8434,-56.1295 L -56.0282,-55.9327 L -56.2363,-55.7606 L -56.4642,-55.6159 L -56.7085,-55.501 L -56.9653,-55.4175
 L -57.2305,-55.3669 L -57.5,-55.35 z
M 57.365,-55.3542 L 57.0971,-55.3881 L 56.8356,-55.4552 L 56.5846,-55.5546 L 56.348,-55.6847 L 56.1295,-55.8434
 L 55.9327,-56.0282 L 55.7606,-56.2363 L 55.6159,-56.4642 L 55.501,-56.7085 L 55.4175,-56.9653 L 55.3669,-57.2305
 L 55.35,-57.5 L 55.3669,-57.7695 L 55.4175,-58.0347 L 55.501,-58.2915 L 55.6159,-58.5358 L 55.7606,-58.7637
 L 55.9327,-58.9718 L 56.1295,-59.1566 L 56.348,-59.3153 L 56.5846,-59.4454 L 56.8356,-59.5448 L 57.0971,-59.6119
 L 57.365,-59.6458 L 57.635,-59.6458 L 57.9029,-59.6119 L 58.1644,-59.5448 L 58.4154,-59.4454 L 58.652,-59.3153
 L 58.8705,-59.1566 L 59.0673,-58.9718 L 59.2394,-58.7637 L 59.384,-58.5358 L 59.499,-58.2915 L 59.5824,-58.0347
 L 59.633,-57.7695 L 59.65,-57.5 L 59.633,-57.2305 L 59.5824,-56.9653 L 59.499,-56.7085 L 59.384,-56.4642
 L 59.2394,-56.2363 L 59.0673,-56.0282 L 58.8705,-55.8434 L 58.652,-55.6847 L 58.4154,-55.5546 L 58.1644,-55.4552
 L 57.9029,-55.3881 L 57.635,-55.3542 z
M -3.51627,55.8895 L -10.4933,55.0081 L -17.3049,53.2592 L -23.8436,50.6703 L -30.0063,47.2823 L -35.6957,43.1487
 L -40.8222,38.3346 L -45.3049,32.916 L -49.0732,26.9782 L -52.0675,20.615 L -54.2406,13.9266 L -55.5584,7.01865
 L -56,-0 L -55.5584,-7.01865 L -54.2406,-13.9266 L -52.0675,-20.615 L -49.0732,-26.9782 L -45.3049,-32.916
 L -40.8222,-38.3346 L -35.6957,-43.1487 L -30.0063,-47.2823 L -23.8436,-50.6703 L -17.3049,-53.2592 L -10.4933,-55.0081
 L -3.51627,-55.8895 L 3.51627,-55.8895 L 10.4933,-55.0081 L 17.3049,-53.2592 L 23.8436,-50.6703 L 30.0063,-47.2823
 L 35.6957,-43.1487 L 40.8222,-38.3346 L 45.3049,-32.916 L 49.0732,-26.9782 L 52.0675,-20.615 L 54.2406,-13.9266
 L 55.5584,-7.01865 L 56,-0 L 55.5584,7.01865 L 54.2406,13.9266 L 52.0675,20.615 L 49.0732,26.9782
 L 45.3049,32.916 L 40.8222,38.3346 L 35.6957,43.1487 L 30.0063,47.2823 L 23.8436,50.6703 L 17.3049,53.2592
 L 10.4933,55.0081 L 3.51627,55.8895 z
M 57.2305,59.633 L 56.9653,59.5824 L 56.7085,59.499 L 56.4642,59.384 L 56.2363,59.2394 L 56.0282,59.0673
 L 55.8434,58.8705 L 55.6847,58.652 L 55.5546,58.4154 L 55.4552,58.1644 L 55.3881,57.9029 L 55.3542,57.635
 L 55.3542,57.365 L 55.3881,57.0971 L 55.4552,56.8356 L 55.5546,56.5846 L 55.6847,56.348 L 55.8434,56.1295
 L 56.0282,55.9327 L 56.2363,55.7606 L 56.4642,55.6159 L 56.7085,55.501 L 56.9653,55.4175 L 57.2305,55.3669
 L 57.5,55.35 L 57.7695,55.3669 L 58.0347,55.4175 L 58.2915,55.501 L 58.5358,55.6159 L 58.7637,55.7606
 L 58.9718,55.9327 L 59.1566,56.1295 L 59.3153,56.348 L 59.4454,56.5846 L 59.5448,56.8356 L 59.6119,57.0971
 L 59.6458,57.365 L 59.6458,57.635 L 59.6119,57.9029 L 59.5448,58.1644 L 59.4454,58.4154 L 59.3153,58.652
 L 59.1566,58.8705 L 58.9718,59.0673 L 58.7637,59.2394 L 58.5358,59.384 L 58.2915,59.499 L 58.0347,59.5824
 L 57.7695,59.633 L 57.5,59.65 z
M -57.635,59.6458 L -57.9029,59.6119 L -58.1644,59.5448 L -58.4154,59.4454 L -58.652,59.3153 L -58.8705,59.1566
 L -59.0673,58.9718 L -59.2394,58.7637 L -59.384,58.5358 L -59.499,58.2915 L -59.5824,58.0347 L -59.633,57.7695
 L -59.65,57.5 L -59.633,57.2305 L -59.5824,56.9653 L -59.499,56.7085 L -59.384,56.4642 L -59.2394,56.2363
 L -59.0673,56.0282 L -58.8705,55.8434 L -58.652,55.6847 L -58.4154,55.5546 L -58.1644,55.4552 L -57.9029,55.3881
 L -57.635,55.3542 L -57.365,55.3542 L -57.0971,55.3881 L -56.8356,55.4552 L -56.5846,55.5546 L -56.348,55.6847
 L -56.1295,55.8434 L -55.9327,56.0282 L -55.7606,56.2363 L -55.6159,56.4642 L -55.501,56.7085 L -55.4175,56.9653
 L -55.3669,57.2305 L -55.35,57.5 L -55.3669,57.7695 L -55.4175,58.0347 L -55.501,58.2915 L -55.6159,58.5358
 L -55.7606,58.7637 L -55.9327,58.9718 L -56.1295,59.1566 L -56.348,59.3153 L -56.5846,59.4454 L -56.8356,59.5448
 L -57.0971,59.6119 L -57.365,59.6458 z
M 52.3917,128.9 L 53.9583,128.601 L 55.4752,128.108 L 56.9183,127.429 L 58.2649,126.574 L 59.4937,125.558
 L 60.5855,124.395 L 61.5229,123.105 L 62.2913,121.707 L 62.8784,120.225 L 63.275,118.68 L 63.4749,117.097
 L 63.4749,115.503 L 63.275,113.92 L 62.8784,112.375 L 62.2913,110.893 L 61.5229,109.495 L 60.5855,108.205
 L 59.4937,107.042 L 58.2649,106.025 L 56.9183,105.171 L 55.4752,104.492 L 53.9583,103.999 L 52.3917,103.7
 L 50.8,103.6 L -50.8,103.6 L -52.3917,103.7 L -53.9583,103.999 L -55.4752,104.492 L -56.9183,105.171
 L -58.2648,106.025 L -59.4937,107.042 L -60.5855,108.205 L -61.5229,109.495 L -62.2913,110.893 L -62.8784,112.375
 L -63.275,113.92 L -63.4749,115.503 L -63.4749,117.097 L -63.275,118.68 L -62.8784,120.225 L -62.2913,121.707
 L -61.5229,123.105 L -60.5855,124.395 L -59.4937,125.558 L -58.2648,126.574 L -56.9183,127.429 L -55.4752,128.108
 L -53.9583,128.601 L -52.3917,128.9 L -50.8,129 L 50.8,129 z
M 50.5305,118.433 L 50.2653,118.382 L 50.0085,118.299 L 49.7642,118.184 L 49.5363,118.039 L 49.3282,117.867
 L 49.1434,117.67 L 48.9847,117.452 L 48.8546,117.215 L 48.7552,116.964 L 48.6881,116.703 L 48.6542,116.435
 L 48.6542,116.165 L 48.6881,115.897 L 48.7552,115.636 L 48.8546,115.385 L 48.9847,115.148 L 49.1434,114.93
 L 49.3282,114.733 L 49.5363,114.561 L 49.7642,114.416 L 50.0085,114.301 L 50.2653,114.218 L 50.5305,114.167
 L 50.8,114.15 L 51.0695,114.167 L 51.3347,114.218 L 51.5915,114.301 L 51.8358,114.416 L 52.0637,114.561
 L 52.2718,114.733 L 52.4566,114.93 L 52.6153,115.148 L 52.7454,115.385 L 52.8448,115.636 L 52.9119,115.897
 L 52.9457,116.165 L 52.9457,116.435 L 52.9119,116.703 L 52.8448,116.964 L 52.7454,117.215 L 52.6153,117.452
 L 52.4566,117.67 L 52.2718,117.867 L 52.0637,118.039 L 51.8358,118.184 L 51.5915,118.299 L 51.3347,118.382
 L 51.0695,118.433 L 50.8,118.45 z
M -51.0694,118.433 L -51.3347,118.382 L -51.5914,118.299 L -51.8358,118.184 L -52.0637,118.039 L -52.2718,117.867
 L -52.4566,117.67 L -52.6153,117.452 L -52.7454,117.215 L -52.8448,116.964 L -52.9119,116.703 L -52.9457,116.435
 L -52.9457,116.165 L -52.9119,115.897 L -52.8448,115.636 L -52.7454,115.385 L -52.6153,115.148 L -52.4566,114.93
 L -52.2718,114.733 L -52.0637,114.561 L -51.8358,114.416 L -51.5914,114.301 L -51.3347,114.218 L -51.0694,114.167
 L -50.8,114.15 L -50.5305,114.167 L -50.2653,114.218 L -50.0085,114.301 L -49.7642,114.416 L -49.5363,114.561
 L -49.3282,114.733 L -49.1434,114.93 L -48.9847,115.148 L -48.8546,115.385 L -48.7552,115.636 L -48.6881,115.897
 L -48.6542,116.165 L -48.6542,116.435 L -48.6881,116.703 L -48.7552,116.964 L -48.8546,117.215 L -48.9847,117.452
 L -49.1434,117.67 L -49.3282,117.867 L -49.5363,118.039 L -49.7642,118.184 L -50.0085,118.299 L -50.2653,118.382
 L -50.5305,118.433 L -50.8,118.45 z
M 52.3917,156.3 L 53.9583,156.001 L 55.4752,155.508 L 56.9183,154.829 L 58.2649,153.974 L 59.4937,152.958
 L 60.5855,151.795 L 61.5229,150.505 L 62.2913,149.107 L 62.8784,147.624 L 63.275,146.08 L 63.4749,144.497
 L 63.4749,142.903 L 63.275,141.32 L 62.8784,139.775 L 62.2913,138.293 L 61.5229,136.895 L 60.5855,135.605
 L 59.4937,134.442 L 58.2649,133.425 L 56.9183,132.571 L 55.4752,131.892 L 53.9583,131.399 L 52.3917,131.1
 L 50.8,131 L -50.8,131 L -52.3917,131.1 L -53.9583,131.399 L -55.4752,131.892 L -56.9183,132.571
 L -58.2648,133.425 L -59.4937,134.442 L -60.5855,135.605 L -61.5229,136.895 L -62.2913,138.293 L -62.8784,139.775
 L -63.275,141.32 L -63.4749,142.903 L -63.4749,144.497 L -63.275,146.08 L -62.8784,147.624 L -62.2913,149.107
 L -61.5229,150.505 L -60.5855,151.795 L -59.4937,152.958 L -58.2648,153.974 L -56.9183,154.829 L -55.4752,155.508
 L -53.9583,156.001 L -52.3917,156.3 L -50.8,156.4 L 50.8,156.4 z
M 50.5305,145.833 L 50.2653,145.782 L 50.0085,145.699 L 49.7642,145.584 L 49.5363,145.439 L 49.3282,145.267
 L 49.1434,145.07 L 48.9847,144.852 L 48.8546,144.615 L 48.7552,144.364 L 48.6881,144.103 L 48.6542,143.835
 L 48.6542,143.565 L 48.6881,143.297 L 48.7552,143.036 L 48.8546,142.785 L 48.9847,142.548 L 49.1434,142.33
 L 49.3282,142.133 L 49.5363,141.961 L 49.7642,141.816 L 50.0085,141.701 L 50.2653,141.618 L 50.5305,141.567
 L 50.8,141.55 L 51.0695,141.567 L 51.3347,141.618 L 51.5915,141.701 L 51.8358,141.816 L 52.0637,141.961
 L 52.2718,142.133 L 52.4566,142.33 L 52.6153,142.548 L 52.7454,142.785 L 52.8448,143.036 L 52.9119,143.297
 L 52.9457,143.565 L 52.9457,143.835 L 52.9119,144.103 L 52.8448,144.364 L 52.7454,144.615 L 52.6153,144.852
 L 52.4566,145.07 L 52.2718,145.267 L 52.0637,145.439 L 51.8358,145.584 L 51.5915,145.699 L 51.3347,145.782
 L 51.0695,145.833 L 50.8,145.85 z
M -51.0694,145.833 L -51.3347,145.782 L -51.5914,145.699 L -51.8358,145.584 L -52.0637,145.439 L -52.2718,145.267
 L -52.4566,145.07 L -52.6153,144.852 L -52.7454,144.615 L -52.8448,144.364 L -52.9119,144.103 L -52.9457,143.835
 L -52.9457,143.565 L -52.9119,143.297 L -52.8448,143.036 L -52.7454,142.785 L -52.6153,142.548 L -52.4566,142.33
 L -52.2718,142.133 L -52.0637,141.961 L -51.8358,141.816 L -51.5914,141.701 L -51.3347,141.618 L -51.0694,141.567
 L -50.8,141.55 L -50.5305,141.567 L -50.2653,141.618 L -50.0085,141.701 L -49.7642,141.816 L -49.5363,141.961
 L -49.3282,142.133 L -49.1434,142.33 L -48.9847,142.548 L -48.8546,142.785 L -48.7552,143.036 L -48.6881,143.297
 L -48.6542,143.565 L -48.6542,143.835 L -48.6881,144.103 L -48.7552,144.364 L -48.8546,144.615 L -48.9847,144.852
 L -49.1434,145.07 L -49.3282,145.267 L -49.5363,145.439 L -49.7642,145.584 L -50.0085,145.699 L -50.2653,145.782
 L -50.5305,145.833 L -50.8,145.85 z
" stroke="black" fill="lightgray" stroke-width="0.5"/></svg>
